ISO-10303-21;
HEADER;
/* Generated by software containing ST-Developer
 * from STEP Tools, Inc. (www.steptools.com) 
 */

FILE_DESCRIPTION(
/* description */ (''),
/* implementation_level */ '2;1');

FILE_NAME(
/* name */ 'Motorblock v1.step',
/* time_stamp */ '2024-02-08T13:42:54+01:00',
/* author */ (''),
/* organization */ (''),
/* preprocessor_version */ 'ST-DEVELOPER v20',
/* originating_system */ 'Autodesk Translation Framework v12.14.0.127',

/* authorisation */ '');

FILE_SCHEMA (('AUTOMOTIVE_DESIGN { 1 0 10303 214 3 1 1 }'));
ENDSEC;

DATA;
#10=MECHANICAL_DESIGN_GEOMETRIC_PRESENTATION_REPRESENTATION('',(#13),#1304);
#11=SHAPE_REPRESENTATION_RELATIONSHIP('SRR','None',#1311,#12);
#12=ADVANCED_BREP_SHAPE_REPRESENTATION('',(#14),#1303);
#13=STYLED_ITEM('',(#1320),#14);
#14=MANIFOLD_SOLID_BREP('K\X\F6rper1',#692);
#15=CYLINDRICAL_SURFACE('',#717,38.);
#16=CYLINDRICAL_SURFACE('',#727,38.);
#17=CYLINDRICAL_SURFACE('',#737,38.);
#18=CYLINDRICAL_SURFACE('',#747,38.);
#19=CYLINDRICAL_SURFACE('',#757,38.);
#20=CYLINDRICAL_SURFACE('',#767,38.);
#21=CYLINDRICAL_SURFACE('',#792,28.);
#22=CYLINDRICAL_SURFACE('',#795,28.);
#23=CYLINDRICAL_SURFACE('',#798,28.);
#24=CYLINDRICAL_SURFACE('',#801,28.);
#25=CYLINDRICAL_SURFACE('',#804,28.);
#26=CYLINDRICAL_SURFACE('',#807,28.);
#27=TOROIDAL_SURFACE('',#712,36.,2.);
#28=TOROIDAL_SURFACE('',#722,36.,2.);
#29=TOROIDAL_SURFACE('',#732,36.,2.);
#30=TOROIDAL_SURFACE('',#742,36.,2.);
#31=TOROIDAL_SURFACE('',#752,36.,2.);
#32=TOROIDAL_SURFACE('',#762,36.,2.);
#33=TOROIDAL_SURFACE('',#772,40.,2.);
#34=TOROIDAL_SURFACE('',#778,40.,2.);
#35=TOROIDAL_SURFACE('',#780,40.,2.);
#36=TOROIDAL_SURFACE('',#782,40.,2.);
#37=TOROIDAL_SURFACE('',#788,40.,2.);
#38=TOROIDAL_SURFACE('',#790,40.,2.);
#39=LINE('',#1115,#66);
#40=LINE('',#1117,#67);
#41=LINE('',#1119,#68);
#42=LINE('',#1120,#69);
#43=LINE('',#1131,#70);
#44=LINE('',#1148,#71);
#45=LINE('',#1165,#72);
#46=LINE('',#1182,#73);
#47=LINE('',#1199,#74);
#48=LINE('',#1216,#75);
#49=LINE('',#1229,#76);
#50=LINE('',#1231,#77);
#51=LINE('',#1232,#78);
#52=LINE('',#1247,#79);
#53=LINE('',#1249,#80);
#54=LINE('',#1250,#81);
#55=LINE('',#1261,#82);
#56=LINE('',#1266,#83);
#57=LINE('',#1271,#84);
#58=LINE('',#1276,#85);
#59=LINE('',#1281,#86);
#60=LINE('',#1286,#87);
#61=LINE('',#1292,#88);
#62=LINE('',#1294,#89);
#63=LINE('',#1295,#90);
#64=LINE('',#1297,#91);
#65=LINE('',#1298,#92);
#66=VECTOR('',#829,10.);
#67=VECTOR('',#830,10.);
#68=VECTOR('',#831,10.);
#69=VECTOR('',#832,10.);
#70=VECTOR('',#845,38.);
#71=VECTOR('',#866,38.);
#72=VECTOR('',#887,38.);
#73=VECTOR('',#908,38.);
#74=VECTOR('',#929,38.);
#75=VECTOR('',#950,38.);
#76=VECTOR('',#967,10.);
#77=VECTOR('',#968,10.);
#78=VECTOR('',#969,10.);
#79=VECTOR('',#990,10.);
#80=VECTOR('',#991,10.);
#81=VECTOR('',#992,10.);
#82=VECTOR('',#1007,28.);
#83=VECTOR('',#1014,28.);
#84=VECTOR('',#1021,28.);
#85=VECTOR('',#1028,28.);
#86=VECTOR('',#1035,28.);
#87=VECTOR('',#1042,28.);
#88=VECTOR('',#1051,10.);
#89=VECTOR('',#1052,10.);
#90=VECTOR('',#1053,10.);
#91=VECTOR('',#1056,10.);
#92=VECTOR('',#1057,10.);
#93=FACE_BOUND('',#178,.T.);
#94=FACE_BOUND('',#180,.T.);
#95=FACE_BOUND('',#184,.T.);
#96=FACE_BOUND('',#188,.T.);
#97=FACE_BOUND('',#192,.T.);
#98=FACE_BOUND('',#196,.T.);
#99=FACE_BOUND('',#200,.T.);
#100=FACE_BOUND('',#204,.T.);
#101=FACE_BOUND('',#207,.T.);
#102=FACE_BOUND('',#208,.T.);
#103=FACE_BOUND('',#209,.T.);
#104=FACE_BOUND('',#214,.T.);
#105=FACE_BOUND('',#215,.T.);
#106=FACE_BOUND('',#216,.T.);
#107=PLANE('',#710);
#108=PLANE('',#711);
#109=PLANE('',#720);
#110=PLANE('',#730);
#111=PLANE('',#740);
#112=PLANE('',#750);
#113=PLANE('',#760);
#114=PLANE('',#770);
#115=PLANE('',#775);
#116=PLANE('',#785);
#117=PLANE('',#794);
#118=PLANE('',#797);
#119=PLANE('',#800);
#120=PLANE('',#803);
#121=PLANE('',#806);
#122=PLANE('',#809);
#123=PLANE('',#810);
#124=PLANE('',#811);
#125=PLANE('',#812);
#126=PLANE('',#813);
#127=PLANE('',#814);
#128=FACE_OUTER_BOUND('',#175,.T.);
#129=FACE_OUTER_BOUND('',#176,.T.);
#130=FACE_OUTER_BOUND('',#177,.T.);
#131=FACE_OUTER_BOUND('',#179,.T.);
#132=FACE_OUTER_BOUND('',#181,.T.);
#133=FACE_OUTER_BOUND('',#182,.T.);
#134=FACE_OUTER_BOUND('',#183,.T.);
#135=FACE_OUTER_BOUND('',#185,.T.);
#136=FACE_OUTER_BOUND('',#186,.T.);
#137=FACE_OUTER_BOUND('',#187,.T.);
#138=FACE_OUTER_BOUND('',#189,.T.);
#139=FACE_OUTER_BOUND('',#190,.T.);
#140=FACE_OUTER_BOUND('',#191,.T.);
#141=FACE_OUTER_BOUND('',#193,.T.);
#142=FACE_OUTER_BOUND('',#194,.T.);
#143=FACE_OUTER_BOUND('',#195,.T.);
#144=FACE_OUTER_BOUND('',#197,.T.);
#145=FACE_OUTER_BOUND('',#198,.T.);
#146=FACE_OUTER_BOUND('',#199,.T.);
#147=FACE_OUTER_BOUND('',#201,.T.);
#148=FACE_OUTER_BOUND('',#202,.T.);
#149=FACE_OUTER_BOUND('',#203,.T.);
#150=FACE_OUTER_BOUND('',#205,.T.);
#151=FACE_OUTER_BOUND('',#206,.T.);
#152=FACE_OUTER_BOUND('',#210,.T.);
#153=FACE_OUTER_BOUND('',#211,.T.);
#154=FACE_OUTER_BOUND('',#212,.T.);
#155=FACE_OUTER_BOUND('',#213,.T.);
#156=FACE_OUTER_BOUND('',#217,.T.);
#157=FACE_OUTER_BOUND('',#218,.T.);
#158=FACE_OUTER_BOUND('',#219,.T.);
#159=FACE_OUTER_BOUND('',#220,.T.);
#160=FACE_OUTER_BOUND('',#221,.T.);
#161=FACE_OUTER_BOUND('',#222,.T.);
#162=FACE_OUTER_BOUND('',#223,.T.);
#163=FACE_OUTER_BOUND('',#224,.T.);
#164=FACE_OUTER_BOUND('',#225,.T.);
#165=FACE_OUTER_BOUND('',#226,.T.);
#166=FACE_OUTER_BOUND('',#227,.T.);
#167=FACE_OUTER_BOUND('',#228,.T.);
#168=FACE_OUTER_BOUND('',#229,.T.);
#169=FACE_OUTER_BOUND('',#230,.T.);
#170=FACE_OUTER_BOUND('',#231,.T.);
#171=FACE_OUTER_BOUND('',#232,.T.);
#172=FACE_OUTER_BOUND('',#233,.T.);
#173=FACE_OUTER_BOUND('',#234,.T.);
#174=FACE_OUTER_BOUND('',#235,.T.);
#175=EDGE_LOOP('',(#457,#458,#459,#460));
#176=EDGE_LOOP('',(#461,#462,#463,#464));
#177=EDGE_LOOP('',(#465));
#178=EDGE_LOOP('',(#466));
#179=EDGE_LOOP('',(#467,#468,#469,#470));
#180=EDGE_LOOP('',(#471));
#181=EDGE_LOOP('',(#472,#473,#474,#475,#476));
#182=EDGE_LOOP('',(#477,#478,#479,#480,#481,#482));
#183=EDGE_LOOP('',(#483));
#184=EDGE_LOOP('',(#484));
#185=EDGE_LOOP('',(#485,#486,#487,#488,#489));
#186=EDGE_LOOP('',(#490,#491,#492,#493,#494,#495));
#187=EDGE_LOOP('',(#496));
#188=EDGE_LOOP('',(#497));
#189=EDGE_LOOP('',(#498,#499,#500,#501,#502));
#190=EDGE_LOOP('',(#503,#504,#505,#506,#507,#508));
#191=EDGE_LOOP('',(#509));
#192=EDGE_LOOP('',(#510));
#193=EDGE_LOOP('',(#511,#512,#513,#514,#515));
#194=EDGE_LOOP('',(#516,#517,#518,#519,#520,#521));
#195=EDGE_LOOP('',(#522));
#196=EDGE_LOOP('',(#523));
#197=EDGE_LOOP('',(#524,#525,#526,#527,#528));
#198=EDGE_LOOP('',(#529,#530,#531,#532,#533,#534));
#199=EDGE_LOOP('',(#535));
#200=EDGE_LOOP('',(#536));
#201=EDGE_LOOP('',(#537,#538,#539,#540,#541));
#202=EDGE_LOOP('',(#542,#543,#544,#545,#546,#547));
#203=EDGE_LOOP('',(#548));
#204=EDGE_LOOP('',(#549));
#205=EDGE_LOOP('',(#550,#551,#552,#553,#554));
#206=EDGE_LOOP('',(#555,#556,#557,#558));
#207=EDGE_LOOP('',(#559));
#208=EDGE_LOOP('',(#560));
#209=EDGE_LOOP('',(#561));
#210=EDGE_LOOP('',(#562,#563,#564,#565,#566));
#211=EDGE_LOOP('',(#567,#568,#569,#570,#571));
#212=EDGE_LOOP('',(#572,#573,#574,#575,#576));
#213=EDGE_LOOP('',(#577,#578,#579,#580));
#214=EDGE_LOOP('',(#581));
#215=EDGE_LOOP('',(#582));
#216=EDGE_LOOP('',(#583));
#217=EDGE_LOOP('',(#584,#585,#586,#587,#588));
#218=EDGE_LOOP('',(#589,#590,#591,#592,#593));
#219=EDGE_LOOP('',(#594,#595,#596,#597));
#220=EDGE_LOOP('',(#598));
#221=EDGE_LOOP('',(#599,#600,#601,#602));
#222=EDGE_LOOP('',(#603));
#223=EDGE_LOOP('',(#604,#605,#606,#607));
#224=EDGE_LOOP('',(#608));
#225=EDGE_LOOP('',(#609,#610,#611,#612));
#226=EDGE_LOOP('',(#613));
#227=EDGE_LOOP('',(#614,#615,#616,#617));
#228=EDGE_LOOP('',(#618));
#229=EDGE_LOOP('',(#619,#620,#621,#622));
#230=EDGE_LOOP('',(#623));
#231=EDGE_LOOP('',(#624));
#232=EDGE_LOOP('',(#625,#626,#627,#628));
#233=EDGE_LOOP('',(#629,#630,#631,#632));
#234=EDGE_LOOP('',(#633,#634,#635,#636,#637));
#235=EDGE_LOOP('',(#638,#639,#640,#641,#642));
#236=B_SPLINE_CURVE_WITH_KNOTS('',1,(#1084,#1085),.UNSPECIFIED.,.F.,.F.,
(2,2),(-7.67757278336513,3.33066907387547E-16),.UNSPECIFIED.);
#237=B_SPLINE_CURVE_WITH_KNOTS('',1,(#1108,#1109),.UNSPECIFIED.,.F.,.F.,
(2,2),(-5.37430094835559,-2.22044604925031E-16),.UNSPECIFIED.);
#238=CIRCLE('',#706,17.5);
#239=CIRCLE('',#707,17.5);
#240=CIRCLE('',#708,25.);
#241=CIRCLE('',#709,25.);
#242=CIRCLE('',#713,36.);
#243=CIRCLE('',#714,2.);
#244=CIRCLE('',#715,38.);
#245=CIRCLE('',#716,38.);
#246=CIRCLE('',#718,38.);
#247=CIRCLE('',#719,38.);
#248=CIRCLE('',#721,28.);
#249=CIRCLE('',#723,36.);
#250=CIRCLE('',#724,2.);
#251=CIRCLE('',#725,38.);
#252=CIRCLE('',#726,38.);
#253=CIRCLE('',#728,38.);
#254=CIRCLE('',#729,38.);
#255=CIRCLE('',#731,28.);
#256=CIRCLE('',#733,36.);
#257=CIRCLE('',#734,2.);
#258=CIRCLE('',#735,38.);
#259=CIRCLE('',#736,38.);
#260=CIRCLE('',#738,38.);
#261=CIRCLE('',#739,38.);
#262=CIRCLE('',#741,28.);
#263=CIRCLE('',#743,36.);
#264=CIRCLE('',#744,2.);
#265=CIRCLE('',#745,38.);
#266=CIRCLE('',#746,38.);
#267=CIRCLE('',#748,38.);
#268=CIRCLE('',#749,38.);
#269=CIRCLE('',#751,28.);
#270=CIRCLE('',#753,36.);
#271=CIRCLE('',#754,2.);
#272=CIRCLE('',#755,38.);
#273=CIRCLE('',#756,38.);
#274=CIRCLE('',#758,38.);
#275=CIRCLE('',#759,38.);
#276=CIRCLE('',#761,28.);
#277=CIRCLE('',#763,36.);
#278=CIRCLE('',#764,2.);
#279=CIRCLE('',#765,38.);
#280=CIRCLE('',#766,38.);
#281=CIRCLE('',#768,38.);
#282=CIRCLE('',#769,38.);
#283=CIRCLE('',#771,28.);
#284=CIRCLE('',#773,2.);
#285=CIRCLE('',#774,40.);
#286=CIRCLE('',#776,40.);
#287=CIRCLE('',#777,40.);
#288=CIRCLE('',#779,2.);
#289=CIRCLE('',#781,2.);
#290=CIRCLE('',#783,2.);
#291=CIRCLE('',#784,40.);
#292=CIRCLE('',#786,40.);
#293=CIRCLE('',#787,40.);
#294=CIRCLE('',#789,2.);
#295=CIRCLE('',#791,2.);
#296=CIRCLE('',#793,28.);
#297=CIRCLE('',#796,28.);
#298=CIRCLE('',#799,28.);
#299=CIRCLE('',#802,28.);
#300=CIRCLE('',#805,28.);
#301=CIRCLE('',#808,28.);
#302=VERTEX_POINT('',#1081);
#303=VERTEX_POINT('',#1083);
#304=VERTEX_POINT('',#1105);
#305=VERTEX_POINT('',#1107);
#306=VERTEX_POINT('',#1113);
#307=VERTEX_POINT('',#1114);
#308=VERTEX_POINT('',#1116);
#309=VERTEX_POINT('',#1118);
#310=VERTEX_POINT('',#1122);
#311=VERTEX_POINT('',#1124);
#312=VERTEX_POINT('',#1126);
#313=VERTEX_POINT('',#1130);
#314=VERTEX_POINT('',#1132);
#315=VERTEX_POINT('',#1136);
#316=VERTEX_POINT('',#1139);
#317=VERTEX_POINT('',#1141);
#318=VERTEX_POINT('',#1143);
#319=VERTEX_POINT('',#1147);
#320=VERTEX_POINT('',#1149);
#321=VERTEX_POINT('',#1153);
#322=VERTEX_POINT('',#1156);
#323=VERTEX_POINT('',#1158);
#324=VERTEX_POINT('',#1160);
#325=VERTEX_POINT('',#1164);
#326=VERTEX_POINT('',#1166);
#327=VERTEX_POINT('',#1170);
#328=VERTEX_POINT('',#1173);
#329=VERTEX_POINT('',#1175);
#330=VERTEX_POINT('',#1177);
#331=VERTEX_POINT('',#1181);
#332=VERTEX_POINT('',#1183);
#333=VERTEX_POINT('',#1187);
#334=VERTEX_POINT('',#1190);
#335=VERTEX_POINT('',#1192);
#336=VERTEX_POINT('',#1194);
#337=VERTEX_POINT('',#1198);
#338=VERTEX_POINT('',#1200);
#339=VERTEX_POINT('',#1204);
#340=VERTEX_POINT('',#1207);
#341=VERTEX_POINT('',#1209);
#342=VERTEX_POINT('',#1211);
#343=VERTEX_POINT('',#1215);
#344=VERTEX_POINT('',#1217);
#345=VERTEX_POINT('',#1221);
#346=VERTEX_POINT('',#1224);
#347=VERTEX_POINT('',#1228);
#348=VERTEX_POINT('',#1230);
#349=VERTEX_POINT('',#1233);
#350=VERTEX_POINT('',#1235);
#351=VERTEX_POINT('',#1242);
#352=VERTEX_POINT('',#1246);
#353=VERTEX_POINT('',#1248);
#354=VERTEX_POINT('',#1251);
#355=VERTEX_POINT('',#1253);
#356=VERTEX_POINT('',#1260);
#357=VERTEX_POINT('',#1265);
#358=VERTEX_POINT('',#1270);
#359=VERTEX_POINT('',#1275);
#360=VERTEX_POINT('',#1280);
#361=VERTEX_POINT('',#1285);
#362=VERTEX_POINT('',#1291);
#363=VERTEX_POINT('',#1293);
#364=EDGE_CURVE('',#302,#302,#238,.T.);
#365=EDGE_CURVE('',#302,#303,#236,.T.);
#366=EDGE_CURVE('',#303,#303,#239,.T.);
#367=EDGE_CURVE('',#304,#304,#240,.T.);
#368=EDGE_CURVE('',#304,#305,#237,.T.);
#369=EDGE_CURVE('',#305,#305,#241,.T.);
#370=EDGE_CURVE('',#306,#307,#39,.T.);
#371=EDGE_CURVE('',#306,#308,#40,.T.);
#372=EDGE_CURVE('',#309,#308,#41,.T.);
#373=EDGE_CURVE('',#307,#309,#42,.T.);
#374=EDGE_CURVE('',#310,#310,#242,.T.);
#375=EDGE_CURVE('',#310,#311,#243,.T.);
#376=EDGE_CURVE('',#311,#312,#244,.T.);
#377=EDGE_CURVE('',#312,#311,#245,.T.);
#378=EDGE_CURVE('',#312,#313,#43,.T.);
#379=EDGE_CURVE('',#314,#313,#246,.T.);
#380=EDGE_CURVE('',#313,#314,#247,.T.);
#381=EDGE_CURVE('',#315,#315,#248,.T.);
#382=EDGE_CURVE('',#316,#316,#249,.T.);
#383=EDGE_CURVE('',#316,#317,#250,.T.);
#384=EDGE_CURVE('',#317,#318,#251,.T.);
#385=EDGE_CURVE('',#318,#317,#252,.T.);
#386=EDGE_CURVE('',#318,#319,#44,.T.);
#387=EDGE_CURVE('',#320,#319,#253,.T.);
#388=EDGE_CURVE('',#319,#320,#254,.T.);
#389=EDGE_CURVE('',#321,#321,#255,.T.);
#390=EDGE_CURVE('',#322,#322,#256,.T.);
#391=EDGE_CURVE('',#322,#323,#257,.T.);
#392=EDGE_CURVE('',#323,#324,#258,.T.);
#393=EDGE_CURVE('',#324,#323,#259,.T.);
#394=EDGE_CURVE('',#324,#325,#45,.T.);
#395=EDGE_CURVE('',#326,#325,#260,.T.);
#396=EDGE_CURVE('',#325,#326,#261,.T.);
#397=EDGE_CURVE('',#327,#327,#262,.T.);
#398=EDGE_CURVE('',#328,#328,#263,.T.);
#399=EDGE_CURVE('',#328,#329,#264,.T.);
#400=EDGE_CURVE('',#329,#330,#265,.T.);
#401=EDGE_CURVE('',#330,#329,#266,.T.);
#402=EDGE_CURVE('',#330,#331,#46,.T.);
#403=EDGE_CURVE('',#332,#331,#267,.T.);
#404=EDGE_CURVE('',#331,#332,#268,.T.);
#405=EDGE_CURVE('',#333,#333,#269,.T.);
#406=EDGE_CURVE('',#334,#334,#270,.T.);
#407=EDGE_CURVE('',#334,#335,#271,.T.);
#408=EDGE_CURVE('',#335,#336,#272,.T.);
#409=EDGE_CURVE('',#336,#335,#273,.T.);
#410=EDGE_CURVE('',#336,#337,#47,.T.);
#411=EDGE_CURVE('',#338,#337,#274,.T.);
#412=EDGE_CURVE('',#337,#338,#275,.T.);
#413=EDGE_CURVE('',#339,#339,#276,.T.);
#414=EDGE_CURVE('',#340,#340,#277,.T.);
#415=EDGE_CURVE('',#340,#341,#278,.T.);
#416=EDGE_CURVE('',#341,#342,#279,.T.);
#417=EDGE_CURVE('',#342,#341,#280,.T.);
#418=EDGE_CURVE('',#342,#343,#48,.T.);
#419=EDGE_CURVE('',#344,#343,#281,.T.);
#420=EDGE_CURVE('',#343,#344,#282,.T.);
#421=EDGE_CURVE('',#345,#345,#283,.T.);
#422=EDGE_CURVE('',#344,#346,#284,.T.);
#423=EDGE_CURVE('',#346,#346,#285,.T.);
#424=EDGE_CURVE('',#347,#306,#49,.T.);
#425=EDGE_CURVE('',#347,#348,#50,.T.);
#426=EDGE_CURVE('',#308,#348,#51,.T.);
#427=EDGE_CURVE('',#349,#349,#286,.T.);
#428=EDGE_CURVE('',#350,#350,#287,.T.);
#429=EDGE_CURVE('',#338,#349,#288,.T.);
#430=EDGE_CURVE('',#332,#350,#289,.T.);
#431=EDGE_CURVE('',#314,#351,#290,.T.);
#432=EDGE_CURVE('',#351,#351,#291,.T.);
#433=EDGE_CURVE('',#352,#347,#52,.T.);
#434=EDGE_CURVE('',#352,#353,#53,.T.);
#435=EDGE_CURVE('',#348,#353,#54,.T.);
#436=EDGE_CURVE('',#354,#354,#292,.T.);
#437=EDGE_CURVE('',#355,#355,#293,.T.);
#438=EDGE_CURVE('',#320,#354,#294,.T.);
#439=EDGE_CURVE('',#326,#355,#295,.T.);
#440=EDGE_CURVE('',#333,#356,#55,.T.);
#441=EDGE_CURVE('',#356,#356,#296,.T.);
#442=EDGE_CURVE('',#339,#357,#56,.T.);
#443=EDGE_CURVE('',#357,#357,#297,.T.);
#444=EDGE_CURVE('',#345,#358,#57,.T.);
#445=EDGE_CURVE('',#358,#358,#298,.T.);
#446=EDGE_CURVE('',#327,#359,#58,.T.);
#447=EDGE_CURVE('',#359,#359,#299,.T.);
#448=EDGE_CURVE('',#321,#360,#59,.T.);
#449=EDGE_CURVE('',#360,#360,#300,.T.);
#450=EDGE_CURVE('',#315,#361,#60,.T.);
#451=EDGE_CURVE('',#361,#361,#301,.T.);
#452=EDGE_CURVE('',#307,#362,#61,.T.);
#453=EDGE_CURVE('',#363,#309,#62,.T.);
#454=EDGE_CURVE('',#362,#363,#63,.T.);
#455=EDGE_CURVE('',#362,#352,#64,.T.);
#456=EDGE_CURVE('',#353,#363,#65,.T.);
#457=ORIENTED_EDGE('',*,*,#364,.F.);
#458=ORIENTED_EDGE('',*,*,#365,.T.);
#459=ORIENTED_EDGE('',*,*,#366,.F.);
#460=ORIENTED_EDGE('',*,*,#365,.F.);
#461=ORIENTED_EDGE('',*,*,#367,.F.);
#462=ORIENTED_EDGE('',*,*,#368,.T.);
#463=ORIENTED_EDGE('',*,*,#369,.F.);
#464=ORIENTED_EDGE('',*,*,#368,.F.);
#465=ORIENTED_EDGE('',*,*,#367,.T.);
#466=ORIENTED_EDGE('',*,*,#364,.T.);
#467=ORIENTED_EDGE('',*,*,#370,.F.);
#468=ORIENTED_EDGE('',*,*,#371,.T.);
#469=ORIENTED_EDGE('',*,*,#372,.F.);
#470=ORIENTED_EDGE('',*,*,#373,.F.);
#471=ORIENTED_EDGE('',*,*,#369,.T.);
#472=ORIENTED_EDGE('',*,*,#374,.T.);
#473=ORIENTED_EDGE('',*,*,#375,.T.);
#474=ORIENTED_EDGE('',*,*,#376,.T.);
#475=ORIENTED_EDGE('',*,*,#377,.T.);
#476=ORIENTED_EDGE('',*,*,#375,.F.);
#477=ORIENTED_EDGE('',*,*,#377,.F.);
#478=ORIENTED_EDGE('',*,*,#378,.T.);
#479=ORIENTED_EDGE('',*,*,#379,.F.);
#480=ORIENTED_EDGE('',*,*,#380,.F.);
#481=ORIENTED_EDGE('',*,*,#378,.F.);
#482=ORIENTED_EDGE('',*,*,#376,.F.);
#483=ORIENTED_EDGE('',*,*,#374,.F.);
#484=ORIENTED_EDGE('',*,*,#381,.T.);
#485=ORIENTED_EDGE('',*,*,#382,.T.);
#486=ORIENTED_EDGE('',*,*,#383,.T.);
#487=ORIENTED_EDGE('',*,*,#384,.T.);
#488=ORIENTED_EDGE('',*,*,#385,.T.);
#489=ORIENTED_EDGE('',*,*,#383,.F.);
#490=ORIENTED_EDGE('',*,*,#385,.F.);
#491=ORIENTED_EDGE('',*,*,#386,.T.);
#492=ORIENTED_EDGE('',*,*,#387,.F.);
#493=ORIENTED_EDGE('',*,*,#388,.F.);
#494=ORIENTED_EDGE('',*,*,#386,.F.);
#495=ORIENTED_EDGE('',*,*,#384,.F.);
#496=ORIENTED_EDGE('',*,*,#382,.F.);
#497=ORIENTED_EDGE('',*,*,#389,.T.);
#498=ORIENTED_EDGE('',*,*,#390,.T.);
#499=ORIENTED_EDGE('',*,*,#391,.T.);
#500=ORIENTED_EDGE('',*,*,#392,.T.);
#501=ORIENTED_EDGE('',*,*,#393,.T.);
#502=ORIENTED_EDGE('',*,*,#391,.F.);
#503=ORIENTED_EDGE('',*,*,#393,.F.);
#504=ORIENTED_EDGE('',*,*,#394,.T.);
#505=ORIENTED_EDGE('',*,*,#395,.F.);
#506=ORIENTED_EDGE('',*,*,#396,.F.);
#507=ORIENTED_EDGE('',*,*,#394,.F.);
#508=ORIENTED_EDGE('',*,*,#392,.F.);
#509=ORIENTED_EDGE('',*,*,#390,.F.);
#510=ORIENTED_EDGE('',*,*,#397,.T.);
#511=ORIENTED_EDGE('',*,*,#398,.T.);
#512=ORIENTED_EDGE('',*,*,#399,.T.);
#513=ORIENTED_EDGE('',*,*,#400,.T.);
#514=ORIENTED_EDGE('',*,*,#401,.T.);
#515=ORIENTED_EDGE('',*,*,#399,.F.);
#516=ORIENTED_EDGE('',*,*,#401,.F.);
#517=ORIENTED_EDGE('',*,*,#402,.T.);
#518=ORIENTED_EDGE('',*,*,#403,.F.);
#519=ORIENTED_EDGE('',*,*,#404,.F.);
#520=ORIENTED_EDGE('',*,*,#402,.F.);
#521=ORIENTED_EDGE('',*,*,#400,.F.);
#522=ORIENTED_EDGE('',*,*,#398,.F.);
#523=ORIENTED_EDGE('',*,*,#405,.T.);
#524=ORIENTED_EDGE('',*,*,#406,.T.);
#525=ORIENTED_EDGE('',*,*,#407,.T.);
#526=ORIENTED_EDGE('',*,*,#408,.T.);
#527=ORIENTED_EDGE('',*,*,#409,.T.);
#528=ORIENTED_EDGE('',*,*,#407,.F.);
#529=ORIENTED_EDGE('',*,*,#409,.F.);
#530=ORIENTED_EDGE('',*,*,#410,.T.);
#531=ORIENTED_EDGE('',*,*,#411,.F.);
#532=ORIENTED_EDGE('',*,*,#412,.F.);
#533=ORIENTED_EDGE('',*,*,#410,.F.);
#534=ORIENTED_EDGE('',*,*,#408,.F.);
#535=ORIENTED_EDGE('',*,*,#406,.F.);
#536=ORIENTED_EDGE('',*,*,#413,.T.);
#537=ORIENTED_EDGE('',*,*,#414,.T.);
#538=ORIENTED_EDGE('',*,*,#415,.T.);
#539=ORIENTED_EDGE('',*,*,#416,.T.);
#540=ORIENTED_EDGE('',*,*,#417,.T.);
#541=ORIENTED_EDGE('',*,*,#415,.F.);
#542=ORIENTED_EDGE('',*,*,#417,.F.);
#543=ORIENTED_EDGE('',*,*,#418,.T.);
#544=ORIENTED_EDGE('',*,*,#419,.F.);
#545=ORIENTED_EDGE('',*,*,#420,.F.);
#546=ORIENTED_EDGE('',*,*,#418,.F.);
#547=ORIENTED_EDGE('',*,*,#416,.F.);
#548=ORIENTED_EDGE('',*,*,#414,.F.);
#549=ORIENTED_EDGE('',*,*,#421,.T.);
#550=ORIENTED_EDGE('',*,*,#420,.T.);
#551=ORIENTED_EDGE('',*,*,#422,.T.);
#552=ORIENTED_EDGE('',*,*,#423,.T.);
#553=ORIENTED_EDGE('',*,*,#422,.F.);
#554=ORIENTED_EDGE('',*,*,#419,.T.);
#555=ORIENTED_EDGE('',*,*,#424,.F.);
#556=ORIENTED_EDGE('',*,*,#425,.T.);
#557=ORIENTED_EDGE('',*,*,#426,.F.);
#558=ORIENTED_EDGE('',*,*,#371,.F.);
#559=ORIENTED_EDGE('',*,*,#427,.F.);
#560=ORIENTED_EDGE('',*,*,#428,.F.);
#561=ORIENTED_EDGE('',*,*,#423,.F.);
#562=ORIENTED_EDGE('',*,*,#412,.T.);
#563=ORIENTED_EDGE('',*,*,#429,.T.);
#564=ORIENTED_EDGE('',*,*,#427,.T.);
#565=ORIENTED_EDGE('',*,*,#429,.F.);
#566=ORIENTED_EDGE('',*,*,#411,.T.);
#567=ORIENTED_EDGE('',*,*,#404,.T.);
#568=ORIENTED_EDGE('',*,*,#430,.T.);
#569=ORIENTED_EDGE('',*,*,#428,.T.);
#570=ORIENTED_EDGE('',*,*,#430,.F.);
#571=ORIENTED_EDGE('',*,*,#403,.T.);
#572=ORIENTED_EDGE('',*,*,#380,.T.);
#573=ORIENTED_EDGE('',*,*,#431,.T.);
#574=ORIENTED_EDGE('',*,*,#432,.T.);
#575=ORIENTED_EDGE('',*,*,#431,.F.);
#576=ORIENTED_EDGE('',*,*,#379,.T.);
#577=ORIENTED_EDGE('',*,*,#433,.F.);
#578=ORIENTED_EDGE('',*,*,#434,.T.);
#579=ORIENTED_EDGE('',*,*,#435,.F.);
#580=ORIENTED_EDGE('',*,*,#425,.F.);
#581=ORIENTED_EDGE('',*,*,#436,.F.);
#582=ORIENTED_EDGE('',*,*,#437,.F.);
#583=ORIENTED_EDGE('',*,*,#432,.F.);
#584=ORIENTED_EDGE('',*,*,#388,.T.);
#585=ORIENTED_EDGE('',*,*,#438,.T.);
#586=ORIENTED_EDGE('',*,*,#436,.T.);
#587=ORIENTED_EDGE('',*,*,#438,.F.);
#588=ORIENTED_EDGE('',*,*,#387,.T.);
#589=ORIENTED_EDGE('',*,*,#396,.T.);
#590=ORIENTED_EDGE('',*,*,#439,.T.);
#591=ORIENTED_EDGE('',*,*,#437,.T.);
#592=ORIENTED_EDGE('',*,*,#439,.F.);
#593=ORIENTED_EDGE('',*,*,#395,.T.);
#594=ORIENTED_EDGE('',*,*,#405,.F.);
#595=ORIENTED_EDGE('',*,*,#440,.T.);
#596=ORIENTED_EDGE('',*,*,#441,.T.);
#597=ORIENTED_EDGE('',*,*,#440,.F.);
#598=ORIENTED_EDGE('',*,*,#441,.F.);
#599=ORIENTED_EDGE('',*,*,#413,.F.);
#600=ORIENTED_EDGE('',*,*,#442,.T.);
#601=ORIENTED_EDGE('',*,*,#443,.T.);
#602=ORIENTED_EDGE('',*,*,#442,.F.);
#603=ORIENTED_EDGE('',*,*,#443,.F.);
#604=ORIENTED_EDGE('',*,*,#421,.F.);
#605=ORIENTED_EDGE('',*,*,#444,.T.);
#606=ORIENTED_EDGE('',*,*,#445,.T.);
#607=ORIENTED_EDGE('',*,*,#444,.F.);
#608=ORIENTED_EDGE('',*,*,#445,.F.);
#609=ORIENTED_EDGE('',*,*,#397,.F.);
#610=ORIENTED_EDGE('',*,*,#446,.T.);
#611=ORIENTED_EDGE('',*,*,#447,.T.);
#612=ORIENTED_EDGE('',*,*,#446,.F.);
#613=ORIENTED_EDGE('',*,*,#447,.F.);
#614=ORIENTED_EDGE('',*,*,#389,.F.);
#615=ORIENTED_EDGE('',*,*,#448,.T.);
#616=ORIENTED_EDGE('',*,*,#449,.T.);
#617=ORIENTED_EDGE('',*,*,#448,.F.);
#618=ORIENTED_EDGE('',*,*,#449,.F.);
#619=ORIENTED_EDGE('',*,*,#381,.F.);
#620=ORIENTED_EDGE('',*,*,#450,.T.);
#621=ORIENTED_EDGE('',*,*,#451,.T.);
#622=ORIENTED_EDGE('',*,*,#450,.F.);
#623=ORIENTED_EDGE('',*,*,#451,.F.);
#624=ORIENTED_EDGE('',*,*,#366,.T.);
#625=ORIENTED_EDGE('',*,*,#452,.F.);
#626=ORIENTED_EDGE('',*,*,#373,.T.);
#627=ORIENTED_EDGE('',*,*,#453,.F.);
#628=ORIENTED_EDGE('',*,*,#454,.F.);
#629=ORIENTED_EDGE('',*,*,#455,.F.);
#630=ORIENTED_EDGE('',*,*,#454,.T.);
#631=ORIENTED_EDGE('',*,*,#456,.F.);
#632=ORIENTED_EDGE('',*,*,#434,.F.);
#633=ORIENTED_EDGE('',*,*,#426,.T.);
#634=ORIENTED_EDGE('',*,*,#435,.T.);
#635=ORIENTED_EDGE('',*,*,#456,.T.);
#636=ORIENTED_EDGE('',*,*,#453,.T.);
#637=ORIENTED_EDGE('',*,*,#372,.T.);
#638=ORIENTED_EDGE('',*,*,#424,.T.);
#639=ORIENTED_EDGE('',*,*,#370,.T.);
#640=ORIENTED_EDGE('',*,*,#452,.T.);
#641=ORIENTED_EDGE('',*,*,#455,.T.);
#642=ORIENTED_EDGE('',*,*,#433,.T.);
#643=(
BOUNDED_SURFACE()
B_SPLINE_SURFACE(1,2,((#1063,#1064,#1065,#1066,#1067,#1068,#1069,#1070,
#1071),(#1072,#1073,#1074,#1075,#1076,#1077,#1078,#1079,#1080)),
 .UNSPECIFIED.,.F.,.T.,.F.)
B_SPLINE_SURFACE_WITH_KNOTS((2,2),(3,2,2,2,3),(-0.830315392574351,8.50788817594913),
(-3.14159265358979,-1.5707963267949,0.,1.5707963267949,3.14159265358979),
 .UNSPECIFIED.)
GEOMETRIC_REPRESENTATION_ITEM()
RATIONAL_B_SPLINE_SURFACE(((1.,0.707106781186548,1.,0.707106781186548,1.,
0.707106781186548,1.,0.707106781186548,1.),(1.,0.707106781186548,1.,0.707106781186548,
1.,0.707106781186548,1.,0.707106781186548,1.)))
REPRESENTATION_ITEM('')
SURFACE()
);
#644=(
BOUNDED_SURFACE()
B_SPLINE_SURFACE(1,2,((#1087,#1088,#1089,#1090,#1091,#1092,#1093,#1094,
#1095),(#1096,#1097,#1098,#1099,#1100,#1101,#1102,#1103,#1104)),
 .UNSPECIFIED.,.F.,.T.,.F.)
B_SPLINE_SURFACE_WITH_KNOTS((2,2),(3,2,2,2,3),(-0.83213126513202,6.20643221348648),
(-3.14159265358979,-1.5707963267949,0.,1.5707963267949,3.14159265358979),
 .UNSPECIFIED.)
GEOMETRIC_REPRESENTATION_ITEM()
RATIONAL_B_SPLINE_SURFACE(((1.,0.707106781186548,1.,0.707106781186548,1.,
0.707106781186548,1.,0.707106781186548,1.),(1.,0.707106781186548,1.,0.707106781186548,
1.,0.707106781186548,1.,0.707106781186548,1.)))
REPRESENTATION_ITEM('')
SURFACE()
);
#645=ADVANCED_FACE('',(#128),#643,.T.);
#646=ADVANCED_FACE('',(#129),#644,.F.);
#647=ADVANCED_FACE('',(#130,#93),#107,.T.);
#648=ADVANCED_FACE('',(#131,#94),#108,.T.);
#649=ADVANCED_FACE('',(#132),#27,.T.);
#650=ADVANCED_FACE('',(#133),#15,.T.);
#651=ADVANCED_FACE('',(#134,#95),#109,.T.);
#652=ADVANCED_FACE('',(#135),#28,.T.);
#653=ADVANCED_FACE('',(#136),#16,.T.);
#654=ADVANCED_FACE('',(#137,#96),#110,.T.);
#655=ADVANCED_FACE('',(#138),#29,.T.);
#656=ADVANCED_FACE('',(#139),#17,.T.);
#657=ADVANCED_FACE('',(#140,#97),#111,.T.);
#658=ADVANCED_FACE('',(#141),#30,.T.);
#659=ADVANCED_FACE('',(#142),#18,.T.);
#660=ADVANCED_FACE('',(#143,#98),#112,.T.);
#661=ADVANCED_FACE('',(#144),#31,.T.);
#662=ADVANCED_FACE('',(#145),#19,.T.);
#663=ADVANCED_FACE('',(#146,#99),#113,.T.);
#664=ADVANCED_FACE('',(#147),#32,.T.);
#665=ADVANCED_FACE('',(#148),#20,.T.);
#666=ADVANCED_FACE('',(#149,#100),#114,.T.);
#667=ADVANCED_FACE('',(#150),#33,.F.);
#668=ADVANCED_FACE('',(#151,#101,#102,#103),#115,.T.);
#669=ADVANCED_FACE('',(#152),#34,.F.);
#670=ADVANCED_FACE('',(#153),#35,.F.);
#671=ADVANCED_FACE('',(#154),#36,.F.);
#672=ADVANCED_FACE('',(#155,#104,#105,#106),#116,.T.);
#673=ADVANCED_FACE('',(#156),#37,.F.);
#674=ADVANCED_FACE('',(#157),#38,.F.);
#675=ADVANCED_FACE('',(#158),#21,.F.);
#676=ADVANCED_FACE('',(#159),#117,.T.);
#677=ADVANCED_FACE('',(#160),#22,.F.);
#678=ADVANCED_FACE('',(#161),#118,.T.);
#679=ADVANCED_FACE('',(#162),#23,.F.);
#680=ADVANCED_FACE('',(#163),#119,.T.);
#681=ADVANCED_FACE('',(#164),#24,.F.);
#682=ADVANCED_FACE('',(#165),#120,.T.);
#683=ADVANCED_FACE('',(#166),#25,.F.);
#684=ADVANCED_FACE('',(#167),#121,.T.);
#685=ADVANCED_FACE('',(#168),#26,.F.);
#686=ADVANCED_FACE('',(#169),#122,.T.);
#687=ADVANCED_FACE('',(#170),#123,.T.);
#688=ADVANCED_FACE('',(#171),#124,.T.);
#689=ADVANCED_FACE('',(#172),#125,.T.);
#690=ADVANCED_FACE('',(#173),#126,.T.);
#691=ADVANCED_FACE('',(#174),#127,.F.);
#692=CLOSED_SHELL('',(#645,#646,#647,#648,#649,#650,#651,#652,#653,#654,
#655,#656,#657,#658,#659,#660,#661,#662,#663,#664,#665,#666,#667,#668,#669,
#670,#671,#672,#673,#674,#675,#676,#677,#678,#679,#680,#681,#682,#683,#684,
#685,#686,#687,#688,#689,#690,#691));
#693=DERIVED_UNIT_ELEMENT(#695,1.);
#694=DERIVED_UNIT_ELEMENT(#1306,-3.);
#695=(
MASS_UNIT()
NAMED_UNIT(*)
SI_UNIT(.KILO.,.GRAM.)
);
#696=DERIVED_UNIT((#693,#694));
#697=MEASURE_REPRESENTATION_ITEM('density measure',
POSITIVE_RATIO_MEASURE(7850.),#696);
#698=PROPERTY_DEFINITION_REPRESENTATION(#703,#700);
#699=PROPERTY_DEFINITION_REPRESENTATION(#704,#701);
#700=REPRESENTATION('material name',(#702),#1303);
#701=REPRESENTATION('density',(#697),#1303);
#702=DESCRIPTIVE_REPRESENTATION_ITEM('Stahl','Stahl');
#703=PROPERTY_DEFINITION('material property','material name',#1313);
#704=PROPERTY_DEFINITION('material property','density of part',#1313);
#705=AXIS2_PLACEMENT_3D('',#1062,#815,#816);
#706=AXIS2_PLACEMENT_3D('',#1082,#817,#818);
#707=AXIS2_PLACEMENT_3D('',#1086,#819,#820);
#708=AXIS2_PLACEMENT_3D('',#1106,#821,#822);
#709=AXIS2_PLACEMENT_3D('',#1110,#823,#824);
#710=AXIS2_PLACEMENT_3D('',#1111,#825,#826);
#711=AXIS2_PLACEMENT_3D('',#1112,#827,#828);
#712=AXIS2_PLACEMENT_3D('',#1121,#833,#834);
#713=AXIS2_PLACEMENT_3D('',#1123,#835,#836);
#714=AXIS2_PLACEMENT_3D('',#1125,#837,#838);
#715=AXIS2_PLACEMENT_3D('',#1127,#839,#840);
#716=AXIS2_PLACEMENT_3D('',#1128,#841,#842);
#717=AXIS2_PLACEMENT_3D('',#1129,#843,#844);
#718=AXIS2_PLACEMENT_3D('',#1133,#846,#847);
#719=AXIS2_PLACEMENT_3D('',#1134,#848,#849);
#720=AXIS2_PLACEMENT_3D('',#1135,#850,#851);
#721=AXIS2_PLACEMENT_3D('',#1137,#852,#853);
#722=AXIS2_PLACEMENT_3D('',#1138,#854,#855);
#723=AXIS2_PLACEMENT_3D('',#1140,#856,#857);
#724=AXIS2_PLACEMENT_3D('',#1142,#858,#859);
#725=AXIS2_PLACEMENT_3D('',#1144,#860,#861);
#726=AXIS2_PLACEMENT_3D('',#1145,#862,#863);
#727=AXIS2_PLACEMENT_3D('',#1146,#864,#865);
#728=AXIS2_PLACEMENT_3D('',#1150,#867,#868);
#729=AXIS2_PLACEMENT_3D('',#1151,#869,#870);
#730=AXIS2_PLACEMENT_3D('',#1152,#871,#872);
#731=AXIS2_PLACEMENT_3D('',#1154,#873,#874);
#732=AXIS2_PLACEMENT_3D('',#1155,#875,#876);
#733=AXIS2_PLACEMENT_3D('',#1157,#877,#878);
#734=AXIS2_PLACEMENT_3D('',#1159,#879,#880);
#735=AXIS2_PLACEMENT_3D('',#1161,#881,#882);
#736=AXIS2_PLACEMENT_3D('',#1162,#883,#884);
#737=AXIS2_PLACEMENT_3D('',#1163,#885,#886);
#738=AXIS2_PLACEMENT_3D('',#1167,#888,#889);
#739=AXIS2_PLACEMENT_3D('',#1168,#890,#891);
#740=AXIS2_PLACEMENT_3D('',#1169,#892,#893);
#741=AXIS2_PLACEMENT_3D('',#1171,#894,#895);
#742=AXIS2_PLACEMENT_3D('',#1172,#896,#897);
#743=AXIS2_PLACEMENT_3D('',#1174,#898,#899);
#744=AXIS2_PLACEMENT_3D('',#1176,#900,#901);
#745=AXIS2_PLACEMENT_3D('',#1178,#902,#903);
#746=AXIS2_PLACEMENT_3D('',#1179,#904,#905);
#747=AXIS2_PLACEMENT_3D('',#1180,#906,#907);
#748=AXIS2_PLACEMENT_3D('',#1184,#909,#910);
#749=AXIS2_PLACEMENT_3D('',#1185,#911,#912);
#750=AXIS2_PLACEMENT_3D('',#1186,#913,#914);
#751=AXIS2_PLACEMENT_3D('',#1188,#915,#916);
#752=AXIS2_PLACEMENT_3D('',#1189,#917,#918);
#753=AXIS2_PLACEMENT_3D('',#1191,#919,#920);
#754=AXIS2_PLACEMENT_3D('',#1193,#921,#922);
#755=AXIS2_PLACEMENT_3D('',#1195,#923,#924);
#756=AXIS2_PLACEMENT_3D('',#1196,#925,#926);
#757=AXIS2_PLACEMENT_3D('',#1197,#927,#928);
#758=AXIS2_PLACEMENT_3D('',#1201,#930,#931);
#759=AXIS2_PLACEMENT_3D('',#1202,#932,#933);
#760=AXIS2_PLACEMENT_3D('',#1203,#934,#935);
#761=AXIS2_PLACEMENT_3D('',#1205,#936,#937);
#762=AXIS2_PLACEMENT_3D('',#1206,#938,#939);
#763=AXIS2_PLACEMENT_3D('',#1208,#940,#941);
#764=AXIS2_PLACEMENT_3D('',#1210,#942,#943);
#765=AXIS2_PLACEMENT_3D('',#1212,#944,#945);
#766=AXIS2_PLACEMENT_3D('',#1213,#946,#947);
#767=AXIS2_PLACEMENT_3D('',#1214,#948,#949);
#768=AXIS2_PLACEMENT_3D('',#1218,#951,#952);
#769=AXIS2_PLACEMENT_3D('',#1219,#953,#954);
#770=AXIS2_PLACEMENT_3D('',#1220,#955,#956);
#771=AXIS2_PLACEMENT_3D('',#1222,#957,#958);
#772=AXIS2_PLACEMENT_3D('',#1223,#959,#960);
#773=AXIS2_PLACEMENT_3D('',#1225,#961,#962);
#774=AXIS2_PLACEMENT_3D('',#1226,#963,#964);
#775=AXIS2_PLACEMENT_3D('',#1227,#965,#966);
#776=AXIS2_PLACEMENT_3D('',#1234,#970,#971);
#777=AXIS2_PLACEMENT_3D('',#1236,#972,#973);
#778=AXIS2_PLACEMENT_3D('',#1237,#974,#975);
#779=AXIS2_PLACEMENT_3D('',#1238,#976,#977);
#780=AXIS2_PLACEMENT_3D('',#1239,#978,#979);
#781=AXIS2_PLACEMENT_3D('',#1240,#980,#981);
#782=AXIS2_PLACEMENT_3D('',#1241,#982,#983);
#783=AXIS2_PLACEMENT_3D('',#1243,#984,#985);
#784=AXIS2_PLACEMENT_3D('',#1244,#986,#987);
#785=AXIS2_PLACEMENT_3D('',#1245,#988,#989);
#786=AXIS2_PLACEMENT_3D('',#1252,#993,#994);
#787=AXIS2_PLACEMENT_3D('',#1254,#995,#996);
#788=AXIS2_PLACEMENT_3D('',#1255,#997,#998);
#789=AXIS2_PLACEMENT_3D('',#1256,#999,#1000);
#790=AXIS2_PLACEMENT_3D('',#1257,#1001,#1002);
#791=AXIS2_PLACEMENT_3D('',#1258,#1003,#1004);
#792=AXIS2_PLACEMENT_3D('',#1259,#1005,#1006);
#793=AXIS2_PLACEMENT_3D('',#1262,#1008,#1009);
#794=AXIS2_PLACEMENT_3D('',#1263,#1010,#1011);
#795=AXIS2_PLACEMENT_3D('',#1264,#1012,#1013);
#796=AXIS2_PLACEMENT_3D('',#1267,#1015,#1016);
#797=AXIS2_PLACEMENT_3D('',#1268,#1017,#1018);
#798=AXIS2_PLACEMENT_3D('',#1269,#1019,#1020);
#799=AXIS2_PLACEMENT_3D('',#1272,#1022,#1023);
#800=AXIS2_PLACEMENT_3D('',#1273,#1024,#1025);
#801=AXIS2_PLACEMENT_3D('',#1274,#1026,#1027);
#802=AXIS2_PLACEMENT_3D('',#1277,#1029,#1030);
#803=AXIS2_PLACEMENT_3D('',#1278,#1031,#1032);
#804=AXIS2_PLACEMENT_3D('',#1279,#1033,#1034);
#805=AXIS2_PLACEMENT_3D('',#1282,#1036,#1037);
#806=AXIS2_PLACEMENT_3D('',#1283,#1038,#1039);
#807=AXIS2_PLACEMENT_3D('',#1284,#1040,#1041);
#808=AXIS2_PLACEMENT_3D('',#1287,#1043,#1044);
#809=AXIS2_PLACEMENT_3D('',#1288,#1045,#1046);
#810=AXIS2_PLACEMENT_3D('',#1289,#1047,#1048);
#811=AXIS2_PLACEMENT_3D('',#1290,#1049,#1050);
#812=AXIS2_PLACEMENT_3D('',#1296,#1054,#1055);
#813=AXIS2_PLACEMENT_3D('',#1299,#1058,#1059);
#814=AXIS2_PLACEMENT_3D('',#1300,#1060,#1061);
#815=DIRECTION('axis',(0.,0.,1.));
#816=DIRECTION('refdir',(1.,0.,0.));
#817=DIRECTION('center_axis',(0.989359135364853,0.,0.145493990494831));
#818=DIRECTION('ref_axis',(0.,-1.,0.));
#819=DIRECTION('center_axis',(-0.989359135364853,0.,-0.145493990494831));
#820=DIRECTION('ref_axis',(0.,-1.,0.));
#821=DIRECTION('center_axis',(-0.989359135364853,0.,-0.145493990494831));
#822=DIRECTION('ref_axis',(0.,-1.,0.));
#823=DIRECTION('center_axis',(0.989359135364853,0.,0.145493990494831));
#824=DIRECTION('ref_axis',(-0.145493990494831,0.,0.989359135364853));
#825=DIRECTION('center_axis',(-0.989359135364853,0.,-0.145493990494831));
#826=DIRECTION('ref_axis',(0.,-1.,0.));
#827=DIRECTION('center_axis',(-0.989359135364853,0.,-0.145493990494831));
#828=DIRECTION('ref_axis',(-0.145493990494831,0.,0.989359135364853));
#829=DIRECTION('',(0.145493990494831,0.,-0.989359135364853));
#830=DIRECTION('',(0.,1.,0.));
#831=DIRECTION('',(-0.145493990494831,0.,0.989359135364853));
#832=DIRECTION('',(0.,1.,0.));
#833=DIRECTION('center_axis',(0.287347885566345,0.,0.957826285221152));
#834=DIRECTION('ref_axis',(0.957826285221151,0.,-0.287347885566345));
#835=DIRECTION('center_axis',(-0.287347885566345,0.,-0.957826285221152));
#836=DIRECTION('ref_axis',(-3.35050405789823E-17,1.,1.00515121736947E-17));
#837=DIRECTION('center_axis',(2.23873851672359E-16,-1.,-6.71621555017076E-17));
#838=DIRECTION('ref_axis',(-0.957826285221151,-2.3373116307898E-16,0.287347885566346));
#839=DIRECTION('center_axis',(0.287347885566345,0.,0.957826285221152));
#840=DIRECTION('ref_axis',(-3.65204942310907E-17,1.,0.));
#841=DIRECTION('center_axis',(0.287347885566345,0.,0.957826285221152));
#842=DIRECTION('ref_axis',(-3.65204942310907E-17,1.,0.));
#843=DIRECTION('center_axis',(0.287347885566345,0.,0.957826285221152));
#844=DIRECTION('ref_axis',(0.,1.,0.));
#845=DIRECTION('',(-0.287347885566345,0.,-0.957826285221152));
#846=DIRECTION('center_axis',(-0.287347885566345,0.,-0.957826285221151));
#847=DIRECTION('ref_axis',(-1.71646322886126E-16,1.,5.11286919235269E-17));
#848=DIRECTION('center_axis',(-0.287347885566345,0.,-0.957826285221151));
#849=DIRECTION('ref_axis',(-1.71646322886126E-16,1.,5.11286919235269E-17));
#850=DIRECTION('center_axis',(0.287347885566345,0.,0.957826285221152));
#851=DIRECTION('ref_axis',(0.,1.,0.));
#852=DIRECTION('center_axis',(-0.287347885566345,0.,-0.957826285221151));
#853=DIRECTION('ref_axis',(0.,1.,0.));
#854=DIRECTION('center_axis',(0.287347885566345,0.,0.957826285221152));
#855=DIRECTION('ref_axis',(0.957826285221151,0.,-0.287347885566346));
#856=DIRECTION('center_axis',(-0.287347885566345,0.,-0.957826285221152));
#857=DIRECTION('ref_axis',(-3.35050405789823E-17,1.,1.00515121736947E-17));
#858=DIRECTION('center_axis',(0.,-1.,0.));
#859=DIRECTION('ref_axis',(-0.957826285221151,0.,0.287347885566346));
#860=DIRECTION('center_axis',(0.287347885566345,0.,0.957826285221152));
#861=DIRECTION('ref_axis',(-3.65204942310907E-17,1.,0.));
#862=DIRECTION('center_axis',(0.287347885566345,0.,0.957826285221152));
#863=DIRECTION('ref_axis',(-3.65204942310907E-17,1.,0.));
#864=DIRECTION('center_axis',(0.287347885566345,0.,0.957826285221152));
#865=DIRECTION('ref_axis',(0.,1.,0.));
#866=DIRECTION('',(-0.287347885566345,0.,-0.957826285221152));
#867=DIRECTION('center_axis',(-0.287347885566345,0.,-0.957826285221151));
#868=DIRECTION('ref_axis',(4.38245930773088E-17,1.,-1.46081976924363E-17));
#869=DIRECTION('center_axis',(-0.287347885566345,0.,-0.957826285221151));
#870=DIRECTION('ref_axis',(4.38245930773088E-17,1.,-1.46081976924363E-17));
#871=DIRECTION('center_axis',(0.287347885566345,0.,0.957826285221152));
#872=DIRECTION('ref_axis',(0.,1.,0.));
#873=DIRECTION('center_axis',(-0.287347885566345,0.,-0.957826285221151));
#874=DIRECTION('ref_axis',(0.,1.,0.));
#875=DIRECTION('center_axis',(0.287347885566345,0.,0.957826285221152));
#876=DIRECTION('ref_axis',(0.957826285221151,0.,-0.287347885566346));
#877=DIRECTION('center_axis',(-0.287347885566345,0.,-0.957826285221152));
#878=DIRECTION('ref_axis',(-3.35050405789823E-17,1.,1.00515121736947E-17));
#879=DIRECTION('center_axis',(0.,-1.,0.));
#880=DIRECTION('ref_axis',(-0.957826285221151,0.,0.287347885566346));
#881=DIRECTION('center_axis',(0.287347885566345,0.,0.957826285221152));
#882=DIRECTION('ref_axis',(-3.65204942310907E-17,1.,0.));
#883=DIRECTION('center_axis',(0.287347885566345,0.,0.957826285221152));
#884=DIRECTION('ref_axis',(-3.65204942310907E-17,1.,0.));
#885=DIRECTION('center_axis',(0.287347885566345,0.,0.957826285221152));
#886=DIRECTION('ref_axis',(0.,1.,0.));
#887=DIRECTION('',(-0.287347885566345,0.,-0.957826285221152));
#888=DIRECTION('center_axis',(-0.287347885566345,0.,-0.957826285221151));
#889=DIRECTION('ref_axis',(4.38245930773088E-17,1.,-1.46081976924363E-17));
#890=DIRECTION('center_axis',(-0.287347885566345,0.,-0.957826285221151));
#891=DIRECTION('ref_axis',(4.38245930773088E-17,1.,-1.46081976924363E-17));
#892=DIRECTION('center_axis',(0.287347885566345,0.,0.957826285221152));
#893=DIRECTION('ref_axis',(0.,1.,0.));
#894=DIRECTION('center_axis',(-0.287347885566345,0.,-0.957826285221151));
#895=DIRECTION('ref_axis',(0.,1.,0.));
#896=DIRECTION('center_axis',(-0.287347885566345,0.,0.957826285221152));
#897=DIRECTION('ref_axis',(0.957826285221151,0.,0.287347885566345));
#898=DIRECTION('center_axis',(0.287347885566345,0.,-0.957826285221152));
#899=DIRECTION('ref_axis',(3.35050405789823E-17,-1.,1.00515121736947E-17));
#900=DIRECTION('center_axis',(0.,-1.,0.));
#901=DIRECTION('ref_axis',(-0.957826285221152,0.,-0.287347885566345));
#902=DIRECTION('center_axis',(-0.287347885566345,0.,0.957826285221152));
#903=DIRECTION('ref_axis',(3.65204942310907E-17,-1.,0.));
#904=DIRECTION('center_axis',(-0.287347885566345,0.,0.957826285221152));
#905=DIRECTION('ref_axis',(3.65204942310907E-17,-1.,0.));
#906=DIRECTION('center_axis',(-0.287347885566345,0.,0.957826285221152));
#907=DIRECTION('ref_axis',(0.,-1.,0.));
#908=DIRECTION('',(0.287347885566345,0.,-0.957826285221152));
#909=DIRECTION('center_axis',(0.287347885566345,0.,-0.957826285221151));
#910=DIRECTION('ref_axis',(-4.38245930773088E-17,-1.,-1.46081976924363E-17));
#911=DIRECTION('center_axis',(0.287347885566345,0.,-0.957826285221151));
#912=DIRECTION('ref_axis',(-4.38245930773088E-17,-1.,-1.46081976924363E-17));
#913=DIRECTION('center_axis',(-0.287347885566345,0.,0.957826285221152));
#914=DIRECTION('ref_axis',(0.,-1.,0.));
#915=DIRECTION('center_axis',(0.287347885566345,0.,-0.957826285221151));
#916=DIRECTION('ref_axis',(0.,-1.,0.));
#917=DIRECTION('center_axis',(-0.287347885566345,0.,0.957826285221152));
#918=DIRECTION('ref_axis',(0.957826285221151,0.,0.287347885566345));
#919=DIRECTION('center_axis',(0.287347885566345,0.,-0.957826285221152));
#920=DIRECTION('ref_axis',(3.35050405789823E-17,-1.,1.00515121736947E-17));
#921=DIRECTION('center_axis',(0.,-1.,0.));
#922=DIRECTION('ref_axis',(-0.957826285221152,0.,-0.287347885566345));
#923=DIRECTION('center_axis',(-0.287347885566345,0.,0.957826285221152));
#924=DIRECTION('ref_axis',(3.65204942310907E-17,-1.,0.));
#925=DIRECTION('center_axis',(-0.287347885566345,0.,0.957826285221152));
#926=DIRECTION('ref_axis',(3.65204942310907E-17,-1.,0.));
#927=DIRECTION('center_axis',(-0.287347885566345,0.,0.957826285221152));
#928=DIRECTION('ref_axis',(0.,-1.,0.));
#929=DIRECTION('',(0.287347885566345,0.,-0.957826285221152));
#930=DIRECTION('center_axis',(0.287347885566345,0.,-0.957826285221151));
#931=DIRECTION('ref_axis',(-4.38245930773088E-17,-1.,-1.46081976924363E-17));
#932=DIRECTION('center_axis',(0.287347885566345,0.,-0.957826285221151));
#933=DIRECTION('ref_axis',(-4.38245930773088E-17,-1.,-1.46081976924363E-17));
#934=DIRECTION('center_axis',(-0.287347885566345,0.,0.957826285221152));
#935=DIRECTION('ref_axis',(0.,-1.,0.));
#936=DIRECTION('center_axis',(0.287347885566345,0.,-0.957826285221151));
#937=DIRECTION('ref_axis',(0.,-1.,0.));
#938=DIRECTION('center_axis',(-0.287347885566345,0.,0.957826285221152));
#939=DIRECTION('ref_axis',(0.957826285221151,0.,0.287347885566345));
#940=DIRECTION('center_axis',(0.287347885566345,0.,-0.957826285221152));
#941=DIRECTION('ref_axis',(3.35050405789823E-17,-1.,1.00515121736947E-17));
#942=DIRECTION('center_axis',(2.23873851672359E-16,-1.,6.71621555017076E-17));
#943=DIRECTION('ref_axis',(-0.957826285221152,-2.3373116307898E-16,-0.287347885566345));
#944=DIRECTION('center_axis',(-0.287347885566345,0.,0.957826285221152));
#945=DIRECTION('ref_axis',(3.65204942310907E-17,-1.,0.));
#946=DIRECTION('center_axis',(-0.287347885566345,0.,0.957826285221152));
#947=DIRECTION('ref_axis',(3.65204942310907E-17,-1.,0.));
#948=DIRECTION('center_axis',(-0.287347885566345,0.,0.957826285221152));
#949=DIRECTION('ref_axis',(0.,-1.,0.));
#950=DIRECTION('',(0.287347885566345,0.,-0.957826285221152));
#951=DIRECTION('center_axis',(0.287347885566345,0.,-0.957826285221151));
#952=DIRECTION('ref_axis',(-4.38245930773088E-17,-1.,-1.46081976924363E-17));
#953=DIRECTION('center_axis',(0.287347885566345,0.,-0.957826285221151));
#954=DIRECTION('ref_axis',(-4.38245930773088E-17,-1.,-1.46081976924363E-17));
#955=DIRECTION('center_axis',(-0.287347885566345,0.,0.957826285221152));
#956=DIRECTION('ref_axis',(0.,-1.,0.));
#957=DIRECTION('center_axis',(0.287347885566345,0.,-0.957826285221151));
#958=DIRECTION('ref_axis',(0.,-1.,0.));
#959=DIRECTION('center_axis',(0.287347885566345,0.,-0.957826285221151));
#960=DIRECTION('ref_axis',(-0.957826285221151,0.,-0.287347885566346));
#961=DIRECTION('center_axis',(-2.02552532465468E-16,-1.,-6.07657597396403E-17));
#962=DIRECTION('ref_axis',(0.957826285221151,-2.11471052309554E-16,0.287347885566345));
#963=DIRECTION('center_axis',(-0.287347885566345,0.,0.957826285221151));
#964=DIRECTION('ref_axis',(-4.42266535642566E-17,-1.,-1.3267996069277E-17));
#965=DIRECTION('center_axis',(-0.287347885566345,0.,0.957826285221151));
#966=DIRECTION('ref_axis',(0.957826285221151,0.,0.287347885566345));
#967=DIRECTION('',(-0.957826285221151,0.,-0.287347885566345));
#968=DIRECTION('',(0.,1.,0.));
#969=DIRECTION('',(0.957826285221151,0.,0.287347885566345));
#970=DIRECTION('center_axis',(-0.287347885566345,0.,0.957826285221151));
#971=DIRECTION('ref_axis',(-4.42266535642566E-17,-1.,-1.3267996069277E-17));
#972=DIRECTION('center_axis',(-0.287347885566345,0.,0.957826285221151));
#973=DIRECTION('ref_axis',(-4.42266535642566E-17,-1.,-1.3267996069277E-17));
#974=DIRECTION('center_axis',(0.287347885566345,0.,-0.957826285221151));
#975=DIRECTION('ref_axis',(-0.957826285221151,0.,-0.287347885566346));
#976=DIRECTION('center_axis',(0.,-1.,0.));
#977=DIRECTION('ref_axis',(0.957826285221151,0.,0.287347885566345));
#978=DIRECTION('center_axis',(0.287347885566345,0.,-0.957826285221151));
#979=DIRECTION('ref_axis',(-0.957826285221151,0.,-0.287347885566346));
#980=DIRECTION('center_axis',(0.,-1.,0.));
#981=DIRECTION('ref_axis',(0.957826285221151,0.,0.287347885566345));
#982=DIRECTION('center_axis',(-0.287347885566345,0.,-0.957826285221151));
#983=DIRECTION('ref_axis',(-0.957826285221151,0.,0.287347885566346));
#984=DIRECTION('center_axis',(-2.02552532465468E-16,-1.,6.07657597396403E-17));
#985=DIRECTION('ref_axis',(0.957826285221151,-2.11471052309554E-16,-0.287347885566345));
#986=DIRECTION('center_axis',(0.287347885566345,0.,0.957826285221151));
#987=DIRECTION('ref_axis',(-1.71545807764389E-16,1.,5.14637423293168E-17));
#988=DIRECTION('center_axis',(0.287347885566345,0.,0.957826285221151));
#989=DIRECTION('ref_axis',(0.957826285221151,0.,-0.287347885566345));
#990=DIRECTION('',(-0.957826285221151,0.,0.287347885566345));
#991=DIRECTION('',(0.,1.,0.));
#992=DIRECTION('',(0.957826285221151,0.,-0.287347885566345));
#993=DIRECTION('center_axis',(0.287347885566345,0.,0.957826285221151));
#994=DIRECTION('ref_axis',(4.42266535642566E-17,1.,-1.3267996069277E-17));
#995=DIRECTION('center_axis',(0.287347885566345,0.,0.957826285221151));
#996=DIRECTION('ref_axis',(4.42266535642566E-17,1.,-1.3267996069277E-17));
#997=DIRECTION('center_axis',(-0.287347885566345,0.,-0.957826285221151));
#998=DIRECTION('ref_axis',(-0.957826285221151,0.,0.287347885566346));
#999=DIRECTION('center_axis',(0.,-1.,0.));
#1000=DIRECTION('ref_axis',(0.957826285221151,0.,-0.287347885566345));
#1001=DIRECTION('center_axis',(-0.287347885566345,0.,-0.957826285221151));
#1002=DIRECTION('ref_axis',(-0.957826285221151,0.,0.287347885566346));
#1003=DIRECTION('center_axis',(0.,-1.,0.));
#1004=DIRECTION('ref_axis',(0.957826285221151,0.,-0.287347885566345));
#1005=DIRECTION('center_axis',(0.287347885566345,0.,-0.957826285221151));
#1006=DIRECTION('ref_axis',(0.,-1.,0.));
#1007=DIRECTION('',(0.287347885566345,0.,-0.957826285221151));
#1008=DIRECTION('center_axis',(0.287347885566345,0.,-0.957826285221152));
#1009=DIRECTION('ref_axis',(0.,-1.,0.));
#1010=DIRECTION('center_axis',(-0.287347885566345,0.,0.957826285221152));
#1011=DIRECTION('ref_axis',(0.,-1.,0.));
#1012=DIRECTION('center_axis',(0.287347885566345,0.,-0.957826285221151));
#1013=DIRECTION('ref_axis',(0.,-1.,0.));
#1014=DIRECTION('',(0.287347885566345,0.,-0.957826285221151));
#1015=DIRECTION('center_axis',(0.287347885566345,0.,-0.957826285221152));
#1016=DIRECTION('ref_axis',(0.,-1.,0.));
#1017=DIRECTION('center_axis',(-0.287347885566345,0.,0.957826285221152));
#1018=DIRECTION('ref_axis',(0.,-1.,0.));
#1019=DIRECTION('center_axis',(0.287347885566345,0.,-0.957826285221151));
#1020=DIRECTION('ref_axis',(0.,-1.,0.));
#1021=DIRECTION('',(0.287347885566345,0.,-0.957826285221151));
#1022=DIRECTION('center_axis',(0.287347885566345,0.,-0.957826285221152));
#1023=DIRECTION('ref_axis',(0.,-1.,0.));
#1024=DIRECTION('center_axis',(-0.287347885566345,0.,0.957826285221152));
#1025=DIRECTION('ref_axis',(0.,-1.,0.));
#1026=DIRECTION('center_axis',(-0.287347885566345,0.,-0.957826285221151));
#1027=DIRECTION('ref_axis',(0.,1.,0.));
#1028=DIRECTION('',(-0.287347885566345,0.,-0.957826285221151));
#1029=DIRECTION('center_axis',(-0.287347885566345,0.,-0.957826285221152));
#1030=DIRECTION('ref_axis',(0.,1.,0.));
#1031=DIRECTION('center_axis',(0.287347885566345,0.,0.957826285221152));
#1032=DIRECTION('ref_axis',(0.,1.,0.));
#1033=DIRECTION('center_axis',(-0.287347885566345,0.,-0.957826285221151));
#1034=DIRECTION('ref_axis',(0.,1.,0.));
#1035=DIRECTION('',(-0.287347885566345,0.,-0.957826285221151));
#1036=DIRECTION('center_axis',(-0.287347885566345,0.,-0.957826285221152));
#1037=DIRECTION('ref_axis',(0.,1.,0.));
#1038=DIRECTION('center_axis',(0.287347885566345,0.,0.957826285221152));
#1039=DIRECTION('ref_axis',(0.,1.,0.));
#1040=DIRECTION('center_axis',(-0.287347885566345,0.,-0.957826285221151));
#1041=DIRECTION('ref_axis',(0.,1.,0.));
#1042=DIRECTION('',(-0.287347885566345,0.,-0.957826285221151));
#1043=DIRECTION('center_axis',(-0.287347885566345,0.,-0.957826285221152));
#1044=DIRECTION('ref_axis',(0.,1.,0.));
#1045=DIRECTION('center_axis',(0.287347885566345,0.,0.957826285221152));
#1046=DIRECTION('ref_axis',(0.,1.,0.));
#1047=DIRECTION('center_axis',(-0.989359135364853,0.,-0.145493990494831));
#1048=DIRECTION('ref_axis',(-0.145493990494831,0.,0.989359135364853));
#1049=DIRECTION('center_axis',(0.,0.,-1.));
#1050=DIRECTION('ref_axis',(-1.,0.,0.));
#1051=DIRECTION('',(1.,0.,0.));
#1052=DIRECTION('',(-1.,0.,0.));
#1053=DIRECTION('',(0.,1.,0.));
#1054=DIRECTION('center_axis',(0.989359135364853,0.,-0.145493990494831));
#1055=DIRECTION('ref_axis',(-0.145493990494831,0.,-0.989359135364853));
#1056=DIRECTION('',(0.145493990494831,0.,0.989359135364853));
#1057=DIRECTION('',(-0.145493990494831,0.,-0.989359135364853));
#1058=DIRECTION('center_axis',(0.,1.,0.));
#1059=DIRECTION('ref_axis',(0.,0.,1.));
#1060=DIRECTION('center_axis',(0.,1.,0.));
#1061=DIRECTION('ref_axis',(1.,0.,0.));
#1062=CARTESIAN_POINT('',(0.,0.,0.));
#1063=CARTESIAN_POINT('Ctrl Pts',(-70.6583846780137,117.5,27.8404572754898));
#1064=CARTESIAN_POINT('Ctrl Pts',(-77.9589921156495,117.5,20.9312815667013));
#1065=CARTESIAN_POINT('Ctrl Pts',(-77.9589921156495,100.,20.9312815667013));
#1066=CARTESIAN_POINT('Ctrl Pts',(-77.9589921156495,82.5,20.9312815667013));
#1067=CARTESIAN_POINT('Ctrl Pts',(-70.6583846780137,82.5,27.8404572754898));
#1068=CARTESIAN_POINT('Ctrl Pts',(-63.3577772403778,82.5,34.7496329842783));
#1069=CARTESIAN_POINT('Ctrl Pts',(-63.3577772403778,100.,34.7496329842783));
#1070=CARTESIAN_POINT('Ctrl Pts',(-63.3577772403778,117.5,34.7496329842783));
#1071=CARTESIAN_POINT('Ctrl Pts',(-70.6583846780137,117.5,27.8404572754898));
#1072=CARTESIAN_POINT('Ctrl Pts',(-182.987013683416,117.5,146.532940856874));
#1073=CARTESIAN_POINT('Ctrl Pts',(-190.287621121052,117.5,139.623765148085));
#1074=CARTESIAN_POINT('Ctrl Pts',(-190.287621121052,100.,139.623765148085));
#1075=CARTESIAN_POINT('Ctrl Pts',(-190.287621121052,82.5,139.623765148085));
#1076=CARTESIAN_POINT('Ctrl Pts',(-182.987013683416,82.5,146.532940856873));
#1077=CARTESIAN_POINT('Ctrl Pts',(-175.68640624578,82.5,153.442116565662));
#1078=CARTESIAN_POINT('Ctrl Pts',(-175.68640624578,100.,153.442116565662));
#1079=CARTESIAN_POINT('Ctrl Pts',(-175.68640624578,117.5,153.442116565662));
#1080=CARTESIAN_POINT('Ctrl Pts',(-182.987013683416,117.5,146.532940856874));
#1081=CARTESIAN_POINT('',(-172.99920510689,117.5,135.979284002161));
#1082=CARTESIAN_POINT('Origin',(-172.99920510689,100.,135.979284002161));
#1083=CARTESIAN_POINT('',(-80.6461932544235,117.5,38.3941141300794));
#1084=CARTESIAN_POINT('Ctrl Pts',(-172.99920510689,117.5,135.979284002161));
#1085=CARTESIAN_POINT('Ctrl Pts',(-80.6461932544235,117.5,38.3941141300794));
#1086=CARTESIAN_POINT('Origin',(-80.6461932544234,100.,38.3941141300794));
#1087=CARTESIAN_POINT('Ctrl Pts',(-66.3466909879827,125.,23.2844893353189));
#1088=CARTESIAN_POINT('Ctrl Pts',(-76.7761301846053,125.,13.4142383227639));
#1089=CARTESIAN_POINT('Ctrl Pts',(-76.7761301846053,100.,13.4142383227639));
#1090=CARTESIAN_POINT('Ctrl Pts',(-76.7761301846053,75.,13.4142383227639));
#1091=CARTESIAN_POINT('Ctrl Pts',(-66.3466909879827,75.,23.2844893353189));
#1092=CARTESIAN_POINT('Ctrl Pts',(-55.9172517913601,75.,33.154740347874));
#1093=CARTESIAN_POINT('Ctrl Pts',(-55.9172517913601,100.,33.154740347874));
#1094=CARTESIAN_POINT('Ctrl Pts',(-55.9172517913601,125.,33.154740347874));
#1095=CARTESIAN_POINT('Ctrl Pts',(-66.3466909879827,125.,23.2844893353189));
#1096=CARTESIAN_POINT('Ctrl Pts',(-187.298707373311,125.,151.088908796901));
#1097=CARTESIAN_POINT('Ctrl Pts',(-197.728146569934,125.,141.218657784346));
#1098=CARTESIAN_POINT('Ctrl Pts',(-197.728146569934,100.,141.218657784346));
#1099=CARTESIAN_POINT('Ctrl Pts',(-197.728146569934,75.,141.218657784346));
#1100=CARTESIAN_POINT('Ctrl Pts',(-187.298707373311,75.,151.088908796901));
#1101=CARTESIAN_POINT('Ctrl Pts',(-176.869268176689,75.,160.959159809456));
#1102=CARTESIAN_POINT('Ctrl Pts',(-176.869268176689,100.,160.959159809456));
#1103=CARTESIAN_POINT('Ctrl Pts',(-176.869268176689,125.,160.959159809456));
#1104=CARTESIAN_POINT('Ctrl Pts',(-187.298707373311,125.,151.088908796901));
#1105=CARTESIAN_POINT('',(-172.99920510689,125.,135.979284002161));
#1106=CARTESIAN_POINT('Origin',(-172.99920510689,100.,135.979284002161));
#1107=CARTESIAN_POINT('',(-80.6461932544235,125.,38.3941141300794));
#1108=CARTESIAN_POINT('Ctrl Pts',(-172.99920510689,125.,135.979284002161));
#1109=CARTESIAN_POINT('Ctrl Pts',(-80.6461932544235,125.,38.3941141300794));
#1110=CARTESIAN_POINT('Origin',(-80.6461932544234,100.,38.3941141300794));
#1111=CARTESIAN_POINT('Origin',(-172.99920510689,100.,135.979284002161));
#1112=CARTESIAN_POINT('Origin',(-75.,0.,0.));
#1113=CARTESIAN_POINT('',(-100.,0.,170.));
#1114=CARTESIAN_POINT('',(-75.,0.,0.));
#1115=CARTESIAN_POINT('',(-100.,0.,170.));
#1116=CARTESIAN_POINT('',(-100.,300.,170.));
#1117=CARTESIAN_POINT('',(-100.,0.,170.));
#1118=CARTESIAN_POINT('',(-75.,300.,0.));
#1119=CARTESIAN_POINT('',(-100.,300.,170.));
#1120=CARTESIAN_POINT('',(-75.,0.,0.));
#1121=CARTESIAN_POINT('Origin',(54.4074688234732,50.0000000000004,192.030004560086));
#1122=CARTESIAN_POINT('',(20.5004183266444,50.0000000000004,204.290181010917));
#1123=CARTESIAN_POINT('Origin',(54.9821645946059,50.0000000000004,193.945657130529));
#1124=CARTESIAN_POINT('',(18.0100699850694,50.0000000000004,202.949224211608));
#1125=CARTESIAN_POINT('Origin',(19.9257225555118,50.0000000000004,202.374528440475));
#1126=CARTESIAN_POINT('',(54.4074688234732,12.0000000000004,192.030004560086));
#1127=CARTESIAN_POINT('Origin',(54.4074688234732,50.0000000000004,192.030004560086));
#1128=CARTESIAN_POINT('Origin',(54.4074688234732,50.0000000000004,192.030004560086));
#1129=CARTESIAN_POINT('Origin',(52.1086857389424,50.0000000000004,184.367394278317));
#1130=CARTESIAN_POINT('',(52.6833815100752,12.0000000000004,186.28304684876));
#1131=CARTESIAN_POINT('',(52.1086857389425,12.0000000000004,184.367394278317));
#1132=CARTESIAN_POINT('',(89.0807803484789,50.0000000000004,175.363827197238));
#1133=CARTESIAN_POINT('Origin',(52.6833815100752,50.0000000000004,186.28304684876));
#1134=CARTESIAN_POINT('Origin',(52.6833815100752,50.0000000000004,186.28304684876));
#1135=CARTESIAN_POINT('Origin',(54.9821645946059,50.0000000000004,193.945657130529));
#1136=CARTESIAN_POINT('',(54.9821645946059,22.0000000000004,193.945657130529));
#1137=CARTESIAN_POINT('Origin',(54.9821645946059,50.0000000000004,193.945657130529));
#1138=CARTESIAN_POINT('Origin',(54.4074688234732,150.,192.030004560086));
#1139=CARTESIAN_POINT('',(20.5004183266445,150.,204.290181010917));
#1140=CARTESIAN_POINT('Origin',(54.9821645946059,150.,193.945657130529));
#1141=CARTESIAN_POINT('',(18.0100699850694,150.,202.949224211608));
#1142=CARTESIAN_POINT('Origin',(19.9257225555118,150.,202.374528440475));
#1143=CARTESIAN_POINT('',(54.4074688234732,112.,192.030004560086));
#1144=CARTESIAN_POINT('Origin',(54.4074688234732,150.,192.030004560086));
#1145=CARTESIAN_POINT('Origin',(54.4074688234732,150.,192.030004560086));
#1146=CARTESIAN_POINT('Origin',(52.1086857389425,150.,184.367394278317));
#1147=CARTESIAN_POINT('',(52.6833815100752,112.,186.28304684876));
#1148=CARTESIAN_POINT('',(52.1086857389425,112.,184.367394278317));
#1149=CARTESIAN_POINT('',(89.0807803484789,150.,175.363827197238));
#1150=CARTESIAN_POINT('Origin',(52.6833815100752,150.,186.28304684876));
#1151=CARTESIAN_POINT('Origin',(52.6833815100752,150.,186.28304684876));
#1152=CARTESIAN_POINT('Origin',(54.9821645946059,150.,193.945657130529));
#1153=CARTESIAN_POINT('',(54.9821645946059,122.,193.945657130529));
#1154=CARTESIAN_POINT('Origin',(54.9821645946059,150.,193.945657130529));
#1155=CARTESIAN_POINT('Origin',(54.4074688234732,250.,192.030004560086));
#1156=CARTESIAN_POINT('',(20.5004183266445,250.,204.290181010917));
#1157=CARTESIAN_POINT('Origin',(54.9821645946059,250.,193.945657130529));
#1158=CARTESIAN_POINT('',(18.0100699850694,250.,202.949224211608));
#1159=CARTESIAN_POINT('Origin',(19.9257225555118,250.,202.374528440475));
#1160=CARTESIAN_POINT('',(54.4074688234732,212.,192.030004560086));
#1161=CARTESIAN_POINT('Origin',(54.4074688234732,250.,192.030004560086));
#1162=CARTESIAN_POINT('Origin',(54.4074688234732,250.,192.030004560086));
#1163=CARTESIAN_POINT('Origin',(52.1086857389425,250.,184.367394278317));
#1164=CARTESIAN_POINT('',(52.6833815100752,212.,186.28304684876));
#1165=CARTESIAN_POINT('',(52.1086857389425,212.,184.367394278317));
#1166=CARTESIAN_POINT('',(89.0807803484789,250.,175.363827197238));
#1167=CARTESIAN_POINT('Origin',(52.6833815100752,250.,186.28304684876));
#1168=CARTESIAN_POINT('Origin',(52.6833815100752,250.,186.28304684876));
#1169=CARTESIAN_POINT('Origin',(54.9821645946059,250.,193.945657130529));
#1170=CARTESIAN_POINT('',(54.9821645946059,222.,193.945657130529));
#1171=CARTESIAN_POINT('Origin',(54.9821645946059,250.,193.945657130529));
#1172=CARTESIAN_POINT('Origin',(-54.4074688234732,250.,192.030004560086));
#1173=CARTESIAN_POINT('',(-89.4639108625673,250.,183.60113325014));
#1174=CARTESIAN_POINT('Origin',(-54.9821645946059,250.,193.945657130529));
#1175=CARTESIAN_POINT('',(-90.8048676618769,250.,181.110784908565));
#1176=CARTESIAN_POINT('Origin',(-88.8892150914346,250.,181.685480679698));
#1177=CARTESIAN_POINT('',(-54.4074688234732,288.,192.030004560086));
#1178=CARTESIAN_POINT('Origin',(-54.4074688234732,250.,192.030004560086));
#1179=CARTESIAN_POINT('Origin',(-54.4074688234732,250.,192.030004560086));
#1180=CARTESIAN_POINT('Origin',(-52.1086857389424,250.,184.367394278317));
#1181=CARTESIAN_POINT('',(-52.6833815100751,288.,186.28304684876));
#1182=CARTESIAN_POINT('',(-52.1086857389424,288.,184.367394278317));
#1183=CARTESIAN_POINT('',(-16.2859826716713,250.,197.202266500281));
#1184=CARTESIAN_POINT('Origin',(-52.6833815100751,250.,186.28304684876));
#1185=CARTESIAN_POINT('Origin',(-52.6833815100751,250.,186.28304684876));
#1186=CARTESIAN_POINT('Origin',(-54.9821645946059,250.,193.945657130529));
#1187=CARTESIAN_POINT('',(-54.9821645946059,278.,193.945657130529));
#1188=CARTESIAN_POINT('Origin',(-54.9821645946059,250.,193.945657130529));
#1189=CARTESIAN_POINT('Origin',(-54.4074688234732,150.,192.030004560086));
#1190=CARTESIAN_POINT('',(-89.4639108625673,150.,183.60113325014));
#1191=CARTESIAN_POINT('Origin',(-54.9821645946059,150.,193.945657130529));
#1192=CARTESIAN_POINT('',(-90.8048676618769,150.,181.110784908565));
#1193=CARTESIAN_POINT('Origin',(-88.8892150914346,150.,181.685480679698));
#1194=CARTESIAN_POINT('',(-54.4074688234732,188.,192.030004560086));
#1195=CARTESIAN_POINT('Origin',(-54.4074688234732,150.,192.030004560086));
#1196=CARTESIAN_POINT('Origin',(-54.4074688234732,150.,192.030004560086));
#1197=CARTESIAN_POINT('Origin',(-52.1086857389424,150.,184.367394278317));
#1198=CARTESIAN_POINT('',(-52.6833815100751,188.,186.28304684876));
#1199=CARTESIAN_POINT('',(-52.1086857389424,188.,184.367394278317));
#1200=CARTESIAN_POINT('',(-16.2859826716713,150.,197.202266500281));
#1201=CARTESIAN_POINT('Origin',(-52.6833815100751,150.,186.28304684876));
#1202=CARTESIAN_POINT('Origin',(-52.6833815100751,150.,186.28304684876));
#1203=CARTESIAN_POINT('Origin',(-54.9821645946059,150.,193.945657130529));
#1204=CARTESIAN_POINT('',(-54.9821645946059,178.,193.945657130529));
#1205=CARTESIAN_POINT('Origin',(-54.9821645946059,150.,193.945657130529));
#1206=CARTESIAN_POINT('Origin',(-54.4074688234732,50.,192.030004560086));
#1207=CARTESIAN_POINT('',(-89.4639108625673,50.,183.60113325014));
#1208=CARTESIAN_POINT('Origin',(-54.9821645946059,50.,193.945657130529));
#1209=CARTESIAN_POINT('',(-90.8048676618769,50.,181.110784908565));
#1210=CARTESIAN_POINT('Origin',(-88.8892150914346,50.,181.685480679698));
#1211=CARTESIAN_POINT('',(-54.4074688234732,88.,192.030004560086));
#1212=CARTESIAN_POINT('Origin',(-54.4074688234732,50.,192.030004560086));
#1213=CARTESIAN_POINT('Origin',(-54.4074688234732,50.,192.030004560086));
#1214=CARTESIAN_POINT('Origin',(-52.1086857389424,50.,184.367394278317));
#1215=CARTESIAN_POINT('',(-52.6833815100751,88.,186.28304684876));
#1216=CARTESIAN_POINT('',(-52.1086857389424,88.,184.367394278317));
#1217=CARTESIAN_POINT('',(-16.2859826716713,50.,197.202266500281));
#1218=CARTESIAN_POINT('Origin',(-52.6833815100751,50.,186.28304684876));
#1219=CARTESIAN_POINT('Origin',(-52.6833815100751,50.,186.28304684876));
#1220=CARTESIAN_POINT('Origin',(-54.9821645946059,50.,193.945657130529));
#1221=CARTESIAN_POINT('',(-54.9821645946059,78.,193.945657130529));
#1222=CARTESIAN_POINT('Origin',(-54.9821645946059,50.,193.945657130529));
#1223=CARTESIAN_POINT('Origin',(-52.6833815100751,50.,186.28304684876));
#1224=CARTESIAN_POINT('',(-13.7956343300964,50.,195.861309700971));
#1225=CARTESIAN_POINT('Origin',(-14.3703301012291,50.,197.776962271413));
#1226=CARTESIAN_POINT('Origin',(-52.1086857389424,50.,184.367394278317));
#1227=CARTESIAN_POINT('Origin',(-100.,0.,170.));
#1228=CARTESIAN_POINT('',(1.77635683940025E-14,0.,200.));
#1229=CARTESIAN_POINT('',(1.77635683940025E-14,0.,200.));
#1230=CARTESIAN_POINT('',(1.77635683940025E-14,300.,200.));
#1231=CARTESIAN_POINT('',(1.77635683940025E-14,0.,200.));
#1232=CARTESIAN_POINT('',(1.77635683940025E-14,300.,200.));
#1233=CARTESIAN_POINT('',(-13.7956343300964,150.,195.861309700971));
#1234=CARTESIAN_POINT('Origin',(-52.1086857389424,150.,184.367394278317));
#1235=CARTESIAN_POINT('',(-13.7956343300964,250.,195.861309700971));
#1236=CARTESIAN_POINT('Origin',(-52.1086857389424,250.,184.367394278317));
#1237=CARTESIAN_POINT('Origin',(-52.6833815100751,150.,186.28304684876));
#1238=CARTESIAN_POINT('Origin',(-14.3703301012291,150.,197.776962271413));
#1239=CARTESIAN_POINT('Origin',(-52.6833815100751,250.,186.28304684876));
#1240=CARTESIAN_POINT('Origin',(-14.3703301012291,250.,197.776962271413));
#1241=CARTESIAN_POINT('Origin',(52.6833815100752,50.0000000000004,186.28304684876));
#1242=CARTESIAN_POINT('',(90.4217371477885,50.0000000000004,172.873478855663));
#1243=CARTESIAN_POINT('Origin',(90.9964329189212,50.0000000000004,174.789131426106));
#1244=CARTESIAN_POINT('Origin',(52.1086857389424,50.0000000000004,184.367394278317));
#1245=CARTESIAN_POINT('Origin',(1.77635683940025E-14,0.,200.));
#1246=CARTESIAN_POINT('',(100.,0.,170.));
#1247=CARTESIAN_POINT('',(100.,0.,170.));
#1248=CARTESIAN_POINT('',(100.,300.,170.));
#1249=CARTESIAN_POINT('',(100.,0.,170.));
#1250=CARTESIAN_POINT('',(100.,300.,170.));
#1251=CARTESIAN_POINT('',(90.4217371477885,150.,172.873478855663));
#1252=CARTESIAN_POINT('Origin',(52.1086857389425,150.,184.367394278317));
#1253=CARTESIAN_POINT('',(90.4217371477885,250.,172.873478855663));
#1254=CARTESIAN_POINT('Origin',(52.1086857389425,250.,184.367394278317));
#1255=CARTESIAN_POINT('Origin',(52.6833815100752,150.,186.28304684876));
#1256=CARTESIAN_POINT('Origin',(90.9964329189212,150.,174.789131426106));
#1257=CARTESIAN_POINT('Origin',(52.6833815100752,250.,186.28304684876));
#1258=CARTESIAN_POINT('Origin',(90.9964329189212,250.,174.789131426106));
#1259=CARTESIAN_POINT('Origin',(-52.1086857389424,250.,184.367394278317));
#1260=CARTESIAN_POINT('',(-31.9943337492982,278.,117.319554312837));
#1261=CARTESIAN_POINT('',(-52.1086857389424,278.,184.367394278317));
#1262=CARTESIAN_POINT('Origin',(-31.9943337492982,250.,117.319554312837));
#1263=CARTESIAN_POINT('Origin',(-31.9943337492982,250.,117.319554312837));
#1264=CARTESIAN_POINT('Origin',(-52.1086857389424,150.,184.367394278317));
#1265=CARTESIAN_POINT('',(-31.9943337492982,178.,117.319554312837));
#1266=CARTESIAN_POINT('',(-52.1086857389424,178.,184.367394278317));
#1267=CARTESIAN_POINT('Origin',(-31.9943337492982,150.,117.319554312837));
#1268=CARTESIAN_POINT('Origin',(-31.9943337492982,150.,117.319554312837));
#1269=CARTESIAN_POINT('Origin',(-52.1086857389424,50.,184.367394278317));
#1270=CARTESIAN_POINT('',(-31.9943337492982,78.,117.319554312837));
#1271=CARTESIAN_POINT('',(-52.1086857389424,78.,184.367394278317));
#1272=CARTESIAN_POINT('Origin',(-31.9943337492982,50.,117.319554312837));
#1273=CARTESIAN_POINT('Origin',(-31.9943337492982,50.,117.319554312837));
#1274=CARTESIAN_POINT('Origin',(52.1086857389425,250.,184.367394278317));
#1275=CARTESIAN_POINT('',(31.9943337492983,222.,117.319554312837));
#1276=CARTESIAN_POINT('',(52.1086857389425,222.,184.367394278317));
#1277=CARTESIAN_POINT('Origin',(31.9943337492983,250.,117.319554312837));
#1278=CARTESIAN_POINT('Origin',(31.9943337492983,250.,117.319554312837));
#1279=CARTESIAN_POINT('Origin',(52.1086857389425,150.,184.367394278317));
#1280=CARTESIAN_POINT('',(31.9943337492983,122.,117.319554312837));
#1281=CARTESIAN_POINT('',(52.1086857389425,122.,184.367394278317));
#1282=CARTESIAN_POINT('Origin',(31.9943337492983,150.,117.319554312837));
#1283=CARTESIAN_POINT('Origin',(31.9943337492983,150.,117.319554312837));
#1284=CARTESIAN_POINT('Origin',(52.1086857389425,50.0000000000004,184.367394278317));
#1285=CARTESIAN_POINT('',(31.9943337492983,22.0000000000004,117.319554312837));
#1286=CARTESIAN_POINT('',(52.1086857389425,22.0000000000004,184.367394278317));
#1287=CARTESIAN_POINT('Origin',(31.9943337492983,50.0000000000004,117.319554312837));
#1288=CARTESIAN_POINT('Origin',(31.9943337492983,50.0000000000004,117.319554312837));
#1289=CARTESIAN_POINT('Origin',(-75.,0.,0.));
#1290=CARTESIAN_POINT('Origin',(75.,0.,0.));
#1291=CARTESIAN_POINT('',(75.,0.,0.));
#1292=CARTESIAN_POINT('',(-75.,0.,0.));
#1293=CARTESIAN_POINT('',(75.,300.,0.));
#1294=CARTESIAN_POINT('',(-75.,300.,0.));
#1295=CARTESIAN_POINT('',(75.,0.,0.));
#1296=CARTESIAN_POINT('Origin',(100.,0.,170.));
#1297=CARTESIAN_POINT('',(75.,0.,0.));
#1298=CARTESIAN_POINT('',(75.,300.,0.));
#1299=CARTESIAN_POINT('Origin',(1.77635683940025E-14,300.,100.));
#1300=CARTESIAN_POINT('Origin',(1.77635683940025E-14,0.,100.));
#1301=UNCERTAINTY_MEASURE_WITH_UNIT(LENGTH_MEASURE(0.01),#1305,
'DISTANCE_ACCURACY_VALUE',
'Maximum model space distance between geometric entities at asserted c
onnectivities');
#1302=UNCERTAINTY_MEASURE_WITH_UNIT(LENGTH_MEASURE(0.01),#1305,
'DISTANCE_ACCURACY_VALUE',
'Maximum model space distance between geometric entities at asserted c
onnectivities');
#1303=(
GEOMETRIC_REPRESENTATION_CONTEXT(3)
GLOBAL_UNCERTAINTY_ASSIGNED_CONTEXT((#1301))
GLOBAL_UNIT_ASSIGNED_CONTEXT((#1305,#1307,#1308))
REPRESENTATION_CONTEXT('','3D')
);
#1304=(
GEOMETRIC_REPRESENTATION_CONTEXT(3)
GLOBAL_UNCERTAINTY_ASSIGNED_CONTEXT((#1302))
GLOBAL_UNIT_ASSIGNED_CONTEXT((#1305,#1307,#1308))
REPRESENTATION_CONTEXT('','3D')
);
#1305=(
LENGTH_UNIT()
NAMED_UNIT(*)
SI_UNIT(.MILLI.,.METRE.)
);
#1306=(
LENGTH_UNIT()
NAMED_UNIT(*)
SI_UNIT($,.METRE.)
);
#1307=(
NAMED_UNIT(*)
PLANE_ANGLE_UNIT()
SI_UNIT($,.RADIAN.)
);
#1308=(
NAMED_UNIT(*)
SI_UNIT($,.STERADIAN.)
SOLID_ANGLE_UNIT()
);
#1309=SHAPE_DEFINITION_REPRESENTATION(#1310,#1311);
#1310=PRODUCT_DEFINITION_SHAPE('',$,#1313);
#1311=SHAPE_REPRESENTATION('',(#705),#1303);
#1312=PRODUCT_DEFINITION_CONTEXT('part definition',#1317,'design');
#1313=PRODUCT_DEFINITION('Motorblock','Motorblock v0',#1314,#1312);
#1314=PRODUCT_DEFINITION_FORMATION('',$,#1319);
#1315=PRODUCT_RELATED_PRODUCT_CATEGORY('Motorblock v0',
'Motorblock v0',(#1319));
#1316=APPLICATION_PROTOCOL_DEFINITION('international standard',
'automotive_design',2009,#1317);
#1317=APPLICATION_CONTEXT(
'Core Data for Automotive Mechanical Design Process');
#1318=PRODUCT_CONTEXT('part definition',#1317,'mechanical');
#1319=PRODUCT('Motorblock','Motorblock v0',$,(#1318));
#1320=PRESENTATION_STYLE_ASSIGNMENT((#1321));
#1321=SURFACE_STYLE_USAGE(.BOTH.,#1322);
#1322=SURFACE_SIDE_STYLE('',(#1323));
#1323=SURFACE_STYLE_FILL_AREA(#1324);
#1324=FILL_AREA_STYLE('Stahl - satiniert',(#1325));
#1325=FILL_AREA_STYLE_COLOUR('Stahl - satiniert',#1326);
#1326=COLOUR_RGB('Stahl - satiniert',0.627450980392157,0.627450980392157,
0.627450980392157);
ENDSEC;
END-ISO-10303-21;
