ISO-10303-21;
HEADER;
/* Generated by software containing ST-Developer
 * from STEP Tools, Inc. (www.steptools.com) 
 */

FILE_DESCRIPTION(
/* description */ (''),
/* implementation_level */ '2;1');

FILE_NAME(
/* name */ 'MA Small Object.step',
/* time_stamp */ '2024-01-24T13:30:17+01:00',
/* author */ (''),
/* organization */ (''),
/* preprocessor_version */ 'ST-DEVELOPER v20',
/* originating_system */ 'Autodesk Translation Framework v12.14.0.127',

/* authorisation */ '');

FILE_SCHEMA (('AUTOMOTIVE_DESIGN { 1 0 10303 214 3 1 1 }'));
ENDSEC;

DATA;
#10=MECHANICAL_DESIGN_GEOMETRIC_PRESENTATION_REPRESENTATION('',(#13),#372);
#11=SHAPE_REPRESENTATION_RELATIONSHIP('SRR','None',#379,#12);
#12=ADVANCED_BREP_SHAPE_REPRESENTATION('',(#14),#371);
#13=STYLED_ITEM('',(#389),#14);
#14=MANIFOLD_SOLID_BREP('K\X\F6rper1',#227);
#15=FACE_OUTER_BOUND('',#27,.T.);
#16=FACE_OUTER_BOUND('',#28,.T.);
#17=FACE_OUTER_BOUND('',#29,.T.);
#18=FACE_OUTER_BOUND('',#30,.T.);
#19=FACE_OUTER_BOUND('',#31,.T.);
#20=FACE_OUTER_BOUND('',#32,.T.);
#21=FACE_OUTER_BOUND('',#33,.T.);
#22=FACE_OUTER_BOUND('',#34,.T.);
#23=FACE_OUTER_BOUND('',#35,.T.);
#24=FACE_OUTER_BOUND('',#36,.T.);
#25=FACE_OUTER_BOUND('',#37,.T.);
#26=FACE_OUTER_BOUND('',#38,.T.);
#27=EDGE_LOOP('',(#145,#146,#147,#148));
#28=EDGE_LOOP('',(#149,#150,#151,#152));
#29=EDGE_LOOP('',(#153,#154,#155,#156));
#30=EDGE_LOOP('',(#157,#158,#159,#160,#161));
#31=EDGE_LOOP('',(#162,#163,#164,#165));
#32=EDGE_LOOP('',(#166,#167,#168,#169,#170,#171));
#33=EDGE_LOOP('',(#172,#173,#174,#175,#176));
#34=EDGE_LOOP('',(#177,#178,#179,#180));
#35=EDGE_LOOP('',(#181,#182,#183,#184));
#36=EDGE_LOOP('',(#185,#186,#187,#188));
#37=EDGE_LOOP('',(#189,#190,#191,#192,#193,#194,#195,#196));
#38=EDGE_LOOP('',(#197,#198,#199,#200,#201,#202));
#39=LINE('',#312,#68);
#40=LINE('',#314,#69);
#41=LINE('',#316,#70);
#42=LINE('',#317,#71);
#43=LINE('',#320,#72);
#44=LINE('',#322,#73);
#45=LINE('',#323,#74);
#46=LINE('',#326,#75);
#47=LINE('',#328,#76);
#48=LINE('',#329,#77);
#49=LINE('',#332,#78);
#50=LINE('',#333,#79);
#51=LINE('',#336,#80);
#52=LINE('',#338,#81);
#53=LINE('',#339,#82);
#54=LINE('',#342,#83);
#55=LINE('',#344,#84);
#56=LINE('',#345,#85);
#57=LINE('',#348,#86);
#58=LINE('',#350,#87);
#59=LINE('',#351,#88);
#60=LINE('',#354,#89);
#61=LINE('',#356,#90);
#62=LINE('',#357,#91);
#63=LINE('',#360,#92);
#64=LINE('',#362,#93);
#65=LINE('',#363,#94);
#66=LINE('',#365,#95);
#67=LINE('',#366,#96);
#68=VECTOR('',#257,10.);
#69=VECTOR('',#258,10.);
#70=VECTOR('',#259,10.);
#71=VECTOR('',#260,10.);
#72=VECTOR('',#263,10.);
#73=VECTOR('',#264,10.);
#74=VECTOR('',#265,10.);
#75=VECTOR('',#268,10.);
#76=VECTOR('',#269,10.);
#77=VECTOR('',#270,10.);
#78=VECTOR('',#273,10.);
#79=VECTOR('',#274,10.);
#80=VECTOR('',#277,10.);
#81=VECTOR('',#278,10.);
#82=VECTOR('',#279,10.);
#83=VECTOR('',#282,10.);
#84=VECTOR('',#283,10.);
#85=VECTOR('',#284,10.);
#86=VECTOR('',#287,10.);
#87=VECTOR('',#288,10.);
#88=VECTOR('',#289,10.);
#89=VECTOR('',#292,10.);
#90=VECTOR('',#293,10.);
#91=VECTOR('',#294,10.);
#92=VECTOR('',#297,10.);
#93=VECTOR('',#298,10.);
#94=VECTOR('',#299,10.);
#95=VECTOR('',#302,10.);
#96=VECTOR('',#303,10.);
#97=VERTEX_POINT('',#310);
#98=VERTEX_POINT('',#311);
#99=VERTEX_POINT('',#313);
#100=VERTEX_POINT('',#315);
#101=VERTEX_POINT('',#319);
#102=VERTEX_POINT('',#321);
#103=VERTEX_POINT('',#325);
#104=VERTEX_POINT('',#327);
#105=VERTEX_POINT('',#331);
#106=VERTEX_POINT('',#335);
#107=VERTEX_POINT('',#337);
#108=VERTEX_POINT('',#341);
#109=VERTEX_POINT('',#343);
#110=VERTEX_POINT('',#347);
#111=VERTEX_POINT('',#349);
#112=VERTEX_POINT('',#353);
#113=VERTEX_POINT('',#355);
#114=VERTEX_POINT('',#359);
#115=VERTEX_POINT('',#361);
#116=EDGE_CURVE('',#97,#98,#39,.F.);
#117=EDGE_CURVE('',#99,#97,#40,.T.);
#118=EDGE_CURVE('',#100,#99,#41,.T.);
#119=EDGE_CURVE('',#98,#100,#42,.T.);
#120=EDGE_CURVE('',#100,#101,#43,.T.);
#121=EDGE_CURVE('',#102,#99,#44,.T.);
#122=EDGE_CURVE('',#101,#102,#45,.T.);
#123=EDGE_CURVE('',#101,#103,#46,.T.);
#124=EDGE_CURVE('',#104,#102,#47,.T.);
#125=EDGE_CURVE('',#103,#104,#48,.T.);
#126=EDGE_CURVE('',#105,#97,#49,.T.);
#127=EDGE_CURVE('',#105,#104,#50,.F.);
#128=EDGE_CURVE('',#106,#97,#51,.T.);
#129=EDGE_CURVE('',#106,#107,#52,.T.);
#130=EDGE_CURVE('',#107,#105,#53,.F.);
#131=EDGE_CURVE('',#108,#107,#54,.T.);
#132=EDGE_CURVE('',#108,#109,#55,.T.);
#133=EDGE_CURVE('',#103,#109,#56,.F.);
#134=EDGE_CURVE('',#106,#110,#57,.T.);
#135=EDGE_CURVE('',#111,#98,#58,.F.);
#136=EDGE_CURVE('',#110,#111,#59,.T.);
#137=EDGE_CURVE('',#112,#110,#60,.T.);
#138=EDGE_CURVE('',#113,#111,#61,.T.);
#139=EDGE_CURVE('',#112,#113,#62,.T.);
#140=EDGE_CURVE('',#114,#112,#63,.T.);
#141=EDGE_CURVE('',#115,#113,#64,.T.);
#142=EDGE_CURVE('',#114,#115,#65,.T.);
#143=EDGE_CURVE('',#108,#114,#66,.T.);
#144=EDGE_CURVE('',#109,#115,#67,.T.);
#145=ORIENTED_EDGE('',*,*,#116,.F.);
#146=ORIENTED_EDGE('',*,*,#117,.F.);
#147=ORIENTED_EDGE('',*,*,#118,.F.);
#148=ORIENTED_EDGE('',*,*,#119,.F.);
#149=ORIENTED_EDGE('',*,*,#120,.F.);
#150=ORIENTED_EDGE('',*,*,#118,.T.);
#151=ORIENTED_EDGE('',*,*,#121,.F.);
#152=ORIENTED_EDGE('',*,*,#122,.F.);
#153=ORIENTED_EDGE('',*,*,#123,.F.);
#154=ORIENTED_EDGE('',*,*,#122,.T.);
#155=ORIENTED_EDGE('',*,*,#124,.F.);
#156=ORIENTED_EDGE('',*,*,#125,.F.);
#157=ORIENTED_EDGE('',*,*,#124,.T.);
#158=ORIENTED_EDGE('',*,*,#121,.T.);
#159=ORIENTED_EDGE('',*,*,#117,.T.);
#160=ORIENTED_EDGE('',*,*,#126,.F.);
#161=ORIENTED_EDGE('',*,*,#127,.T.);
#162=ORIENTED_EDGE('',*,*,#126,.T.);
#163=ORIENTED_EDGE('',*,*,#128,.F.);
#164=ORIENTED_EDGE('',*,*,#129,.T.);
#165=ORIENTED_EDGE('',*,*,#130,.T.);
#166=ORIENTED_EDGE('',*,*,#131,.F.);
#167=ORIENTED_EDGE('',*,*,#132,.T.);
#168=ORIENTED_EDGE('',*,*,#133,.F.);
#169=ORIENTED_EDGE('',*,*,#125,.T.);
#170=ORIENTED_EDGE('',*,*,#127,.F.);
#171=ORIENTED_EDGE('',*,*,#130,.F.);
#172=ORIENTED_EDGE('',*,*,#134,.F.);
#173=ORIENTED_EDGE('',*,*,#128,.T.);
#174=ORIENTED_EDGE('',*,*,#116,.T.);
#175=ORIENTED_EDGE('',*,*,#135,.F.);
#176=ORIENTED_EDGE('',*,*,#136,.F.);
#177=ORIENTED_EDGE('',*,*,#137,.T.);
#178=ORIENTED_EDGE('',*,*,#136,.T.);
#179=ORIENTED_EDGE('',*,*,#138,.F.);
#180=ORIENTED_EDGE('',*,*,#139,.F.);
#181=ORIENTED_EDGE('',*,*,#140,.T.);
#182=ORIENTED_EDGE('',*,*,#139,.T.);
#183=ORIENTED_EDGE('',*,*,#141,.F.);
#184=ORIENTED_EDGE('',*,*,#142,.F.);
#185=ORIENTED_EDGE('',*,*,#143,.T.);
#186=ORIENTED_EDGE('',*,*,#142,.T.);
#187=ORIENTED_EDGE('',*,*,#144,.F.);
#188=ORIENTED_EDGE('',*,*,#132,.F.);
#189=ORIENTED_EDGE('',*,*,#144,.T.);
#190=ORIENTED_EDGE('',*,*,#141,.T.);
#191=ORIENTED_EDGE('',*,*,#138,.T.);
#192=ORIENTED_EDGE('',*,*,#135,.T.);
#193=ORIENTED_EDGE('',*,*,#119,.T.);
#194=ORIENTED_EDGE('',*,*,#120,.T.);
#195=ORIENTED_EDGE('',*,*,#123,.T.);
#196=ORIENTED_EDGE('',*,*,#133,.T.);
#197=ORIENTED_EDGE('',*,*,#143,.F.);
#198=ORIENTED_EDGE('',*,*,#131,.T.);
#199=ORIENTED_EDGE('',*,*,#129,.F.);
#200=ORIENTED_EDGE('',*,*,#134,.T.);
#201=ORIENTED_EDGE('',*,*,#137,.F.);
#202=ORIENTED_EDGE('',*,*,#140,.F.);
#203=PLANE('',#241);
#204=PLANE('',#242);
#205=PLANE('',#243);
#206=PLANE('',#244);
#207=PLANE('',#245);
#208=PLANE('',#246);
#209=PLANE('',#247);
#210=PLANE('',#248);
#211=PLANE('',#249);
#212=PLANE('',#250);
#213=PLANE('',#251);
#214=PLANE('',#252);
#215=ADVANCED_FACE('',(#15),#203,.T.);
#216=ADVANCED_FACE('',(#16),#204,.T.);
#217=ADVANCED_FACE('',(#17),#205,.T.);
#218=ADVANCED_FACE('',(#18),#206,.T.);
#219=ADVANCED_FACE('',(#19),#207,.T.);
#220=ADVANCED_FACE('',(#20),#208,.T.);
#221=ADVANCED_FACE('',(#21),#209,.T.);
#222=ADVANCED_FACE('',(#22),#210,.T.);
#223=ADVANCED_FACE('',(#23),#211,.T.);
#224=ADVANCED_FACE('',(#24),#212,.T.);
#225=ADVANCED_FACE('',(#25),#213,.T.);
#226=ADVANCED_FACE('',(#26),#214,.F.);
#227=CLOSED_SHELL('',(#215,#216,#217,#218,#219,#220,#221,#222,#223,#224,
#225,#226));
#228=DERIVED_UNIT_ELEMENT(#230,1.);
#229=DERIVED_UNIT_ELEMENT(#374,-3.);
#230=(
MASS_UNIT()
NAMED_UNIT(*)
SI_UNIT(.KILO.,.GRAM.)
);
#231=DERIVED_UNIT((#228,#229));
#232=MEASURE_REPRESENTATION_ITEM('density measure',
POSITIVE_RATIO_MEASURE(7850.),#231);
#233=PROPERTY_DEFINITION_REPRESENTATION(#238,#235);
#234=PROPERTY_DEFINITION_REPRESENTATION(#239,#236);
#235=REPRESENTATION('material name',(#237),#371);
#236=REPRESENTATION('density',(#232),#371);
#237=DESCRIPTIVE_REPRESENTATION_ITEM('Stahl','Stahl');
#238=PROPERTY_DEFINITION('material property','material name',#381);
#239=PROPERTY_DEFINITION('material property','density of part',#381);
#240=AXIS2_PLACEMENT_3D('',#308,#253,#254);
#241=AXIS2_PLACEMENT_3D('',#309,#255,#256);
#242=AXIS2_PLACEMENT_3D('',#318,#261,#262);
#243=AXIS2_PLACEMENT_3D('',#324,#266,#267);
#244=AXIS2_PLACEMENT_3D('',#330,#271,#272);
#245=AXIS2_PLACEMENT_3D('',#334,#275,#276);
#246=AXIS2_PLACEMENT_3D('',#340,#280,#281);
#247=AXIS2_PLACEMENT_3D('',#346,#285,#286);
#248=AXIS2_PLACEMENT_3D('',#352,#290,#291);
#249=AXIS2_PLACEMENT_3D('',#358,#295,#296);
#250=AXIS2_PLACEMENT_3D('',#364,#300,#301);
#251=AXIS2_PLACEMENT_3D('',#367,#304,#305);
#252=AXIS2_PLACEMENT_3D('',#368,#306,#307);
#253=DIRECTION('axis',(0.,0.,1.));
#254=DIRECTION('refdir',(1.,0.,0.));
#255=DIRECTION('center_axis',(-1.,0.,0.));
#256=DIRECTION('ref_axis',(0.,1.,0.));
#257=DIRECTION('',(0.,0.,-1.));
#258=DIRECTION('',(0.,1.,0.));
#259=DIRECTION('',(0.,0.,-1.));
#260=DIRECTION('',(0.,-1.,0.));
#261=DIRECTION('center_axis',(0.,-1.,0.));
#262=DIRECTION('ref_axis',(-1.,0.,0.));
#263=DIRECTION('',(1.,0.,0.));
#264=DIRECTION('',(-1.,0.,0.));
#265=DIRECTION('',(0.,0.,-1.));
#266=DIRECTION('center_axis',(1.,0.,0.));
#267=DIRECTION('ref_axis',(0.,-1.,0.));
#268=DIRECTION('',(0.,1.,0.));
#269=DIRECTION('',(0.,-1.,0.));
#270=DIRECTION('',(0.,0.,-1.));
#271=DIRECTION('center_axis',(0.,0.,-1.));
#272=DIRECTION('ref_axis',(-1.,0.,0.));
#273=DIRECTION('',(0.,-1.,0.));
#274=DIRECTION('',(-1.,0.,0.));
#275=DIRECTION('center_axis',(1.,0.,0.));
#276=DIRECTION('ref_axis',(0.,1.,0.));
#277=DIRECTION('',(0.,0.,1.));
#278=DIRECTION('',(0.,1.,0.));
#279=DIRECTION('',(0.,0.,-1.));
#280=DIRECTION('center_axis',(0.,1.,0.));
#281=DIRECTION('ref_axis',(-1.,0.,0.));
#282=DIRECTION('',(1.,0.,0.));
#283=DIRECTION('',(0.,0.,1.));
#284=DIRECTION('',(1.,0.,0.));
#285=DIRECTION('center_axis',(0.,-1.,0.));
#286=DIRECTION('ref_axis',(1.,0.,0.));
#287=DIRECTION('',(-1.,0.,0.));
#288=DIRECTION('',(-1.,0.,0.));
#289=DIRECTION('',(0.,0.,1.));
#290=DIRECTION('center_axis',(1.,0.,0.));
#291=DIRECTION('ref_axis',(0.,1.,0.));
#292=DIRECTION('',(0.,1.,0.));
#293=DIRECTION('',(0.,1.,0.));
#294=DIRECTION('',(0.,0.,1.));
#295=DIRECTION('center_axis',(0.,-1.,0.));
#296=DIRECTION('ref_axis',(1.,0.,0.));
#297=DIRECTION('',(1.,0.,0.));
#298=DIRECTION('',(1.,0.,0.));
#299=DIRECTION('',(0.,0.,1.));
#300=DIRECTION('center_axis',(-1.,0.,0.));
#301=DIRECTION('ref_axis',(0.,-1.,0.));
#302=DIRECTION('',(0.,-1.,0.));
#303=DIRECTION('',(0.,-1.,0.));
#304=DIRECTION('center_axis',(0.,0.,1.));
#305=DIRECTION('ref_axis',(1.,0.,0.));
#306=DIRECTION('center_axis',(0.,0.,1.));
#307=DIRECTION('ref_axis',(1.,0.,0.));
#308=CARTESIAN_POINT('',(0.,0.,0.));
#309=CARTESIAN_POINT('Origin',(4.00000005960464,5.00000007450581,5.));
#310=CARTESIAN_POINT('',(4.00000005960464,9.00000009685755,2.5));
#311=CARTESIAN_POINT('',(4.00000005960464,9.00000009685755,5.));
#312=CARTESIAN_POINT('',(4.00000005960464,9.00000009685755,2.5));
#313=CARTESIAN_POINT('',(4.00000005960464,5.00000007450581,2.5));
#314=CARTESIAN_POINT('',(4.00000005960464,7.50000011175871,2.5));
#315=CARTESIAN_POINT('',(4.00000005960464,5.00000007450581,5.));
#316=CARTESIAN_POINT('',(4.00000005960464,5.00000007450581,5.));
#317=CARTESIAN_POINT('',(4.00000005960464,7.50000011175871,5.));
#318=CARTESIAN_POINT('Origin',(5.00000007450581,5.00000007450581,5.));
#319=CARTESIAN_POINT('',(5.00000007450581,5.00000007450581,5.));
#320=CARTESIAN_POINT('',(4.00000005960464,5.00000007450581,5.));
#321=CARTESIAN_POINT('',(5.00000007450581,5.00000007450581,2.5));
#322=CARTESIAN_POINT('',(4.00000005960464,5.00000007450581,2.5));
#323=CARTESIAN_POINT('',(5.00000007450581,5.00000007450581,5.));
#324=CARTESIAN_POINT('Origin',(5.00000007450581,7.50000011175871,5.));
#325=CARTESIAN_POINT('',(5.00000007450581,10.0000001117587,5.));
#326=CARTESIAN_POINT('',(5.00000007450581,5.00000007450581,5.));
#327=CARTESIAN_POINT('',(5.00000007450581,10.0000001117587,2.5));
#328=CARTESIAN_POINT('',(5.00000007450581,5.00000007450581,2.5));
#329=CARTESIAN_POINT('',(5.00000007450581,10.0000001117587,2.5));
#330=CARTESIAN_POINT('Origin',(4.50000006705523,6.25000009313226,2.5));
#331=CARTESIAN_POINT('',(4.00000005960464,10.0000001117587,2.5));
#332=CARTESIAN_POINT('',(4.00000005960464,6.3750000949949,2.5));
#333=CARTESIAN_POINT('',(4.25000006332994,10.0000001117587,2.5));
#334=CARTESIAN_POINT('Origin',(4.00000005960464,6.50000009685755,0.));
#335=CARTESIAN_POINT('',(4.00000005960464,9.00000009685755,0.));
#336=CARTESIAN_POINT('',(4.00000005960464,9.00000009685755,0.));
#337=CARTESIAN_POINT('',(4.00000005960464,10.0000001117587,0.));
#338=CARTESIAN_POINT('',(4.00000005960464,5.50000008195639,0.));
#339=CARTESIAN_POINT('',(4.00000005960464,10.0000001117587,0.));
#340=CARTESIAN_POINT('Origin',(4.00000005960464,10.0000001117587,0.));
#341=CARTESIAN_POINT('',(0.,10.0000001117587,0.));
#342=CARTESIAN_POINT('',(3.00000004470348,10.0000001117587,0.));
#343=CARTESIAN_POINT('',(0.,10.0000001117587,5.));
#344=CARTESIAN_POINT('',(0.,10.0000001117587,0.));
#345=CARTESIAN_POINT('',(3.00000004470348,10.0000001117587,5.));
#346=CARTESIAN_POINT('Origin',(2.5000000372529,9.00000009685755,0.));
#347=CARTESIAN_POINT('',(2.5000000372529,9.00000009685755,0.));
#348=CARTESIAN_POINT('',(2.25000003352761,9.00000009685755,0.));
#349=CARTESIAN_POINT('',(2.5000000372529,9.00000009685755,5.));
#350=CARTESIAN_POINT('',(2.25000003352761,9.00000009685755,5.));
#351=CARTESIAN_POINT('',(2.5000000372529,9.00000009685755,0.));
#352=CARTESIAN_POINT('Origin',(2.5000000372529,0.,0.));
#353=CARTESIAN_POINT('',(2.5000000372529,0.,0.));
#354=CARTESIAN_POINT('',(2.5000000372529,0.,0.));
#355=CARTESIAN_POINT('',(2.5000000372529,0.,5.));
#356=CARTESIAN_POINT('',(2.5000000372529,0.,5.));
#357=CARTESIAN_POINT('',(2.5000000372529,0.,0.));
#358=CARTESIAN_POINT('Origin',(0.,0.,0.));
#359=CARTESIAN_POINT('',(0.,0.,0.));
#360=CARTESIAN_POINT('',(0.,0.,0.));
#361=CARTESIAN_POINT('',(0.,0.,5.));
#362=CARTESIAN_POINT('',(0.,0.,5.));
#363=CARTESIAN_POINT('',(0.,0.,0.));
#364=CARTESIAN_POINT('Origin',(0.,7.50000011175871,0.));
#365=CARTESIAN_POINT('',(0.,7.50000011175871,0.));
#366=CARTESIAN_POINT('',(0.,7.50000011175871,5.));
#367=CARTESIAN_POINT('Origin',(2.00000002980232,3.75000005587935,5.));
#368=CARTESIAN_POINT('Origin',(2.00000002980232,3.75000005587935,0.));
#369=UNCERTAINTY_MEASURE_WITH_UNIT(LENGTH_MEASURE(0.01),#373,
'DISTANCE_ACCURACY_VALUE',
'Maximum model space distance between geometric entities at asserted c
onnectivities');
#370=UNCERTAINTY_MEASURE_WITH_UNIT(LENGTH_MEASURE(0.01),#373,
'DISTANCE_ACCURACY_VALUE',
'Maximum model space distance between geometric entities at asserted c
onnectivities');
#371=(
GEOMETRIC_REPRESENTATION_CONTEXT(3)
GLOBAL_UNCERTAINTY_ASSIGNED_CONTEXT((#369))
GLOBAL_UNIT_ASSIGNED_CONTEXT((#373,#375,#376))
REPRESENTATION_CONTEXT('','3D')
);
#372=(
GEOMETRIC_REPRESENTATION_CONTEXT(3)
GLOBAL_UNCERTAINTY_ASSIGNED_CONTEXT((#370))
GLOBAL_UNIT_ASSIGNED_CONTEXT((#373,#375,#376))
REPRESENTATION_CONTEXT('','3D')
);
#373=(
LENGTH_UNIT()
NAMED_UNIT(*)
SI_UNIT(.MILLI.,.METRE.)
);
#374=(
LENGTH_UNIT()
NAMED_UNIT(*)
SI_UNIT($,.METRE.)
);
#375=(
NAMED_UNIT(*)
PLANE_ANGLE_UNIT()
SI_UNIT($,.RADIAN.)
);
#376=(
NAMED_UNIT(*)
SI_UNIT($,.STERADIAN.)
SOLID_ANGLE_UNIT()
);
#377=SHAPE_DEFINITION_REPRESENTATION(#378,#379);
#378=PRODUCT_DEFINITION_SHAPE('',$,#381);
#379=SHAPE_REPRESENTATION('',(#240),#371);
#380=PRODUCT_DEFINITION_CONTEXT('part definition',#385,'design');
#381=PRODUCT_DEFINITION('(Nicht gespeichert)','(Nicht gespeichert)',#382,
#380);
#382=PRODUCT_DEFINITION_FORMATION('',$,#387);
#383=PRODUCT_RELATED_PRODUCT_CATEGORY('(Nicht gespeichert)',
'(Nicht gespeichert)',(#387));
#384=APPLICATION_PROTOCOL_DEFINITION('international standard',
'automotive_design',2009,#385);
#385=APPLICATION_CONTEXT(
'Core Data for Automotive Mechanical Design Process');
#386=PRODUCT_CONTEXT('part definition',#385,'mechanical');
#387=PRODUCT('(Nicht gespeichert)','(Nicht gespeichert)',$,(#386));
#388=PRESENTATION_STYLE_ASSIGNMENT((#390));
#389=PRESENTATION_STYLE_ASSIGNMENT((#391));
#390=SURFACE_STYLE_USAGE(.BOTH.,#392);
#391=SURFACE_STYLE_USAGE(.BOTH.,#393);
#392=SURFACE_SIDE_STYLE('',(#394));
#393=SURFACE_SIDE_STYLE('',(#395));
#394=SURFACE_STYLE_FILL_AREA(#396);
#395=SURFACE_STYLE_FILL_AREA(#397);
#396=FILL_AREA_STYLE('Stahl - satiniert',(#398));
#397=FILL_AREA_STYLE('Opaque(160,160,160)',(#399));
#398=FILL_AREA_STYLE_COLOUR('Stahl - satiniert',#400);
#399=FILL_AREA_STYLE_COLOUR('Opaque(160,160,160)',#401);
#400=COLOUR_RGB('Stahl - satiniert',0.627450980392157,0.627450980392157,
0.627450980392157);
#401=COLOUR_RGB('Opaque(160,160,160)',0.627450980392157,0.627450980392157,
0.627450980392157);
ENDSEC;
END-ISO-10303-21;
