# Exported by Open CASCADE Technology [dev.opencascade.org]
#  Vertices: 36
#     Faces: 20
# Authors: pythonocc
g SOLID
v 100.000000 0.000000 -100.000000
v 130.000000 0.000000 -75.000000
v 100.000000 20.000000 -100.000000
v 130.000000 20.000000 -75.000000
vn 0.640184 0.000000 -0.768221
vn 0.640184 0.000000 -0.768221
vn 0.640184 0.000000 -0.768221
vn 0.640184 0.000000 -0.768221
vt 39.051247 0.000000
vt 0.000000 0.000000
vt 39.051247 20.000000
vt 0.000000 20.000000
f 3/3/3 2/2/2 1/1/1
f 3/3/3 4/4/4 2/2/2
v 130.000000 0.000000 -75.000000
v 100.000000 0.000000 -50.000000
v 130.000000 20.000000 -75.000000
v 100.000000 20.000000 -50.000000
vn 0.640184 0.000000 0.768221
vn 0.640184 0.000000 0.768221
vn 0.640184 0.000000 0.768221
vn 0.640184 0.000000 0.768221
vt 39.051247 0.000000
vt 0.000000 0.000000
vt 39.051247 20.000000
vt 0.000000 20.000000
f 7/7/7 6/6/6 5/5/5
f 7/7/7 8/8/8 6/6/6
v 100.000000 0.000000 0.000000
v 100.000000 0.000000 -50.000000
v 100.000000 20.000000 -50.000000
v 100.000000 20.000000 0.000000
vn 1.000000 0.000000 0.000000
vn 1.000000 0.000000 0.000000
vn 1.000000 0.000000 0.000000
vn 1.000000 0.000000 0.000000
vt 0.000000 0.000000
vt 50.000000 0.000000
vt 50.000000 20.000000
vt 0.000000 20.000000
f 11/11/11 9/9/9 10/10/10
f 11/11/11 12/12/12 9/9/9
v 0.000000 0.000000 0.000000
v 100.000000 0.000000 0.000000
v 100.000000 20.000000 0.000000
v 0.000000 20.000000 0.000000
vn 0.000000 0.000000 1.000000
vn 0.000000 0.000000 1.000000
vn 0.000000 0.000000 1.000000
vn 0.000000 0.000000 1.000000
vt 0.000000 0.000000
vt 100.000000 0.000000
vt 100.000000 20.000000
vt 0.000000 20.000000
f 15/15/15 13/13/13 14/14/14
f 15/15/15 16/16/16 13/13/13
v 0.000000 0.000000 -100.000000
v 0.000000 0.000000 0.000000
v 0.000000 20.000000 0.000000
v 0.000000 20.000000 -100.000000
vn -1.000000 0.000000 0.000000
vn -1.000000 0.000000 0.000000
vn -1.000000 0.000000 0.000000
vn -1.000000 0.000000 0.000000
vt 0.000000 0.000000
vt 100.000000 0.000000
vt 100.000000 20.000000
vt 0.000000 20.000000
f 19/19/19 17/17/17 18/18/18
f 19/19/19 20/20/20 17/17/17
v 100.000000 0.000000 -100.000000
v 0.000000 0.000000 -100.000000
v 0.000000 20.000000 -100.000000
v 100.000000 20.000000 -100.000000
vn 0.000000 0.000000 -1.000000
vn 0.000000 0.000000 -1.000000
vn 0.000000 0.000000 -1.000000
vn 0.000000 0.000000 -1.000000
vt 0.000000 0.000000
vt 100.000000 0.000000
vt 100.000000 20.000000
vt 0.000000 20.000000
f 23/23/23 21/21/21 22/22/22
f 23/23/23 24/24/24 21/21/21
v 100.000000 20.000000 -100.000000
v 0.000000 20.000000 -100.000000
v 0.000000 20.000000 0.000000
v 100.000000 20.000000 0.000000
v 100.000000 20.000000 -50.000000
v 130.000000 20.000000 -75.000000
vn 0.000000 1.000000 0.000000
vn 0.000000 1.000000 0.000000
vn 0.000000 1.000000 0.000000
vn 0.000000 1.000000 0.000000
vn 0.000000 1.000000 0.000000
vn 0.000000 1.000000 0.000000
vt 35.000000 50.000000
vt -65.000000 50.000000
vt -65.000000 -50.000000
vt 35.000000 -50.000000
vt 35.000000 -0.000000
vt 65.000000 25.000000
f 29/29/29 26/26/26 27/27/27
f 29/29/29 27/27/27 28/28/28
f 25/25/25 26/26/26 29/29/29
f 30/30/30 25/25/25 29/29/29
v 0.000000 0.000000 -100.000000
v 0.000000 0.000000 0.000000
v 100.000000 0.000000 0.000000
v 100.000000 0.000000 -50.000000
v 130.000000 0.000000 -75.000000
v 100.000000 0.000000 -100.000000
vn 0.000000 -1.000000 0.000000
vn 0.000000 -1.000000 0.000000
vn 0.000000 -1.000000 0.000000
vn 0.000000 -1.000000 0.000000
vn 0.000000 -1.000000 0.000000
vn 0.000000 -1.000000 0.000000
vt -65.000000 50.000000
vt -65.000000 -50.000000
vt 35.000000 -50.000000
vt 35.000000 -0.000000
vt 65.000000 25.000000
vt 35.000000 50.000000
f 34/34/34 32/32/32 31/31/31
f 34/34/34 33/33/33 32/32/32
f 36/36/36 34/34/34 31/31/31
f 35/35/35 34/34/34 36/36/36
