# WaveFront *.obj file (generated by Autodesk ATF)

mtllib Cone.mtl

g Körper1

v 0.500000 0.000000 -0.000000
v 0.497261 0.052264 -0.000000
v 0.489074 0.103956 -0.000000
v 0.475528 0.154508 -0.000000
v 0.456773 0.203368 -0.000000
v 0.433013 0.250000 -0.000000
v 0.404508 0.293893 -0.000000
v 0.371572 0.334565 -0.000000
v 0.334565 0.371572 -0.000000
v 0.293893 0.404508 -0.000000
v 0.250000 0.433013 -0.000000
v 0.203368 0.456773 -0.000000
v 0.154508 0.475528 -0.000000
v 0.103956 0.489074 -0.000000
v 0.052264 0.497261 -0.000000
v 0.000000 0.500000 -0.000000
v -0.052264 0.497261 -0.000000
v -0.103956 0.489074 -0.000000
v -0.154508 0.475528 -0.000000
v -0.203368 0.456773 -0.000000
v -0.250000 0.433013 -0.000000
v -0.293893 0.404508 -0.000000
v -0.334565 0.371572 -0.000000
v -0.371572 0.334565 -0.000000
v -0.404508 0.293893 -0.000000
v -0.433013 0.250000 -0.000000
v -0.456773 0.203368 -0.000000
v -0.475528 0.154508 -0.000000
v -0.489074 0.103956 -0.000000
v -0.497261 0.052264 -0.000000
v -0.500000 0.000000 -0.000000
v -0.497261 -0.052264 -0.000000
v -0.489074 -0.103956 -0.000000
v -0.475528 -0.154508 -0.000000
v -0.456773 -0.203368 -0.000000
v -0.433013 -0.250000 -0.000000
v -0.404508 -0.293893 -0.000000
v -0.371572 -0.334565 -0.000000
v -0.334565 -0.371572 -0.000000
v -0.293893 -0.404508 -0.000000
v -0.250000 -0.433013 -0.000000
v -0.203368 -0.456773 -0.000000
v -0.154508 -0.475528 -0.000000
v -0.103956 -0.489074 -0.000000
v -0.052264 -0.497261 -0.000000
v -0.000000 -0.500000 -0.000000
v 0.052264 -0.497261 -0.000000
v 0.103956 -0.489074 -0.000000
v 0.154508 -0.475528 -0.000000
v 0.203368 -0.456773 -0.000000
v 0.250000 -0.433013 -0.000000
v 0.293893 -0.404508 -0.000000
v 0.334565 -0.371572 -0.000000
v 0.371572 -0.334565 -0.000000
v 0.404508 -0.293893 -0.000000
v 0.433013 -0.250000 -0.000000
v 0.456773 -0.203368 -0.000000
v 0.475528 -0.154508 -0.000000
v 0.489074 -0.103956 -0.000000
v 0.497261 -0.052264 -0.000000
v -0.000000 0.000000 1.000000
vt 0.000000 0.002618 0.000000
vt -0.111803 0.002618 0.000000
vt 0.000000 0.000000 0.000000
vt 0.000000 0.007854 0.000000
vt -0.111803 0.007854 0.000000
vt 0.000000 0.005236 0.000000
vt 0.000000 0.013090 0.000000
vt -0.111803 0.013090 0.000000
vt 0.000000 0.010472 0.000000
vt 0.000000 0.018326 0.000000
vt -0.111803 0.018326 0.000000
vt 0.000000 0.015708 0.000000
vt 0.000000 0.023562 0.000000
vt -0.111803 0.023562 0.000000
vt 0.000000 0.020944 0.000000
vt 0.000000 0.028798 0.000000
vt -0.111803 0.028798 0.000000
vt 0.000000 0.026180 0.000000
vt 0.000000 0.034034 0.000000
vt -0.111803 0.034034 0.000000
vt 0.000000 0.031416 0.000000
vt 0.000000 0.039270 0.000000
vt -0.111803 0.039270 0.000000
vt 0.000000 0.036652 0.000000
vt 0.000000 0.044506 0.000000
vt -0.111803 0.044506 0.000000
vt 0.000000 0.041888 0.000000
vt 0.000000 0.049742 0.000000
vt -0.111803 0.049742 0.000000
vt 0.000000 0.047124 0.000000
vt 0.000000 0.054978 0.000000
vt -0.111803 0.054978 0.000000
vt 0.000000 0.052360 0.000000
vt 0.000000 0.060214 0.000000
vt -0.111803 0.060214 0.000000
vt 0.000000 0.057596 0.000000
vt 0.000000 0.065450 0.000000
vt -0.111803 0.065450 0.000000
vt 0.000000 0.062832 0.000000
vt 0.000000 0.070686 0.000000
vt -0.111803 0.070686 0.000000
vt 0.000000 0.068068 0.000000
vt 0.000000 0.075922 0.000000
vt -0.111803 0.075922 0.000000
vt 0.000000 0.073304 0.000000
vt 0.000000 -0.075922 0.000000
vt -0.111803 -0.075922 0.000000
vt 0.000000 -0.078540 0.000000
vt 0.000000 -0.070686 0.000000
vt -0.111803 -0.070686 0.000000
vt 0.000000 -0.073304 0.000000
vt 0.000000 -0.065450 0.000000
vt -0.111803 -0.065450 0.000000
vt 0.000000 -0.068068 0.000000
vt 0.000000 -0.060214 0.000000
vt -0.111803 -0.060214 0.000000
vt 0.000000 -0.062832 0.000000
vt 0.000000 -0.054978 0.000000
vt -0.111803 -0.054978 0.000000
vt 0.000000 -0.057596 0.000000
vt 0.000000 -0.049742 0.000000
vt -0.111803 -0.049742 0.000000
vt 0.000000 -0.052360 0.000000
vt 0.000000 -0.044506 0.000000
vt -0.111803 -0.044506 0.000000
vt 0.000000 -0.047124 0.000000
vt 0.000000 -0.039270 0.000000
vt -0.111803 -0.039270 0.000000
vt 0.000000 -0.041888 0.000000
vt 0.000000 -0.034034 0.000000
vt -0.111803 -0.034034 0.000000
vt 0.000000 -0.036652 0.000000
vt 0.000000 -0.028798 0.000000
vt -0.111803 -0.028798 0.000000
vt 0.000000 -0.031416 0.000000
vt 0.000000 -0.023562 0.000000
vt -0.111803 -0.023562 0.000000
vt 0.000000 -0.026180 0.000000
vt 0.000000 -0.018326 0.000000
vt -0.111803 -0.018326 0.000000
vt 0.000000 -0.020944 0.000000
vt 0.000000 -0.013090 0.000000
vt -0.111803 -0.013090 0.000000
vt 0.000000 -0.015708 0.000000
vt 0.000000 -0.007854 0.000000
vt -0.111803 -0.007854 0.000000
vt 0.000000 -0.010472 0.000000
vt 0.000000 -0.002618 0.000000
vt -0.111803 -0.002618 0.000000
vt 0.000000 -0.005236 0.000000
vt 0.000000 0.078540 0.000000
vt -0.111803 0.078540 0.000000
vt -0.111803 0.026180 0.000000
vt -0.111803 -0.026180 0.000000
vt -0.111803 0.073304 0.000000
vt -0.111803 0.068068 0.000000
vt -0.111803 0.062832 0.000000
vt -0.111803 0.057596 0.000000
vt -0.111803 0.052360 0.000000
vt -0.111803 0.047124 0.000000
vt -0.111803 0.041888 0.000000
vt -0.111803 0.036652 0.000000
vt -0.111803 0.031416 0.000000
vt -0.111803 0.020944 0.000000
vt -0.111803 0.015708 0.000000
vt -0.111803 0.010472 0.000000
vt -0.111803 0.005236 0.000000
vt -0.111803 0.000000 0.000000
vt -0.111803 -0.005236 0.000000
vt -0.111803 -0.010472 0.000000
vt -0.111803 -0.015708 0.000000
vt -0.111803 -0.020944 0.000000
vt -0.111803 -0.031416 0.000000
vt -0.111803 -0.036652 0.000000
vt -0.111803 -0.041888 0.000000
vt -0.111803 -0.047124 0.000000
vt -0.111803 -0.052360 0.000000
vt -0.111803 -0.057596 0.000000
vt -0.111803 -0.062832 0.000000
vt -0.111803 -0.068068 0.000000
vt -0.111803 -0.073304 0.000000
vt 0.000274 -0.005226 0.000000
vt 0.099726 -0.005226 0.000000
vt 0.000000 0.000000 0.000000
vt 0.100000 0.000000 0.000000
vt 0.000274 0.005226 0.000000
vt 0.099726 0.005226 0.000000
vt 0.001093 0.010396 0.000000
vt 0.098907 0.010396 0.000000
vt 0.002447 0.015451 0.000000
vt 0.097553 0.015451 0.000000
vt 0.004323 0.020337 0.000000
vt 0.095677 0.020337 0.000000
vt 0.006699 0.025000 0.000000
vt 0.093301 0.025000 0.000000
vt 0.009549 0.029389 0.000000
vt 0.090451 0.029389 0.000000
vt 0.012843 0.033457 0.000000
vt 0.087157 0.033457 0.000000
vt 0.016543 0.037157 0.000000
vt 0.083457 0.037157 0.000000
vt 0.020611 0.040451 0.000000
vt 0.079389 0.040451 0.000000
vt 0.025000 0.043301 0.000000
vt 0.075000 0.043301 0.000000
vt 0.029663 0.045677 0.000000
vt 0.070337 0.045677 0.000000
vt 0.034549 0.047553 0.000000
vt 0.065451 0.047553 0.000000
vt 0.039604 0.048907 0.000000
vt 0.060396 0.048907 0.000000
vt 0.044774 0.049726 0.000000
vt 0.055226 0.049726 0.000000
vt 0.050000 0.050000 0.000000
vt 0.098907 -0.010396 0.000000
vt 0.001093 -0.010396 0.000000
vt 0.097553 -0.015451 0.000000
vt 0.002447 -0.015451 0.000000
vt 0.095677 -0.020337 0.000000
vt 0.004323 -0.020337 0.000000
vt 0.093301 -0.025000 0.000000
vt 0.006699 -0.025000 0.000000
vt 0.090451 -0.029389 0.000000
vt 0.009549 -0.029389 0.000000
vt 0.087157 -0.033457 0.000000
vt 0.012843 -0.033457 0.000000
vt 0.083457 -0.037157 0.000000
vt 0.016543 -0.037157 0.000000
vt 0.079389 -0.040451 0.000000
vt 0.020611 -0.040451 0.000000
vt 0.075000 -0.043301 0.000000
vt 0.025000 -0.043301 0.000000
vt 0.070337 -0.045677 0.000000
vt 0.029663 -0.045677 0.000000
vt 0.065451 -0.047553 0.000000
vt 0.034549 -0.047553 0.000000
vt 0.060396 -0.048907 0.000000
vt 0.039604 -0.048907 0.000000
vt 0.055226 -0.049726 0.000000
vt 0.044774 -0.049726 0.000000
vt 0.050000 -0.050000 0.000000
vn 0.088953 0.009349 0.044721
vn 0.088953 0.009349 0.044721
vn 0.089443 -0.000000 0.044721
vn 0.085065 0.027639 0.044721
vn 0.085065 0.027639 0.044721
vn 0.087488 0.018596 0.044721
vn 0.077460 0.044721 0.044721
vn 0.077460 0.044721 0.044721
vn 0.081710 0.036380 0.044721
vn 0.066469 0.059849 0.044721
vn 0.066469 0.059849 0.044721
vn 0.072361 0.052573 0.044721
vn 0.052573 0.072361 0.044721
vn 0.052573 0.072361 0.044721
vn 0.059849 0.066469 0.044721
vn 0.036380 0.081710 0.044721
vn 0.036380 0.081710 0.044721
vn 0.044721 0.077460 0.044721
vn 0.018596 0.087488 0.044721
vn 0.018596 0.087488 0.044721
vn 0.027639 0.085065 0.044721
vn 0.000000 0.089443 0.044721
vn 0.000000 0.089443 0.044721
vn 0.009349 0.088953 0.044721
vn -0.018596 0.087488 0.044721
vn -0.018596 0.087488 0.044721
vn -0.009349 0.088953 0.044721
vn -0.036380 0.081710 0.044721
vn -0.036380 0.081710 0.044721
vn -0.027639 0.085065 0.044721
vn -0.052573 0.072361 0.044721
vn -0.052573 0.072361 0.044721
vn -0.044721 0.077460 0.044721
vn -0.066469 0.059849 0.044721
vn -0.066469 0.059849 0.044721
vn -0.059849 0.066469 0.044721
vn -0.077460 0.044721 0.044721
vn -0.077460 0.044721 0.044721
vn -0.072361 0.052573 0.044721
vn -0.085065 0.027639 0.044721
vn -0.085065 0.027639 0.044721
vn -0.081710 0.036380 0.044721
vn -0.088953 0.009349 0.044721
vn -0.088953 0.009349 0.044721
vn -0.087488 0.018596 0.044721
vn -0.088953 -0.009349 0.044721
vn -0.088953 -0.009349 0.044721
vn -0.089443 -0.000000 0.044721
vn -0.085065 -0.027639 0.044721
vn -0.085065 -0.027639 0.044721
vn -0.087488 -0.018596 0.044721
vn -0.077460 -0.044721 0.044721
vn -0.077460 -0.044721 0.044721
vn -0.081710 -0.036380 0.044721
vn -0.066469 -0.059849 0.044721
vn -0.066469 -0.059849 0.044721
vn -0.072361 -0.052573 0.044721
vn -0.052573 -0.072361 0.044721
vn -0.052573 -0.072361 0.044721
vn -0.059849 -0.066469 0.044721
vn -0.036380 -0.081710 0.044721
vn -0.036380 -0.081710 0.044721
vn -0.044721 -0.077460 0.044721
vn -0.018596 -0.087488 0.044721
vn -0.018596 -0.087488 0.044721
vn -0.027639 -0.085065 0.044721
vn -0.000000 -0.089443 0.044721
vn 0.000000 -0.089443 0.044721
vn -0.009349 -0.088953 0.044721
vn 0.018596 -0.087488 0.044721
vn 0.018596 -0.087488 0.044721
vn 0.009349 -0.088953 0.044721
vn 0.036380 -0.081710 0.044721
vn 0.036380 -0.081710 0.044721
vn 0.027639 -0.085065 0.044721
vn 0.052573 -0.072361 0.044721
vn 0.052573 -0.072361 0.044721
vn 0.044721 -0.077460 0.044721
vn 0.066469 -0.059849 0.044721
vn 0.066469 -0.059849 0.044721
vn 0.059849 -0.066469 0.044721
vn 0.077460 -0.044721 0.044721
vn 0.077460 -0.044721 0.044721
vn 0.072361 -0.052573 0.044721
vn 0.085065 -0.027639 0.044721
vn 0.085065 -0.027639 0.044721
vn 0.081710 -0.036380 0.044721
vn 0.088953 -0.009349 0.044721
vn 0.088953 -0.009349 0.044721
vn 0.087488 -0.018596 0.044721
vn -0.089443 0.000000 0.044721
vn 0.044721 0.077460 0.044721
vn 0.044721 -0.077460 0.044721
vn -0.087488 0.018596 0.044721
vn -0.081710 0.036380 0.044721
vn -0.072361 0.052573 0.044721
vn -0.059849 0.066469 0.044721
vn -0.044721 0.077460 0.044721
vn -0.027639 0.085065 0.044721
vn -0.009349 0.088953 0.044721
vn 0.009349 0.088953 0.044721
vn 0.027639 0.085065 0.044721
vn 0.059849 0.066469 0.044721
vn 0.072361 0.052573 0.044721
vn 0.081710 0.036380 0.044721
vn 0.087488 0.018596 0.044721
vn 0.089443 0.000000 0.044721
vn 0.087488 -0.018596 0.044721
vn 0.081710 -0.036380 0.044721
vn 0.072361 -0.052573 0.044721
vn 0.059849 -0.066469 0.044721
vn 0.027639 -0.085065 0.044721
vn 0.009349 -0.088953 0.044721
vn -0.009349 -0.088953 0.044721
vn -0.027639 -0.085065 0.044721
vn -0.044721 -0.077460 0.044721
vn -0.059849 -0.066469 0.044721
vn -0.072361 -0.052573 0.044721
vn -0.081710 -0.036380 0.044721
vn -0.087488 -0.018596 0.044721
vn 0.000000 0.000000 -0.100000
vn 0.000000 0.000000 -0.100000
vn 0.000000 0.000000 -0.100000
vn 0.000000 0.000000 -0.100000
vn 0.000000 0.000000 -0.100000
vn 0.000000 0.000000 -0.100000
vn 0.000000 0.000000 -0.100000
vn 0.000000 0.000000 -0.100000
vn 0.000000 0.000000 -0.100000
vn 0.000000 0.000000 -0.100000
vn 0.000000 0.000000 -0.100000
vn 0.000000 0.000000 -0.100000
vn 0.000000 0.000000 -0.100000
vn 0.000000 0.000000 -0.100000
vn 0.000000 0.000000 -0.100000
vn 0.000000 0.000000 -0.100000
vn 0.000000 0.000000 -0.100000
vn 0.000000 0.000000 -0.100000
vn 0.000000 0.000000 -0.100000
vn 0.000000 0.000000 -0.100000
vn 0.000000 0.000000 -0.100000
vn 0.000000 0.000000 -0.100000
vn 0.000000 0.000000 -0.100000
vn 0.000000 0.000000 -0.100000
vn 0.000000 0.000000 -0.100000
vn 0.000000 0.000000 -0.100000
vn 0.000000 0.000000 -0.100000
vn 0.000000 0.000000 -0.100000
vn 0.000000 0.000000 -0.100000
vn 0.000000 0.000000 -0.100000
vn 0.000000 0.000000 -0.100000
vn 0.000000 0.000000 -0.100000
vn 0.000000 0.000000 -0.100000
vn 0.000000 0.000000 -0.100000
vn 0.000000 0.000000 -0.100000
vn 0.000000 0.000000 -0.100000
vn 0.000000 0.000000 -0.100000
vn 0.000000 0.000000 -0.100000
vn 0.000000 0.000000 -0.100000
vn 0.000000 0.000000 -0.100000
vn 0.000000 0.000000 -0.100000
vn 0.000000 0.000000 -0.100000
vn 0.000000 0.000000 -0.100000
vn 0.000000 0.000000 -0.100000
vn 0.000000 0.000000 -0.100000
vn 0.000000 0.000000 -0.100000
vn 0.000000 0.000000 -0.100000
vn 0.000000 0.000000 -0.100000
vn 0.000000 0.000000 -0.100000
vn 0.000000 0.000000 -0.100000
vn 0.000000 0.000000 -0.100000
vn 0.000000 0.000000 -0.100000
vn 0.000000 0.000000 -0.100000
vn 0.000000 0.000000 -0.100000
vn 0.000000 0.000000 -0.100000
vn 0.000000 0.000000 -0.100000
vn 0.000000 0.000000 -0.100000
vn 0.000000 0.000000 -0.100000
vn 0.000000 0.000000 -0.100000
vn 0.000000 0.000000 -0.100000
usemtl Stahl_-_satiniert
f 2/1/1 61/2/2 1/3/3
f 4/4/4 61/5/5 3/6/6
f 6/7/7 61/8/8 5/9/9
f 8/10/10 61/11/11 7/12/12
f 10/13/13 61/14/14 9/15/15
f 12/16/16 61/17/17 11/18/18
f 14/19/19 61/20/20 13/21/21
f 16/22/22 61/23/23 15/24/24
f 18/25/25 61/26/26 17/27/27
f 20/28/28 61/29/29 19/30/30
f 22/31/31 61/32/32 21/33/33
f 24/34/34 61/35/35 23/36/36
f 26/37/37 61/38/38 25/39/39
f 28/40/40 61/41/41 27/42/42
f 30/43/43 61/44/44 29/45/45
f 32/46/46 61/47/47 31/48/48
f 34/49/49 61/50/50 33/51/51
f 36/52/52 61/53/53 35/54/54
f 38/55/55 61/56/56 37/57/57
f 40/58/58 61/59/59 39/60/60
f 42/61/61 61/62/62 41/63/63
f 44/64/64 61/65/65 43/66/66
f 46/67/67 61/68/68 45/69/69
f 48/70/70 61/71/71 47/72/72
f 50/73/73 61/74/74 49/75/75
f 52/76/76 61/77/77 51/78/78
f 54/79/79 61/80/80 53/81/81
f 56/82/82 61/83/83 55/84/84
f 58/85/85 61/86/86 57/87/87
f 60/88/88 61/89/89 59/90/90
f 31/91/48 61/92/91 30/43/43
f 11/18/18 61/93/92 10/13/13
f 51/78/78 61/94/93 50/73/73
f 29/45/45 61/95/94 28/40/40
f 27/42/42 61/96/95 26/37/37
f 25/39/39 61/97/96 24/34/34
f 23/36/36 61/98/97 22/31/31
f 21/33/33 61/99/98 20/28/28
f 19/30/30 61/100/99 18/25/25
f 17/27/27 61/101/100 16/22/22
f 15/24/24 61/102/101 14/19/19
f 13/21/21 61/103/102 12/16/16
f 9/15/15 61/104/103 8/10/10
f 7/12/12 61/105/104 6/7/7
f 5/9/9 61/106/105 4/4/4
f 3/6/6 61/107/106 2/1/1
f 1/3/3 61/108/107 60/88/88
f 59/90/90 61/109/108 58/85/85
f 57/87/87 61/110/109 56/82/82
f 55/84/84 61/111/110 54/79/79
f 53/81/81 61/112/111 52/76/76
f 49/75/75 61/113/112 48/70/70
f 47/72/72 61/114/113 46/67/67
f 45/69/69 61/115/114 44/64/64
f 43/66/66 61/116/115 42/61/61
f 41/63/63 61/117/116 40/58/58
f 39/60/60 61/118/117 38/55/55
f 37/57/57 61/119/118 36/52/52
f 35/54/54 61/120/119 34/49/49
f 33/51/51 61/121/120 32/46/46
f 60/122/121 32/123/122 1/124/123
f 1/124/123 32/123/122 31/125/124
f 1/124/123 31/125/124 2/126/125
f 2/126/125 31/125/124 30/127/126
f 2/126/125 30/127/126 3/128/127
f 3/128/127 30/127/126 29/129/128
f 3/128/127 29/129/128 4/130/129
f 4/130/129 29/129/128 28/131/130
f 4/130/129 28/131/130 5/132/131
f 5/132/131 28/131/130 27/133/132
f 5/132/131 27/133/132 6/134/133
f 6/134/133 27/133/132 26/135/134
f 6/134/133 26/135/134 7/136/135
f 7/136/135 26/135/134 25/137/136
f 7/136/135 25/137/136 8/138/137
f 8/138/137 25/137/136 24/139/138
f 8/138/137 24/139/138 9/140/139
f 9/140/139 24/139/138 23/141/140
f 9/140/139 23/141/140 10/142/141
f 10/142/141 23/141/140 22/143/142
f 10/142/141 22/143/142 11/144/143
f 11/144/143 22/143/142 21/145/144
f 11/144/143 21/145/144 12/146/145
f 12/146/145 21/145/144 20/147/146
f 12/146/145 20/147/146 13/148/147
f 13/148/147 20/147/146 19/149/148
f 13/148/147 19/149/148 14/150/149
f 14/150/149 19/149/148 18/151/150
f 14/150/149 18/151/150 15/152/151
f 15/152/151 18/151/150 17/153/152
f 15/152/151 17/153/152 16/154/153
f 32/123/122 60/122/121 33/155/154
f 33/155/154 60/122/121 59/156/155
f 33/155/154 59/156/155 34/157/156
f 34/157/156 59/156/155 58/158/157
f 34/157/156 58/158/157 35/159/158
f 35/159/158 58/158/157 57/160/159
f 35/159/158 57/160/159 36/161/160
f 36/161/160 57/160/159 56/162/161
f 36/161/160 56/162/161 37/163/162
f 37/163/162 56/162/161 55/164/163
f 37/163/162 55/164/163 38/165/164
f 38/165/164 55/164/163 54/166/165
f 38/165/164 54/166/165 39/167/166
f 39/167/166 54/166/165 53/168/167
f 39/167/166 53/168/167 40/169/168
f 40/169/168 53/168/167 52/170/169
f 40/169/168 52/170/169 41/171/170
f 41/171/170 52/170/169 51/172/171
f 41/171/170 51/172/171 42/173/172
f 42/173/172 51/172/171 50/174/173
f 42/173/172 50/174/173 43/175/174
f 43/175/174 50/174/173 49/176/175
f 43/175/174 49/176/175 44/177/176
f 44/177/176 49/176/175 48/178/177
f 44/177/176 48/178/177 45/179/178
f 45/179/178 48/178/177 47/180/179
f 45/179/178 47/180/179 46/181/180
# 61 vertices
# 181 texture params
# 180 normals
# 118 facets

# 1 groups
