ISO-10303-21;
HEADER;
/* Generated by software containing ST-Developer
 * from STEP Tools, Inc. (www.steptools.com) 
 */

FILE_DESCRIPTION(
/* description */ (''),
/* implementation_level */ '2;1');

FILE_NAME(
/* name */ 'MA Unseen Object.step',
/* time_stamp */ '2024-01-24T13:01:52+01:00',
/* author */ (''),
/* organization */ (''),
/* preprocessor_version */ 'ST-DEVELOPER v20',
/* originating_system */ 'Autodesk Translation Framework v12.14.0.127',

/* authorisation */ '');

FILE_SCHEMA (('AUTOMOTIVE_DESIGN { 1 0 10303 214 3 1 1 }'));
ENDSEC;

DATA;
#10=MECHANICAL_DESIGN_GEOMETRIC_PRESENTATION_REPRESENTATION('',(#13),#1061);
#11=SHAPE_REPRESENTATION_RELATIONSHIP('SRR','None',#1068,#12);
#12=ADVANCED_BREP_SHAPE_REPRESENTATION('',(#14),#1060);
#13=STYLED_ITEM('',(#1077),#14);
#14=MANIFOLD_SOLID_BREP('K\X\F6rper1',#80);
#15=CIRCLE('',#96,53.1738468369);
#16=CIRCLE('',#97,62.5);
#17=CONICAL_SURFACE('',#95,62.5,0.436332312998582);
#18=LINE('',#1049,#21);
#19=LINE('',#1051,#22);
#20=LINE('',#1052,#23);
#21=VECTOR('',#104,10.);
#22=VECTOR('',#105,10.);
#23=VECTOR('',#106,10.);
#24=PLANE('',#94);
#25=PLANE('',#98);
#26=PLANE('',#99);
#27=FACE_OUTER_BOUND('',#32,.T.);
#28=FACE_OUTER_BOUND('',#33,.T.);
#29=FACE_OUTER_BOUND('',#34,.T.);
#30=FACE_OUTER_BOUND('',#35,.T.);
#31=FACE_OUTER_BOUND('',#36,.T.);
#32=EDGE_LOOP('',(#56,#57,#58,#59));
#33=EDGE_LOOP('',(#60,#61,#62,#63));
#34=EDGE_LOOP('',(#64,#65,#66,#67));
#35=EDGE_LOOP('',(#68,#69,#70));
#36=EDGE_LOOP('',(#71,#72,#73));
#37=(
BOUNDED_CURVE()
B_SPLINE_CURVE(5,(#980,#981,#982,#983,#984,#985,#986,#987,#988,#989,#990,
#991,#992,#993,#994,#995,#996,#997,#998,#999,#1000,#1001,#1002,#1003,#1004,
#1005,#1006,#1007,#1008,#1009),.UNSPECIFIED.,.F.,.F.)
B_SPLINE_CURVE_WITH_KNOTS((6,1,1,1,1,1,1,1,1,1,1,1,1,1,1,1,1,1,1,1,1,1,
1,1,1,6),(0.,0.04,0.08,0.12,0.16,0.2,0.24,0.28,0.32,0.36,0.4,0.44,0.48,
0.52,0.56,0.6,0.64,0.68,0.72,0.76,0.8,0.84,0.88,0.92,0.96,1.),
 .UNSPECIFIED.)
CURVE()
GEOMETRIC_REPRESENTATION_ITEM()
RATIONAL_B_SPLINE_CURVE((1.,1.,1.,1.,1.,1.,1.,1.,1.,1.,1.,1.,1.,1.,1.,1.,
1.,1.,1.,1.,1.,1.,1.,1.,1.,1.,1.,1.,1.,1.))
REPRESENTATION_ITEM('')
);
#38=B_SPLINE_CURVE_WITH_KNOTS('',3,(#722,#723,#724,#725,#726,#727,#728,
#729,#730,#731,#732,#733,#734,#735,#736,#737,#738,#739,#740,#741,#742,#743,
#744,#745,#746,#747,#748,#749,#750,#751,#752,#753,#754,#755,#756,#757,#758,
#759,#760,#761,#762,#763,#764,#765,#766,#767,#768,#769,#770,#771,#772,#773,
#774,#775,#776,#777,#778,#779,#780,#781,#782,#783,#784,#785,#786,#787,#788,
#789,#790,#791,#792,#793,#794,#795,#796,#797,#798,#799,#800,#801,#802,#803,
#804,#805,#806,#807,#808,#809,#810,#811,#812,#813,#814,#815,#816,#817,#818,
#819,#820,#821,#822,#823,#824,#825,#826,#827,#828,#829,#830,#831,#832,#833,
#834,#835,#836,#837,#838,#839,#840,#841,#842,#843,#844,#845,#846,#847,#848,
#849,#850,#851,#852,#853,#854,#855,#856,#857,#858,#859,#860,#861,#862,#863,
#864,#865,#866,#867,#868,#869,#870,#871,#872,#873,#874,#875,#876,#877,#878,
#879,#880,#881,#882,#883,#884,#885,#886,#887,#888,#889,#890,#891,#892,#893,
#894,#895,#896,#897,#898,#899,#900,#901,#902,#903,#904,#905,#906,#907,#908,
#909,#910,#911,#912,#913,#914,#915,#916,#917,#918,#919,#920,#921,#922,#923,
#924,#925,#926,#927,#928,#929,#930,#931,#932,#933,#934,#935,#936,#937,#938,
#939,#940,#941,#942,#943,#944,#945,#946,#947,#948,#949,#950,#951,#952,#953,
#954,#955,#956,#957,#958,#959,#960,#961,#962,#963,#964,#965,#966,#967,#968,
#969,#970,#971),.UNSPECIFIED.,.F.,.F.,(4,3,3,3,3,3,3,3,3,3,3,3,3,3,3,3,
3,3,3,3,3,3,3,3,3,3,3,3,3,3,3,3,3,3,3,3,3,3,3,3,3,3,3,3,3,3,3,3,3,3,3,3,
3,3,3,3,3,3,3,3,3,3,3,3,3,3,3,3,3,3,3,3,3,3,3,3,3,3,3,3,3,3,3,4),(0.0176070604669127,
0.0178571428571424,0.0357142857142853,0.0535714285714282,0.0624999999999996,
0.071428571428571,0.0803571428571425,0.0892857142857139,0.0982142857142854,
0.107142857142857,0.116071428571428,0.125,0.133928571428571,0.138392857142857,
0.142857142857143,0.15079365079365,0.158730158730158,0.174603174603174,
0.19047619047619,0.208333333333333,0.226190476190476,0.238095238095238,
0.25,0.261904761904762,0.273809523809524,0.285714285714286,0.297619047619047,
0.309523809523809,0.321428571428571,0.333333333333333,0.357142857142857,
0.380952380952381,0.396825396825397,0.412698412698413,0.42063492063492,
0.428571428571428,0.432539682539682,0.444444444444444,0.452380952380952,
0.46031746031746,0.468253968253968,0.476190476190476,0.482142857142857,
0.488095238095238,0.494047619047619,0.5,0.511904761904762,0.523809523809524,
0.535714285714286,0.547619047619047,0.559523809523809,0.571428571428571,
0.595238095238095,0.619047619047619,0.642857142857143,0.666666666666666,
0.698412698412698,0.714285714285714,0.738095238095238,0.761904761904762,
0.785714285714286,0.797619047619048,0.809523809523809,0.825396825396825,
0.841269841269841,0.849206349206349,0.857142857142857,0.866071428571428,
0.875,0.883928571428571,0.892857142857143,0.897321428571428,0.901785714285714,
0.90625,0.910714285714286,0.919642857142857,0.924107142857143,0.928571428571429,
0.9375,0.946428571428571,0.955357142857143,0.964285714285714,0.982142857142857,
0.992872698584789),.UNSPECIFIED.);
#39=B_SPLINE_CURVE_WITH_KNOTS('',3,(#973,#974,#975,#976,#977,#978),
 .UNSPECIFIED.,.F.,.F.,(4,2,4),(-2.23623807312341,-1.11822935148516,0.),
 .UNSPECIFIED.);
#40=B_SPLINE_CURVE_WITH_KNOTS('',3,(#1010,#1011,#1012,#1013,#1014,#1015,
#1016,#1017,#1018,#1019,#1020,#1021,#1022,#1023,#1024,#1025,#1026,#1027,
#1028,#1029,#1030,#1031,#1032,#1033,#1034,#1035,#1036,#1037,#1038,#1039,
#1040,#1041,#1042,#1043,#1044,#1045,#1046),.UNSPECIFIED.,.F.,.F.,(4,3,3,
3,3,3,3,3,3,3,3,3,4),(0.,0.268706243557008,0.528891892627252,0.784347054501166,
1.03313698073089,1.13310081072228,1.29591137400477,1.50097292345772,1.70250315382775,
1.89914026208966,1.94609736335523,2.10940358103617,2.27333027535184),
 .UNSPECIFIED.);
#41=VERTEX_POINT('',#720);
#42=VERTEX_POINT('',#721);
#43=VERTEX_POINT('',#972);
#44=VERTEX_POINT('',#979);
#45=VERTEX_POINT('',#1048);
#46=VERTEX_POINT('',#1050);
#47=EDGE_CURVE('',#41,#42,#38,.T.);
#48=EDGE_CURVE('',#43,#42,#39,.T.);
#49=EDGE_CURVE('',#44,#43,#37,.T.);
#50=EDGE_CURVE('',#44,#41,#40,.T.);
#51=EDGE_CURVE('',#42,#45,#18,.T.);
#52=EDGE_CURVE('',#46,#45,#19,.T.);
#53=EDGE_CURVE('',#43,#46,#20,.T.);
#54=EDGE_CURVE('',#45,#41,#15,.T.);
#55=EDGE_CURVE('',#44,#46,#16,.T.);
#56=ORIENTED_EDGE('',*,*,#47,.T.);
#57=ORIENTED_EDGE('',*,*,#48,.F.);
#58=ORIENTED_EDGE('',*,*,#49,.F.);
#59=ORIENTED_EDGE('',*,*,#50,.T.);
#60=ORIENTED_EDGE('',*,*,#51,.T.);
#61=ORIENTED_EDGE('',*,*,#52,.F.);
#62=ORIENTED_EDGE('',*,*,#53,.F.);
#63=ORIENTED_EDGE('',*,*,#48,.T.);
#64=ORIENTED_EDGE('',*,*,#54,.T.);
#65=ORIENTED_EDGE('',*,*,#50,.F.);
#66=ORIENTED_EDGE('',*,*,#55,.T.);
#67=ORIENTED_EDGE('',*,*,#52,.T.);
#68=ORIENTED_EDGE('',*,*,#47,.F.);
#69=ORIENTED_EDGE('',*,*,#54,.F.);
#70=ORIENTED_EDGE('',*,*,#51,.F.);
#71=ORIENTED_EDGE('',*,*,#55,.F.);
#72=ORIENTED_EDGE('',*,*,#49,.T.);
#73=ORIENTED_EDGE('',*,*,#53,.T.);
#74=B_SPLINE_SURFACE_WITH_KNOTS('',3,3,((#118,#119,#120,#121,#122,#123,
#124),(#125,#126,#127,#128,#129,#130,#131),(#132,#133,#134,#135,#136,#137,
#138),(#139,#140,#141,#142,#143,#144,#145),(#146,#147,#148,#149,#150,#151,
#152),(#153,#154,#155,#156,#157,#158,#159),(#160,#161,#162,#163,#164,#165,
#166),(#167,#168,#169,#170,#171,#172,#173),(#174,#175,#176,#177,#178,#179,
#180),(#181,#182,#183,#184,#185,#186,#187),(#188,#189,#190,#191,#192,#193,
#194),(#195,#196,#197,#198,#199,#200,#201),(#202,#203,#204,#205,#206,#207,
#208),(#209,#210,#211,#212,#213,#214,#215),(#216,#217,#218,#219,#220,#221,
#222),(#223,#224,#225,#226,#227,#228,#229),(#230,#231,#232,#233,#234,#235,
#236),(#237,#238,#239,#240,#241,#242,#243),(#244,#245,#246,#247,#248,#249,
#250),(#251,#252,#253,#254,#255,#256,#257),(#258,#259,#260,#261,#262,#263,
#264),(#265,#266,#267,#268,#269,#270,#271),(#272,#273,#274,#275,#276,#277,
#278),(#279,#280,#281,#282,#283,#284,#285),(#286,#287,#288,#289,#290,#291,
#292),(#293,#294,#295,#296,#297,#298,#299),(#300,#301,#302,#303,#304,#305,
#306),(#307,#308,#309,#310,#311,#312,#313),(#314,#315,#316,#317,#318,#319,
#320),(#321,#322,#323,#324,#325,#326,#327),(#328,#329,#330,#331,#332,#333,
#334),(#335,#336,#337,#338,#339,#340,#341),(#342,#343,#344,#345,#346,#347,
#348),(#349,#350,#351,#352,#353,#354,#355),(#356,#357,#358,#359,#360,#361,
#362),(#363,#364,#365,#366,#367,#368,#369),(#370,#371,#372,#373,#374,#375,
#376),(#377,#378,#379,#380,#381,#382,#383),(#384,#385,#386,#387,#388,#389,
#390),(#391,#392,#393,#394,#395,#396,#397),(#398,#399,#400,#401,#402,#403,
#404),(#405,#406,#407,#408,#409,#410,#411),(#412,#413,#414,#415,#416,#417,
#418),(#419,#420,#421,#422,#423,#424,#425),(#426,#427,#428,#429,#430,#431,
#432),(#433,#434,#435,#436,#437,#438,#439),(#440,#441,#442,#443,#444,#445,
#446),(#447,#448,#449,#450,#451,#452,#453),(#454,#455,#456,#457,#458,#459,
#460),(#461,#462,#463,#464,#465,#466,#467),(#468,#469,#470,#471,#472,#473,
#474),(#475,#476,#477,#478,#479,#480,#481),(#482,#483,#484,#485,#486,#487,
#488),(#489,#490,#491,#492,#493,#494,#495),(#496,#497,#498,#499,#500,#501,
#502),(#503,#504,#505,#506,#507,#508,#509),(#510,#511,#512,#513,#514,#515,
#516),(#517,#518,#519,#520,#521,#522,#523),(#524,#525,#526,#527,#528,#529,
#530),(#531,#532,#533,#534,#535,#536,#537),(#538,#539,#540,#541,#542,#543,
#544),(#545,#546,#547,#548,#549,#550,#551),(#552,#553,#554,#555,#556,#557,
#558),(#559,#560,#561,#562,#563,#564,#565),(#566,#567,#568,#569,#570,#571,
#572),(#573,#574,#575,#576,#577,#578,#579),(#580,#581,#582,#583,#584,#585,
#586),(#587,#588,#589,#590,#591,#592,#593),(#594,#595,#596,#597,#598,#599,
#600),(#601,#602,#603,#604,#605,#606,#607),(#608,#609,#610,#611,#612,#613,
#614),(#615,#616,#617,#618,#619,#620,#621),(#622,#623,#624,#625,#626,#627,
#628),(#629,#630,#631,#632,#633,#634,#635),(#636,#637,#638,#639,#640,#641,
#642),(#643,#644,#645,#646,#647,#648,#649),(#650,#651,#652,#653,#654,#655,
#656),(#657,#658,#659,#660,#661,#662,#663),(#664,#665,#666,#667,#668,#669,
#670),(#671,#672,#673,#674,#675,#676,#677),(#678,#679,#680,#681,#682,#683,
#684),(#685,#686,#687,#688,#689,#690,#691),(#692,#693,#694,#695,#696,#697,
#698),(#699,#700,#701,#702,#703,#704,#705),(#706,#707,#708,#709,#710,#711,
#712),(#713,#714,#715,#716,#717,#718,#719)),.UNSPECIFIED.,.F.,.F.,.F.,(4,
1,1,1,1,1,1,1,1,1,1,1,1,1,1,1,1,1,1,1,1,1,1,1,1,1,1,1,1,1,1,1,1,1,1,1,1,
1,1,1,1,1,1,1,1,1,1,1,1,1,1,1,1,1,1,1,1,1,1,1,1,1,1,1,1,1,1,1,1,1,1,1,1,
1,1,1,1,1,1,1,1,1,1,4),(4,1,1,1,4),(-1.,-0.982142857142857,-0.964285714285714,
-0.955357142857143,-0.946428571428571,-0.9375,-0.928571428571429,-0.924107142857143,
-0.919642857142857,-0.910714285714286,-0.90625,-0.901785714285714,-0.897321428571429,
-0.892857142857143,-0.883928571428571,-0.875,-0.866071428571429,-0.857142857142857,
-0.849206349206349,-0.841269841269841,-0.825396825396825,-0.80952380952381,
-0.797619047619048,-0.785714285714286,-0.761904761904762,-0.738095238095238,
-0.714285714285714,-0.698412698412698,-0.666666666666667,-0.642857142857143,
-0.619047619047619,-0.595238095238095,-0.571428571428571,-0.55952380952381,
-0.547619047619048,-0.535714285714286,-0.523809523809524,-0.511904761904762,
-0.5,-0.494047619047619,-0.488095238095238,-0.482142857142857,-0.476190476190476,
-0.468253968253968,-0.46031746031746,-0.452380952380952,-0.444444444444444,
-0.432539682539683,-0.428571428571429,-0.420634920634921,-0.412698412698413,
-0.396825396825397,-0.380952380952381,-0.357142857142857,-0.333333333333333,
-0.321428571428572,-0.30952380952381,-0.297619047619048,-0.285714285714286,
-0.273809523809524,-0.261904761904762,-0.25,-0.238095238095238,-0.226190476190476,
-0.208333333333333,-0.190476190476191,-0.174603174603175,-0.158730158730159,
-0.150793650793651,-0.142857142857143,-0.138392857142857,-0.133928571428571,
-0.125,-0.116071428571429,-0.107142857142857,-0.0982142857142858,-0.0892857142857143,
-0.0803571428571429,-0.0714285714285715,-0.0625,-0.0535714285714286,-0.0357142857142857,
-0.0178571428571429,0.),(0.,1.14285714285714,1.71428571428571,1.85714285714286,
2.),.UNSPECIFIED.);
#75=ADVANCED_FACE('',(#27),#74,.T.);
#76=ADVANCED_FACE('',(#28),#24,.T.);
#77=ADVANCED_FACE('',(#29),#17,.T.);
#78=ADVANCED_FACE('',(#30),#25,.T.);
#79=ADVANCED_FACE('',(#31),#26,.F.);
#80=CLOSED_SHELL('',(#75,#76,#77,#78,#79));
#81=DERIVED_UNIT_ELEMENT(#83,1.);
#82=DERIVED_UNIT_ELEMENT(#1063,-3.);
#83=(
MASS_UNIT()
NAMED_UNIT(*)
SI_UNIT(.KILO.,.GRAM.)
);
#84=DERIVED_UNIT((#81,#82));
#85=MEASURE_REPRESENTATION_ITEM('density measure',
POSITIVE_RATIO_MEASURE(7850.),#84);
#86=PROPERTY_DEFINITION_REPRESENTATION(#91,#88);
#87=PROPERTY_DEFINITION_REPRESENTATION(#92,#89);
#88=REPRESENTATION('material name',(#90),#1060);
#89=REPRESENTATION('density',(#85),#1060);
#90=DESCRIPTIVE_REPRESENTATION_ITEM('Stahl','Stahl');
#91=PROPERTY_DEFINITION('material property','material name',#1070);
#92=PROPERTY_DEFINITION('material property','density of part',#1070);
#93=AXIS2_PLACEMENT_3D('',#117,#100,#101);
#94=AXIS2_PLACEMENT_3D('',#1047,#102,#103);
#95=AXIS2_PLACEMENT_3D('',#1053,#107,#108);
#96=AXIS2_PLACEMENT_3D('',#1054,#109,#110);
#97=AXIS2_PLACEMENT_3D('',#1055,#111,#112);
#98=AXIS2_PLACEMENT_3D('',#1056,#113,#114);
#99=AXIS2_PLACEMENT_3D('',#1057,#115,#116);
#100=DIRECTION('axis',(0.,0.,1.));
#101=DIRECTION('refdir',(1.,0.,0.));
#102=DIRECTION('center_axis',(-0.90630778703665,0.,0.422618261740699));
#103=DIRECTION('ref_axis',(0.,-1.,0.));
#104=DIRECTION('',(0.,1.,0.));
#105=DIRECTION('',(0.422618261740699,-8.04963018052129E-16,0.90630778703665));
#106=DIRECTION('',(0.,1.,0.));
#107=DIRECTION('center_axis',(0.,0.,-1.));
#108=DIRECTION('ref_axis',(0.447213595499958,0.894427190999916,0.));
#109=DIRECTION('center_axis',(0.,0.,-1.));
#110=DIRECTION('ref_axis',(0.6,-0.8,0.));
#111=DIRECTION('center_axis',(0.,0.,1.));
#112=DIRECTION('ref_axis',(0.6,-0.8,0.));
#113=DIRECTION('center_axis',(0.,0.,1.));
#114=DIRECTION('ref_axis',(1.,0.,0.));
#115=DIRECTION('center_axis',(0.,0.,1.));
#116=DIRECTION('ref_axis',(1.,0.,0.));
#117=CARTESIAN_POINT('',(0.,0.,0.));
#118=CARTESIAN_POINT('Ctrl Pts',(0.,0.,0.));
#119=CARTESIAN_POINT('Ctrl Pts',(1.29625896584595,1.21463806555783,3.80952380952381));
#120=CARTESIAN_POINT('Ctrl Pts',(3.24064741461487,3.03659516389458,9.52380952380953));
#121=CARTESIAN_POINT('Ctrl Pts',(5.34706823411454,5.01038202042605,15.7142857142857));
#122=CARTESIAN_POINT('Ctrl Pts',(6.319262458499,5.92136056959442,18.5714285714286));
#123=CARTESIAN_POINT('Ctrl Pts',(6.64332719996049,6.22502008598388,19.5238095238095));
#124=CARTESIAN_POINT('Ctrl Pts',(6.80535957069123,6.37684984417861,20.));
#125=CARTESIAN_POINT('Ctrl Pts',(2.29424066394968,-2.44840838994071,0.));
#126=CARTESIAN_POINT('Ctrl Pts',(3.56389930228616,-1.20528858651309,3.8095238095238));
#127=CARTESIAN_POINT('Ctrl Pts',(5.46825338661708,0.659175647964133,9.52380952380953));
#128=CARTESIAN_POINT('Ctrl Pts',(7.53141823261815,2.67919633286131,15.7142857142857));
#129=CARTESIAN_POINT('Ctrl Pts',(8.48364657915857,3.61151102517778,18.5714285714286));
#130=CARTESIAN_POINT('Ctrl Pts',(8.80105695627329,3.92228408334289,19.5238095238095));
#131=CARTESIAN_POINT('Ctrl Pts',(8.95976428606535,4.07767405877134,20.));
#132=CARTESIAN_POINT('Ctrl Pts',(6.69285092693364,-6.8198066014221,0.));
#133=CARTESIAN_POINT('Ctrl Pts',(7.89938493528825,-5.51305698699747,3.80952380952382));
#134=CARTESIAN_POINT('Ctrl Pts',(9.70959338130513,-3.55272810574992,9.52380952380952));
#135=CARTESIAN_POINT('Ctrl Pts',(11.6703037908002,-1.42921349043038,15.7142857142857));
#136=CARTESIAN_POINT('Ctrl Pts',(12.5752518725916,-0.449127405105352,18.5714285714286));
#137=CARTESIAN_POINT('Ctrl Pts',(12.8768984080714,-0.122433461040032,19.5238095238095));
#138=CARTESIAN_POINT('Ctrl Pts',(13.0277151591157,0.040910240763047,20.));
#139=CARTESIAN_POINT('Ctrl Pts',(11.7161550267307,-10.9697009233609,0.));
#140=CARTESIAN_POINT('Ctrl Pts',(12.8023764933788,-9.56030042472926,3.8095238095238));
#141=CARTESIAN_POINT('Ctrl Pts',(14.4315711703018,-7.44629825507765,9.52380952380954));
#142=CARTESIAN_POINT('Ctrl Pts',(16.1966497823676,-5.15604486042768,15.7142857142857));
#143=CARTESIAN_POINT('Ctrl Pts',(17.0112998239501,-4.0990059973248,18.5714285714286));
#144=CARTESIAN_POINT('Ctrl Pts',(17.2828507913869,-3.74665902608832,19.5238095238095));
#145=CARTESIAN_POINT('Ctrl Pts',(17.4186284747179,-3.57048396375937,20.));
#146=CARTESIAN_POINT('Ctrl Pts',(15.4497768049933,-13.5006999541267,0.));
#147=CARTESIAN_POINT('Ctrl Pts',(16.3946637712188,-11.9941621829959,3.80952380952382));
#148=CARTESIAN_POINT('Ctrl Pts',(17.8117646310292,-9.734386216006,9.52380952380952));
#149=CARTESIAN_POINT('Ctrl Pts',(19.3471537449977,-7.28626931642205,15.7142857142857));
#150=CARTESIAN_POINT('Ctrl Pts',(20.0557921607695,-6.15636957167461,18.5714285714286));
#151=CARTESIAN_POINT('Ctrl Pts',(20.2920065579857,-5.77973611062503,19.5238095238095));
#152=CARTESIAN_POINT('Ctrl Pts',(20.4101174287639,-5.59141888923368,20.));
#153=CARTESIAN_POINT('Ctrl Pts',(18.107603220211,-15.004715989843,0.));
#154=CARTESIAN_POINT('Ctrl Pts',(18.9154996044789,-13.4194806145117,3.80952380952381));
#155=CARTESIAN_POINT('Ctrl Pts',(20.1272741109848,-11.041682076764,9.52380952380953));
#156=CARTESIAN_POINT('Ctrl Pts',(21.4400898022921,-8.465686990296,15.7142857142857));
#157=CARTESIAN_POINT('Ctrl Pts',(22.0460039085142,-7.27676682564627,18.5714285714286));
#158=CARTESIAN_POINT('Ctrl Pts',(22.2479757631151,-6.88045972602182,19.5238095238095));
#159=CARTESIAN_POINT('Ctrl Pts',(22.3489628111486,-6.6823053041054,20.));
#160=CARTESIAN_POINT('Ctrl Pts',(20.6232440807087,-16.1149236741839,0.));
#161=CARTESIAN_POINT('Ctrl Pts',(21.2537033451916,-14.4495338566776,3.80952380952381));
#162=CARTESIAN_POINT('Ctrl Pts',(22.1991951041832,-11.9513376973964,9.52380952380952));
#163=CARTESIAN_POINT('Ctrl Pts',(23.2236465820034,-9.24505390529814,15.7142857142857));
#164=CARTESIAN_POINT('Ctrl Pts',(23.696468010826,-7.99599853026645,18.5714285714286));
#165=CARTESIAN_POINT('Ctrl Pts',(23.8540765207072,-7.57964751125857,19.5238095238095));
#166=CARTESIAN_POINT('Ctrl Pts',(23.9328839287675,-7.37147378407028,20.));
#167=CARTESIAN_POINT('Ctrl Pts',(22.6014366760889,-16.71261654056,0.));
#168=CARTESIAN_POINT('Ctrl Pts',(23.0413550460263,-14.9875110255438,3.8095238095238));
#169=CARTESIAN_POINT('Ctrl Pts',(23.7011060929604,-12.3999151797297,9.52380952380953));
#170=CARTESIAN_POINT('Ctrl Pts',(24.4159446775792,-9.59663291297966,15.7142857142857));
#171=CARTESIAN_POINT('Ctrl Pts',(24.7458686828462,-8.30281106621055,18.5714285714286));
#172=CARTESIAN_POINT('Ctrl Pts',(24.8558442284666,-7.87153668442474,19.5238095238095));
#173=CARTESIAN_POINT('Ctrl Pts',(24.9108340247088,-7.65589849504772,20.));
#174=CARTESIAN_POINT('Ctrl Pts',(24.1133642484838,-16.9949165317873,0.));
#175=CARTESIAN_POINT('Ctrl Pts',(24.3720712449317,-15.2354932261093,3.80952380952381));
#176=CARTESIAN_POINT('Ctrl Pts',(24.760149315252,-12.5963981224587,9.52380952380953));
#177=CARTESIAN_POINT('Ctrl Pts',(25.18055218099,-9.73734431329267,15.7142857142857));
#178=CARTESIAN_POINT('Ctrl Pts',(25.3745844806136,-8.4177814878397,18.5714285714286));
#179=CARTESIAN_POINT('Ctrl Pts',(25.439261791953,-7.97792693633766,19.5238095238095));
#180=CARTESIAN_POINT('Ctrl Pts',(25.471600166509,-7.7579990231279,20.));
#181=CARTESIAN_POINT('Ctrl Pts',(25.5783382590265,-17.1469498715787,0.));
#182=CARTESIAN_POINT('Ctrl Pts',(25.6377378886837,-15.3662285520205,3.80952380952381));
#183=CARTESIAN_POINT('Ctrl Pts',(25.726703898785,-12.6951871782485,9.52380952380952));
#184=CARTESIAN_POINT('Ctrl Pts',(25.8231979554581,-9.80152426722797,15.7142857142857));
#185=CARTESIAN_POINT('Ctrl Pts',(25.8677320967259,-8.4659880190231,18.5714285714286));
#186=CARTESIAN_POINT('Ctrl Pts',(25.8825777357072,-8.02080898806512,19.5238095238095));
#187=CARTESIAN_POINT('Ctrl Pts',(25.8900026894144,-7.79821882312035,20.));
#188=CARTESIAN_POINT('Ctrl Pts',(26.9730801654652,-17.1040426549833,0.));
#189=CARTESIAN_POINT('Ctrl Pts',(26.8078567351391,-15.3284030475472,3.80952380952381));
#190=CARTESIAN_POINT('Ctrl Pts',(26.5599555373194,-12.6650049304176,9.52380952380952));
#191=CARTESIAN_POINT('Ctrl Pts',(26.2914524434617,-9.77960450592492,15.7142857142857));
#192=CARTESIAN_POINT('Ctrl Pts',(26.1675271578648,-8.44788195757852,18.5714285714286));
#193=CARTESIAN_POINT('Ctrl Pts',(26.126219187335,-8.00397401645426,19.5238095238095));
#194=CARTESIAN_POINT('Ctrl Pts',(26.1055662585442,-7.78201906552476,20.));
#195=CARTESIAN_POINT('Ctrl Pts',(28.2981179367374,-16.8674325030719,0.));
#196=CARTESIAN_POINT('Ctrl Pts',(27.8979471242621,-15.1335466750156,3.80952380952381));
#197=CARTESIAN_POINT('Ctrl Pts',(27.2976015164762,-12.5327064495486,9.52380952380951));
#198=CARTESIAN_POINT('Ctrl Pts',(26.6473036201062,-9.71513936776148,15.7142857142857));
#199=CARTESIAN_POINT('Ctrl Pts',(26.3471650728935,-8.41472365581825,18.5714285714286));
#200=CARTESIAN_POINT('Ctrl Pts',(26.2471195103073,-7.9812518314622,19.5238095238095));
#201=CARTESIAN_POINT('Ctrl Pts',(26.1970981587479,-7.76451610295516,20.));
#202=CARTESIAN_POINT('Ctrl Pts',(29.2572099200784,-16.5935148916406,0.));
#203=CARTESIAN_POINT('Ctrl Pts',(28.6815649390845,-14.9096145954344,3.80952380952381));
#204=CARTESIAN_POINT('Ctrl Pts',(27.8180375571903,-12.3838145796047,9.52380952380952));
#205=CARTESIAN_POINT('Ctrl Pts',(26.8826008401047,-9.64748806515445,15.7142857142857));
#206=CARTESIAN_POINT('Ctrl Pts',(26.4508601086924,-8.38456873147363,18.5714285714286));
#207=CARTESIAN_POINT('Ctrl Pts',(26.3069469469698,-7.96359527057889,19.5238095238095));
#208=CARTESIAN_POINT('Ctrl Pts',(26.2349913243456,-7.75310773355311,20.));
#209=CARTESIAN_POINT('Ctrl Pts',(30.181789861174,-16.2235497114138,0.));
#210=CARTESIAN_POINT('Ctrl Pts',(29.4370563448539,-14.6074510564995,3.80952380952381));
#211=CARTESIAN_POINT('Ctrl Pts',(28.319867785571,-12.183254685643,9.52380952380952));
#212=CARTESIAN_POINT('Ctrl Pts',(27.1096557465521,-9.55708336839493,15.7142857142857));
#213=CARTESIAN_POINT('Ctrl Pts',(26.5510953004003,-8.34500372694312,18.5714285714286));
#214=CARTESIAN_POINT('Ctrl Pts',(26.3649090971774,-7.94097751531513,19.5238095238095));
#215=CARTESIAN_POINT('Ctrl Pts',(26.2718174076374,-7.73896518345084,20.));
#216=CARTESIAN_POINT('Ctrl Pts',(31.3688200556684,-15.6028485001736,0.));
#217=CARTESIAN_POINT('Ctrl Pts',(30.4137088712341,-14.0969443142309,3.80952380952381));
#218=CARTESIAN_POINT('Ctrl Pts',(28.9810241488427,-11.8381799116267,9.52380952380952));
#219=CARTESIAN_POINT('Ctrl Pts',(27.4289643934719,-9.39110650113793,15.7142857142857));
#220=CARTESIAN_POINT('Ctrl Pts',(26.7126289096434,-8.2616890899688,18.5714285714286));
#221=CARTESIAN_POINT('Ctrl Pts',(26.4738505394685,-7.88521598251471,19.5238095238095));
#222=CARTESIAN_POINT('Ctrl Pts',(26.3544616414142,-7.69697795927187,20.));
#223=CARTESIAN_POINT('Ctrl Pts',(32.7673702874707,-14.5893331271967,0.));
#224=CARTESIAN_POINT('Ctrl Pts',(31.588283204939,-13.2485852509383,3.80952380952381));
#225=CARTESIAN_POINT('Ctrl Pts',(29.8200842787588,-11.2373217104933,9.52380952380953));
#226=CARTESIAN_POINT('Ctrl Pts',(27.904165932962,-9.05857418461786,15.7142857142857));
#227=CARTESIAN_POINT('Ctrl Pts',(27.0199010298826,-8.05299672824022,18.5714285714286));
#228=CARTESIAN_POINT('Ctrl Pts',(26.7251430688262,-7.7178052255003,19.5238095238095));
#229=CARTESIAN_POINT('Ctrl Pts',(26.5777571835097,-7.55021174096799,20.));
#230=CARTESIAN_POINT('Ctrl Pts',(34.3113014869606,-12.9977985832123,0.));
#231=CARTESIAN_POINT('Ctrl Pts',(32.9355889876868,-11.8641279603221,3.80952380952381));
#232=CARTESIAN_POINT('Ctrl Pts',(30.8720352519665,-10.1638029833849,9.52380952380952));
#233=CARTESIAN_POINT('Ctrl Pts',(28.6365058544819,-8.32162936892182,15.7142857142857));
#234=CARTESIAN_POINT('Ctrl Pts',(27.604723233099,-7.47139753193522,18.5714285714286));
#235=CARTESIAN_POINT('Ctrl Pts',(27.2607955885375,-7.18798566485949,19.5238095238095));
#236=CARTESIAN_POINT('Ctrl Pts',(27.0888315261283,-7.04627683699822,20.));
#237=CARTESIAN_POINT('Ctrl Pts',(35.7233300979374,-11.0367759853136,0.));
#238=CARTESIAN_POINT('Ctrl Pts',(34.2121417956071,-10.0951113941976,3.8095238095238));
#239=CARTESIAN_POINT('Ctrl Pts',(31.9455747068126,-8.68253721726492,9.52380952380953));
#240=CARTESIAN_POINT('Ctrl Pts',(29.4899426871038,-7.15231468174182,15.7142857142857));
#241=CARTESIAN_POINT('Ctrl Pts',(28.3565766082371,-6.44605721331287,18.5714285714286));
#242=CARTESIAN_POINT('Ctrl Pts',(27.9787864219567,-6.21063859309552,19.5238095238095));
#243=CARTESIAN_POINT('Ctrl Pts',(27.7898878841654,-6.09293051920602,20.));
#244=CARTESIAN_POINT('Ctrl Pts',(36.9588329398789,-8.79930458110596,0.));
#245=CARTESIAN_POINT('Ctrl Pts',(35.3605976076158,-8.01851747417828,3.80952380952381));
#246=CARTESIAN_POINT('Ctrl Pts',(32.9633225441233,-6.84744007653947,9.52380952380952));
#247=CARTESIAN_POINT('Ctrl Pts',(30.3662078507402,-5.57868450860269,15.7142857142857));
#248=CARTESIAN_POINT('Ctrl Pts',(29.1675404519091,-4.99310623627625,18.5714285714286));
#249=CARTESIAN_POINT('Ctrl Pts',(28.7679841119032,-4.79791276281687,19.5238095238095));
#250=CARTESIAN_POINT('Ctrl Pts',(28.5682046953703,-4.70031437445091,20.));
#251=CARTESIAN_POINT('Ctrl Pts',(38.0369144672811,-6.33792159575215,0.));
#252=CARTESIAN_POINT('Ctrl Pts',(36.3817080211354,-5.6888660219599,3.80952380952381));
#253=CARTESIAN_POINT('Ctrl Pts',(33.899153053583,-4.71529945899575,9.52380952380953));
#254=CARTESIAN_POINT('Ctrl Pts',(31.2095004949698,-3.66058797120213,15.7142857142857));
#255=CARTESIAN_POINT('Ctrl Pts',(29.9681254015724,-3.1737982523083,18.5714285714286));
#256=CARTESIAN_POINT('Ctrl Pts',(29.5543319376884,-3.01153489620269,19.5238095238095));
#257=CARTESIAN_POINT('Ctrl Pts',(29.3474311319202,-2.93040294947866,20.));
#258=CARTESIAN_POINT('Ctrl Pts',(39.2881624718703,-2.82290447267359,0.));
#259=CARTESIAN_POINT('Ctrl Pts',(37.5828585858606,-2.31703133670799,3.80952380952381));
#260=CARTESIAN_POINT('Ctrl Pts',(35.0250039635947,-1.55824428982931,9.52380952380953));
#261=CARTESIAN_POINT('Ctrl Pts',(32.2539081621369,-0.736205595855099,15.7142857142857));
#262=CARTESIAN_POINT('Ctrl Pts',(30.9749420654218,-0.356803389520095,18.5714285714286));
#263=CARTESIAN_POINT('Ctrl Pts',(30.5486193314224,-0.230335830305774,19.5238095238095));
#264=CARTESIAN_POINT('Ctrl Pts',(30.3354563456712,-0.167101688310074,20.));
#265=CARTESIAN_POINT('Ctrl Pts',(40.6182452968256,2.23644813438006,0.));
#266=CARTESIAN_POINT('Ctrl Pts',(38.8786193435174,2.60484579827044,3.80952380952381));
#267=CARTESIAN_POINT('Ctrl Pts',(36.2689731825942,3.15735863711707,9.52380952380952));
#268=CARTESIAN_POINT('Ctrl Pts',(33.4420338864141,3.7559858182545,15.7142857142857));
#269=CARTESIAN_POINT('Ctrl Pts',(32.1372902233191,4.03227429764478,18.5714285714286));
#270=CARTESIAN_POINT('Ctrl Pts',(31.7023771058802,4.12437103751368,19.5238095238095));
#271=CARTESIAN_POINT('Ctrl Pts',(31.4849238617166,4.17042074549997,20.));
#272=CARTESIAN_POINT('Ctrl Pts',(41.764906602794,8.71291959832275,0.));
#273=CARTESIAN_POINT('Ctrl Pts',(40.0069731041551,8.97334375735015,3.80952380952381));
#274=CARTESIAN_POINT('Ctrl Pts',(37.3700909324865,9.36398871452802,9.52380952380952));
#275=CARTESIAN_POINT('Ctrl Pts',(34.5134531075489,9.78717995547019,15.7142857142857));
#276=CARTESIAN_POINT('Ctrl Pts',(33.1950050943167,9.98249909280564,18.5714285714286));
#277=CARTESIAN_POINT('Ctrl Pts',(32.7555222978995,10.047605411463,19.5238095238095));
#278=CARTESIAN_POINT('Ctrl Pts',(32.5357806105696,10.0801584313414,20.));
#279=CARTESIAN_POINT('Ctrl Pts',(42.5808991976233,15.2637043747815,0.));
#280=CARTESIAN_POINT('Ctrl Pts',(40.8139598732314,15.4500774778366,3.80952380952381));
#281=CARTESIAN_POINT('Ctrl Pts',(38.1635170913809,15.7296835450836,9.52380952380952));
#282=CARTESIAN_POINT('Ctrl Pts',(35.2922330045709,16.0325503912804,15.7142857142857));
#283=CARTESIAN_POINT('Ctrl Pts',(33.9670245650441,16.1723356381235,18.5714285714286));
#284=CARTESIAN_POINT('Ctrl Pts',(33.5252886528694,16.2189303985822,19.5238095238095));
#285=CARTESIAN_POINT('Ctrl Pts',(33.3044212373204,16.242227036464,20.));
#286=CARTESIAN_POINT('Ctrl Pts',(43.3494949045651,23.7517731741108,0.));
#287=CARTESIAN_POINT('Ctrl Pts',(41.5764820319583,23.8688739802386,3.80952380952381));
#288=CARTESIAN_POINT('Ctrl Pts',(38.9169157563644,24.0444573835537,9.52380952380953));
#289=CARTESIAN_POINT('Ctrl Pts',(36.035759158668,24.2347307751966,15.7142857142857));
#290=CARTESIAN_POINT('Ctrl Pts',(34.7059940199689,24.3225484621806,18.5714285714286));
#291=CARTESIAN_POINT('Ctrl Pts',(34.2627392993998,24.3518214946701,19.5238095238095));
#292=CARTESIAN_POINT('Ctrl Pts',(34.0411126903239,24.3664590954361,20.));
#293=CARTESIAN_POINT('Ctrl Pts',(43.959460582687,35.4290378502867,0.));
#294=CARTESIAN_POINT('Ctrl Pts',(42.1837980842432,35.4880224251751,3.80952380952381));
#295=CARTESIAN_POINT('Ctrl Pts',(39.5202754542208,35.5765068193673,9.52380952380952));
#296=CARTESIAN_POINT('Ctrl Pts',(36.6348173267176,35.6723584662235,15.7142857142857));
#297=CARTESIAN_POINT('Ctrl Pts',(35.3030670803262,35.7165977768762,18.5714285714286));
#298=CARTESIAN_POINT('Ctrl Pts',(34.8591505317974,35.731344161535,19.5238095238095));
#299=CARTESIAN_POINT('Ctrl Pts',(34.6371927194919,35.738717233396,20.));
#300=CARTESIAN_POINT('Ctrl Pts',(44.286290256037,50.758318360835,0.));
#301=CARTESIAN_POINT('Ctrl Pts',(42.5099270284779,50.7780294893422,3.80952380952381));
#302=CARTESIAN_POINT('Ctrl Pts',(39.84536025737,50.8075614367027,9.52380952380951));
#303=CARTESIAN_POINT('Ctrl Pts',(36.9587650259968,50.8395841198029,15.7142857142857));
#304=CARTESIAN_POINT('Ctrl Pts',(35.6264900446143,50.8543634090041,18.5714285714286));
#305=CARTESIAN_POINT('Ctrl Pts',(35.1823985362131,50.8592900796602,19.5238095238095));
#306=CARTESIAN_POINT('Ctrl Pts',(34.9603531327682,50.8617539707236,20.));
#307=CARTESIAN_POINT('Ctrl Pts',(44.3664576851553,65.1725635390861,0.));
#308=CARTESIAN_POINT('Ctrl Pts',(42.590051588792,65.1774735189133,3.8095238095238));
#309=CARTESIAN_POINT('Ctrl Pts',(39.9254383426918,65.1848564786834,9.52380952380954));
#310=CARTESIAN_POINT('Ctrl Pts',(37.0387775034525,65.1928392866385,15.7142857142857));
#311=CARTESIAN_POINT('Ctrl Pts',(35.7064724522463,65.1965238721833,18.5714285714286));
#312=CARTESIAN_POINT('Ctrl Pts',(35.2623707969508,65.1977519426232,19.5238095238095));
#313=CARTESIAN_POINT('Ctrl Pts',(35.0403200349053,65.1983656901016,20.));
#314=CARTESIAN_POINT('Ctrl Pts',(44.4023523324256,81.7509218255362,0.));
#315=CARTESIAN_POINT('Ctrl Pts',(42.6259580268683,81.755055123345,3.80952380952382));
#316=CARTESIAN_POINT('Ctrl Pts',(39.9613455666886,81.7612319579835,9.52380952380951));
#317=CARTESIAN_POINT('Ctrl Pts',(37.0747000445684,81.7679433114896,15.7142857142857));
#318=CARTESIAN_POINT('Ctrl Pts',(35.7424018630401,81.7710405860767,18.5714285714286));
#319=CARTESIAN_POINT('Ctrl Pts',(35.2983026148227,81.7720731711966,19.5238095238095));
#320=CARTESIAN_POINT('Ctrl Pts',(35.076253326628,81.7725898334227,20.));
#321=CARTESIAN_POINT('Ctrl Pts',(44.4884734371183,98.4548640966953,0.));
#322=CARTESIAN_POINT('Ctrl Pts',(42.7120820001975,98.4760422847223,3.8095238095238));
#323=CARTESIAN_POINT('Ctrl Pts',(40.0475024000581,98.5078252533282,9.52380952380954));
#324=CARTESIAN_POINT('Ctrl Pts',(37.1608680330411,98.5422433758255,15.7142857142857));
#325=CARTESIAN_POINT('Ctrl Pts',(35.8285753375671,98.5581288485474,18.5714285714286));
#326=CARTESIAN_POINT('Ctrl Pts',(35.3844777200215,98.5634238973517,19.5238095238095));
#327=CARTESIAN_POINT('Ctrl Pts',(35.1624287904064,98.5660711708551,20.));
#328=CARTESIAN_POINT('Ctrl Pts',(44.9302882055517,116.383107224042,0.));
#329=CARTESIAN_POINT('Ctrl Pts',(43.1548376136644,116.447652852278,3.80952380952382));
#330=CARTESIAN_POINT('Ctrl Pts',(40.4915998250732,116.544414529311,9.52380952380951));
#331=CARTESIAN_POINT('Ctrl Pts',(37.6064785377003,116.649288267381,15.7142857142857));
#332=CARTESIAN_POINT('Ctrl Pts',(36.2748833657064,116.697690860138,18.5714285714286));
#333=CARTESIAN_POINT('Ctrl Pts',(35.8310187375909,116.713825451331,19.5238095238095));
#334=CARTESIAN_POINT('Ctrl Pts',(35.609087413605,116.721893654861,20.));
#335=CARTESIAN_POINT('Ctrl Pts',(45.7387305335452,131.590191202896,0.));
#336=CARTESIAN_POINT('Ctrl Pts',(43.9662759078096,131.716319122545,3.8095238095238));
#337=CARTESIAN_POINT('Ctrl Pts',(41.3076396865088,131.90556688316,9.52380952380953));
#338=CARTESIAN_POINT('Ctrl Pts',(38.427411315303,132.11053745935,15.7142857142857));
#339=CARTESIAN_POINT('Ctrl Pts',(37.0980756843566,132.205139924261,18.5714285714286));
#340=CARTESIAN_POINT('Ctrl Pts',(36.6549634903736,132.236673691756,19.5238095238095));
#341=CARTESIAN_POINT('Ctrl Pts',(36.4334066621567,132.252439681712,20.));
#342=CARTESIAN_POINT('Ctrl Pts',(47.0804803180699,145.457533694282,0.));
#343=CARTESIAN_POINT('Ctrl Pts',(45.3163067445239,145.67459430935,3.80952380952381));
#344=CARTESIAN_POINT('Ctrl Pts',(42.6699185919917,146.000093515107,9.52380952380952));
#345=CARTESIAN_POINT('Ctrl Pts',(39.8031074764277,146.352796159185,15.7142857142857));
#346=CARTESIAN_POINT('Ctrl Pts',(38.4799623741228,146.515580910819,18.5714285714286));
#347=CARTESIAN_POINT('Ctrl Pts',(38.0389148927908,146.569843130656,19.5238095238095));
#348=CARTESIAN_POINT('Ctrl Pts',(37.8183931960975,146.596975707539,20.));
#349=CARTESIAN_POINT('Ctrl Pts',(48.7189897588183,155.592678667532,0.));
#350=CARTESIAN_POINT('Ctrl Pts',(46.9714666240036,155.919968188617,3.80952380952381));
#351=CARTESIAN_POINT('Ctrl Pts',(44.3502060685063,156.410931334816,9.52380952380952));
#352=CARTESIAN_POINT('Ctrl Pts',(41.5104864651336,156.942783370068,15.7142857142857));
#353=CARTESIAN_POINT('Ctrl Pts',(40.1998469336071,157.188253881364,18.5714285714286));
#354=CARTESIAN_POINT('Ctrl Pts',(39.7629669223331,157.270077184985,19.5238095238095));
#355=CARTESIAN_POINT('Ctrl Pts',(39.5445265304812,157.31098837512,20.));
#356=CARTESIAN_POINT('Ctrl Pts',(50.3694160213175,162.694443688729,0.));
#357=CARTESIAN_POINT('Ctrl Pts',(48.6489730050619,163.140784763301,3.80952380952381));
#358=CARTESIAN_POINT('Ctrl Pts',(46.0684455862194,163.810417445872,9.52380952380952));
#359=CARTESIAN_POINT('Ctrl Pts',(43.2727568611047,164.535749222207,15.7142857142857));
#360=CARTESIAN_POINT('Ctrl Pts',(41.9824406085646,164.870519165419,18.5714285714286));
#361=CARTESIAN_POINT('Ctrl Pts',(41.5523342403703,164.982108306994,19.5238095238095));
#362=CARTESIAN_POINT('Ctrl Pts',(41.3372788633384,165.037900941315,20.));
#363=CARTESIAN_POINT('Ctrl Pts',(51.7788445627907,167.4873332491,0.));
#364=CARTESIAN_POINT('Ctrl Pts',(50.0898061976821,168.042227865661,3.8095238095238));
#365=CARTESIAN_POINT('Ctrl Pts',(47.556300030125,168.874585689816,9.52380952380953));
#366=CARTESIAN_POINT('Ctrl Pts',(44.8116243700978,169.776293057058,15.7142857142857));
#367=CARTESIAN_POINT('Ctrl Pts',(43.5448515958605,170.192465876023,18.5714285714286));
#368=CARTESIAN_POINT('Ctrl Pts',(43.1225936481817,170.331190038766,19.5238095238095));
#369=CARTESIAN_POINT('Ctrl Pts',(42.9114638525432,170.400551865837,20.));
#370=CARTESIAN_POINT('Ctrl Pts',(53.3599620798905,171.719449812616,0.));
#371=CARTESIAN_POINT('Ctrl Pts',(51.7191694459268,172.40615042914,3.80952380952381));
#372=CARTESIAN_POINT('Ctrl Pts',(49.2580310137302,173.436349714259,9.52380952380951));
#373=CARTESIAN_POINT('Ctrl Pts',(46.5917544709502,174.552271951628,15.7142857142857));
#374=CARTESIAN_POINT('Ctrl Pts',(45.3611658944919,175.067314737881,18.5714285714286));
#375=CARTESIAN_POINT('Ctrl Pts',(44.9509693520454,175.238994637912,19.5238095238095));
#376=CARTESIAN_POINT('Ctrl Pts',(44.7458702727999,175.324832214977,20.));
#377=CARTESIAN_POINT('Ctrl Pts',(55.1089818860001,175.369925563459,0.));
#378=CARTESIAN_POINT('Ctrl Pts',(53.5429492341287,176.216039748295,3.80952380952381));
#379=CARTESIAN_POINT('Ctrl Pts',(51.1939925985843,177.485204735054,9.52380952380952));
#380=CARTESIAN_POINT('Ctrl Pts',(48.649210536914,178.860138855023,15.7142857142857));
#381=CARTESIAN_POINT('Ctrl Pts',(47.4746968307072,179.494723759117,18.5714285714286));
#382=CARTESIAN_POINT('Ctrl Pts',(47.0831916216763,179.706252104099,19.5238095238095));
#383=CARTESIAN_POINT('Ctrl Pts',(46.8874375401924,179.812016377204,20.));
#384=CARTESIAN_POINT('Ctrl Pts',(57.0190539475214,178.423151530683,0.));
#385=CARTESIAN_POINT('Ctrl Pts',(55.5685423151992,179.458527094618,3.80952380952381));
#386=CARTESIAN_POINT('Ctrl Pts',(53.3928357737613,181.011865225926,9.52380952380952));
#387=CARTESIAN_POINT('Ctrl Pts',(51.0357682208338,182.694413000516,15.7142857142857));
#388=CARTESIAN_POINT('Ctrl Pts',(49.9478916086358,183.470976759834,18.5714285714286));
#389=CARTESIAN_POINT('Ctrl Pts',(49.5852656489109,183.729829440929,19.5238095238095));
#390=CARTESIAN_POINT('Ctrl Pts',(49.4039516948706,183.85925138642,20.));
#391=CARTESIAN_POINT('Ctrl Pts',(58.7360746596185,180.462336998297,0.));
#392=CARTESIAN_POINT('Ctrl Pts',(57.4326891357998,181.677139650216,3.80952380952381));
#393=CARTESIAN_POINT('Ctrl Pts',(55.4776235986008,183.499201056377,9.52380952380951));
#394=CARTESIAN_POINT('Ctrl Pts',(53.3596250212715,185.473222946496,15.7142857142857));
#395=CARTESIAN_POINT('Ctrl Pts',(52.3820873670382,186.384308287505,18.5714285714286));
#396=CARTESIAN_POINT('Ctrl Pts',(52.0562413938962,186.688004389758,19.5238095238095));
#397=CARTESIAN_POINT('Ctrl Pts',(51.8933182034189,186.839854721248,20.));
#398=CARTESIAN_POINT('Ctrl Pts',(60.1776477534856,181.789359983432,0.));
#399=CARTESIAN_POINT('Ctrl Pts',(59.03290400491,183.151290267143,3.80952380952381));
#400=CARTESIAN_POINT('Ctrl Pts',(57.3157008156683,185.193967830981,9.5238095238095));
#401=CARTESIAN_POINT('Ctrl Pts',(55.4554723125961,187.407055002635,15.7142857142857));
#402=CARTESIAN_POINT('Ctrl Pts',(54.5969042761421,188.428477275962,18.5714285714285));
#403=CARTESIAN_POINT('Ctrl Pts',(54.310715537837,188.76895287771,19.5238095238095));
#404=CARTESIAN_POINT('Ctrl Pts',(54.1676225692651,188.939194163174,20.));
#405=CARTESIAN_POINT('Ctrl Pts',(61.2904909729143,182.633041632638,0.));
#406=CARTESIAN_POINT('Ctrl Pts',(60.2865078731649,184.102365081901,3.8095238095238));
#407=CARTESIAN_POINT('Ctrl Pts',(58.7805346478149,186.306240405822,9.52380952380951));
#408=CARTESIAN_POINT('Ctrl Pts',(57.1490624345865,188.693866032192,15.7142857142857));
#409=CARTESIAN_POINT('Ctrl Pts',(56.3960752760853,189.795845792088,18.5714285714285));
#410=CARTESIAN_POINT('Ctrl Pts',(56.1450795467091,190.163173140413,19.5238095238095));
#411=CARTESIAN_POINT('Ctrl Pts',(56.0195816592404,190.346838571571,20.));
#412=CARTESIAN_POINT('Ctrl Pts',(62.4325525320717,183.325940487752,0.));
#413=CARTESIAN_POINT('Ctrl Pts',(61.591171671754,184.894549151395,3.80952380952381));
#414=CARTESIAN_POINT('Ctrl Pts',(60.3290456374253,187.247295812048,9.5238095238095));
#415=CARTESIAN_POINT('Ctrl Pts',(58.9617892912557,189.796247067751,15.7142857142857));
#416=CARTESIAN_POINT('Ctrl Pts',(58.3307472536427,190.972684142765,18.5714285714285));
#417=CARTESIAN_POINT('Ctrl Pts',(58.120400287362,191.364830987791,19.5238095238095));
#418=CARTESIAN_POINT('Ctrl Pts',(58.0152276798223,191.560907070746,20.));
#419=CARTESIAN_POINT('Ctrl Pts',(63.7308461233819,183.929898268455,0.));
#420=CARTESIAN_POINT('Ctrl Pts',(63.0915684875074,185.593052938619,3.8095238095238));
#421=CARTESIAN_POINT('Ctrl Pts',(62.1326508197742,188.087660376339,9.52380952380951));
#422=CARTESIAN_POINT('Ctrl Pts',(61.0938243854456,190.790258390062,15.7142857142857));
#423=CARTESIAN_POINT('Ctrl Pts',(60.6143660167915,192.037609847083,18.5714285714285));
#424=CARTESIAN_POINT('Ctrl Pts',(60.4545465689907,192.453394529833,19.5238095238095));
#425=CARTESIAN_POINT('Ctrl Pts',(60.3746368645064,192.661288863603,20.));
#426=CARTESIAN_POINT('Ctrl Pts',(65.1922436254833,184.38398445193,0.));
#427=CARTESIAN_POINT('Ctrl Pts',(64.795894242695,186.123116959326,3.80952380952381));
#428=CARTESIAN_POINT('Ctrl Pts',(64.2013593581779,188.731643041863,9.5238095238095));
#429=CARTESIAN_POINT('Ctrl Pts',(63.5572891529949,191.557694101166,15.7142857142857));
#430=CARTESIAN_POINT('Ctrl Pts',(63.2600258535937,192.862023318243,18.5714285714285));
#431=CARTESIAN_POINT('Ctrl Pts',(63.1609381620847,193.296800921277,19.5238095238095));
#432=CARTESIAN_POINT('Ctrl Pts',(63.1113944892362,193.514192484701,20.));
#433=CARTESIAN_POINT('Ctrl Pts',(66.8198344020923,184.623207827122,0.));
#434=CARTESIAN_POINT('Ctrl Pts',(66.6972497758875,186.402306898881,3.8095238095238));
#435=CARTESIAN_POINT('Ctrl Pts',(66.5133619919035,189.070967575195,9.52380952380951));
#436=CARTESIAN_POINT('Ctrl Pts',(66.3141595083598,191.962006311089,15.7142857142857));
#437=CARTESIAN_POINT('Ctrl Pts',(66.2222197723862,193.296332024153,18.5714285714285));
#438=CARTESIAN_POINT('Ctrl Pts',(66.1915732689246,193.741107178158,19.5238095238095));
#439=CARTESIAN_POINT('Ctrl Pts',(66.176250190649,193.963494562128,20.));
#440=CARTESIAN_POINT('Ctrl Pts',(68.4717986129098,184.613796733029,0.));
#441=CARTESIAN_POINT('Ctrl Pts',(68.6134842773067,186.390681854326,3.80952380952381));
#442=CARTESIAN_POINT('Ctrl Pts',(68.8260187909706,189.055911308354,9.52380952380951));
#443=CARTESIAN_POINT('Ctrl Pts',(69.0562593638312,191.943327294508,15.7142857142857));
#444=CARTESIAN_POINT('Ctrl Pts',(69.1625243147349,193.275979665523,18.5714285714285));
#445=CARTESIAN_POINT('Ctrl Pts',(69.1979459233141,193.720197803634,19.5238095238095));
#446=CARTESIAN_POINT('Ctrl Pts',(69.2156566313637,193.942308443796,20.));
#447=CARTESIAN_POINT('Ctrl Pts',(70.416149821785,184.323350758397,0.));
#448=CARTESIAN_POINT('Ctrl Pts',(70.8396096395835,186.056882504006,3.80952380952381));
#449=CARTESIAN_POINT('Ctrl Pts',(71.4748881763708,188.657193048063,9.52380952380951));
#450=CARTESIAN_POINT('Ctrl Pts',(72.1630305747365,191.474185073828,15.7142857142857));
#451=CARTESIAN_POINT('Ctrl Pts',(72.4806358083344,192.774335392346,18.5714285714285));
#452=CARTESIAN_POINT('Ctrl Pts',(72.5865036037303,193.207718742227,19.5238095238095));
#453=CARTESIAN_POINT('Ctrl Pts',(72.6394360809551,193.424410210428,20.));
#454=CARTESIAN_POINT('Ctrl Pts',(72.0881441806495,183.787697198284,0.));
#455=CARTESIAN_POINT('Ctrl Pts',(72.7157831117928,185.453624507163,3.80952380952381));
#456=CARTESIAN_POINT('Ctrl Pts',(73.6570880791648,187.952547711053,9.52380952380951));
#457=CARTESIAN_POINT('Ctrl Pts',(74.676966454118,190.659686919134,15.7142857142857));
#458=CARTESIAN_POINT('Ctrl Pts',(75.1476777367128,191.909136165487,18.5714285714286));
#459=CARTESIAN_POINT('Ctrl Pts',(75.3045825614469,192.32561902405,19.5238095238095));
#460=CARTESIAN_POINT('Ctrl Pts',(75.3830374278398,192.53385993766,20.));
#461=CARTESIAN_POINT('Ctrl Pts',(73.7479627655058,183.040555508278,0.));
#462=CARTESIAN_POINT('Ctrl Pts',(74.5497999958696,184.627826864659,3.8095238095238));
#463=CARTESIAN_POINT('Ctrl Pts',(75.7525687800173,187.00877402014,9.52380952380952));
#464=CARTESIAN_POINT('Ctrl Pts',(77.055557221455,189.588099097315,15.7142857142857));
#465=CARTESIAN_POINT('Ctrl Pts',(77.6569366550531,190.778557299472,18.5714285714286));
#466=CARTESIAN_POINT('Ctrl Pts',(77.857396376537,191.175376421995,19.5238095238095));
#467=CARTESIAN_POINT('Ctrl Pts',(77.9576260303325,191.373785341543,20.));
#468=CARTESIAN_POINT('Ctrl Pts',(75.1199064256326,182.28989795551,0.));
#469=CARTESIAN_POINT('Ctrl Pts',(76.049766777678,183.806568903574,3.80952380952381));
#470=CARTESIAN_POINT('Ctrl Pts',(77.4444737202285,186.081568371135,9.52380952380951));
#471=CARTESIAN_POINT('Ctrl Pts',(78.9554777858697,188.546157080355,15.7142857142857));
#472=CARTESIAN_POINT('Ctrl Pts',(79.6528632897219,189.68365947933,18.5714285714286));
#473=CARTESIAN_POINT('Ctrl Pts',(79.8853257039159,190.062826993877,19.5238095238095));
#474=CARTESIAN_POINT('Ctrl Pts',(80.0015582479215,190.252410862385,20.));
#475=CARTESIAN_POINT('Ctrl Pts',(77.2757740355045,180.83394590528,0.));
#476=CARTESIAN_POINT('Ctrl Pts',(78.378350401382,182.232931522348,3.8095238095238));
#477=CARTESIAN_POINT('Ctrl Pts',(80.0322396553032,184.331515729288,9.52380952380953));
#478=CARTESIAN_POINT('Ctrl Pts',(81.8239318675248,186.604891410542,15.7142857142857));
#479=CARTESIAN_POINT('Ctrl Pts',(82.6508670267188,187.654142975305,18.5714285714286));
#480=CARTESIAN_POINT('Ctrl Pts',(82.9265119084799,188.003892763411,19.5238095238095));
#481=CARTESIAN_POINT('Ctrl Pts',(83.0643339542146,188.178765965545,20.));
#482=CARTESIAN_POINT('Ctrl Pts',(79.8676004555356,178.571858432181,0.));
#483=CARTESIAN_POINT('Ctrl Pts',(81.1374561687755,179.822168684749,3.80952380952382));
#484=CARTESIAN_POINT('Ctrl Pts',(83.0420597294349,181.697462398627,9.52380952380951));
#485=CARTESIAN_POINT('Ctrl Pts',(85.1055343313261,183.729177524313,15.7142857142857));
#486=CARTESIAN_POINT('Ctrl Pts',(86.0579050967949,184.666890168623,18.5714285714286));
#487=CARTESIAN_POINT('Ctrl Pts',(86.3753632667899,184.979462240374,19.5238095238095));
#488=CARTESIAN_POINT('Ctrl Pts',(86.5340952309449,185.135751021945,20.));
#489=CARTESIAN_POINT('Ctrl Pts',(83.196898612664,174.722512272476,0.));
#490=CARTESIAN_POINT('Ctrl Pts',(84.6415196694519,175.768290223583,3.8095238095238));
#491=CARTESIAN_POINT('Ctrl Pts',(86.8084168627159,177.336980285278,9.52380952380953));
#492=CARTESIAN_POINT('Ctrl Pts',(89.1559182596502,179.036374716482,15.7142857142857));
#493=CARTESIAN_POINT('Ctrl Pts',(90.2393800363377,179.820710881263,18.5714285714286));
#494=CARTESIAN_POINT('Ctrl Pts',(90.6005342003715,180.082156109107,19.5238095238095));
#495=CARTESIAN_POINT('Ctrl Pts',(90.7811118324699,180.212878352995,20.));
#496=CARTESIAN_POINT('Ctrl Pts',(86.4293932098132,169.560547726799,0.));
#497=CARTESIAN_POINT('Ctrl Pts',(88.0186200808681,170.37289600935,3.80952380952382));
#498=CARTESIAN_POINT('Ctrl Pts',(90.4026613684872,171.59144840933,9.52380952380952));
#499=CARTESIAN_POINT('Ctrl Pts',(92.9852007348412,172.911521184724,15.7142857142857));
#500=CARTESIAN_POINT('Ctrl Pts',(94.17714435645,173.520785896917,18.5714285714286));
#501=CARTESIAN_POINT('Ctrl Pts',(94.5744575033968,173.723873926462,19.5238095238095));
#502=CARTESIAN_POINT('Ctrl Pts',(94.7731108622786,173.82541746178,20.));
#503=CARTESIAN_POINT('Ctrl Pts',(88.6081636193565,164.222093007211,0.));
#504=CARTESIAN_POINT('Ctrl Pts',(90.2932141229089,164.800763303196,3.8095238095238));
#505=CARTESIAN_POINT('Ctrl Pts',(92.8207345040842,165.668800378893,9.52380952380953));
#506=CARTESIAN_POINT('Ctrl Pts',(95.5589289808799,166.609146802576,15.7142857142857));
#507=CARTESIAN_POINT('Ctrl Pts',(96.8227103925699,167.043153218163,18.5714285714286));
#508=CARTESIAN_POINT('Ctrl Pts',(97.243971247094,167.187821804026,19.5238095238095));
#509=CARTESIAN_POINT('Ctrl Pts',(97.4546025600381,167.260155591025,20.));
#510=CARTESIAN_POINT('Ctrl Pts',(89.7584472792755,159.85058648581,0.));
#511=CARTESIAN_POINT('Ctrl Pts',(91.4967575620206,160.227738162264,3.80952380952381));
#512=CARTESIAN_POINT('Ctrl Pts',(94.1042631130772,160.793593129182,9.52380952380952));
#513=CARTESIAN_POINT('Ctrl Pts',(96.929026446965,161.406493584666,15.7142857142857));
#514=CARTESIAN_POINT('Ctrl Pts',(98.2327638445989,161.689372224453,18.5714285714286));
#515=CARTESIAN_POINT('Ctrl Pts',(98.6673426989059,161.783664220637,19.5238095238095));
#516=CARTESIAN_POINT('Ctrl Pts',(98.8846314842491,161.830808180194,20.));
#517=CARTESIAN_POINT('Ctrl Pts',(90.3180942371634,156.563320567707,0.));
#518=CARTESIAN_POINT('Ctrl Pts',(92.0832552004972,156.783381228295,3.80952380952381));
#519=CARTESIAN_POINT('Ctrl Pts',(94.7310077879501,157.113451393905,9.52380952380953));
#520=CARTESIAN_POINT('Ctrl Pts',(97.5993968870393,157.471045231922,15.7142857142857));
#521=CARTESIAN_POINT('Ctrl Pts',(98.9232689106306,157.636088295621,18.5714285714286));
#522=CARTESIAN_POINT('Ctrl Pts',(99.3645595079,157.691102794588,19.5238095238095));
#523=CARTESIAN_POINT('Ctrl Pts',(99.5852046283167,157.718610377162,20.));
#524=CARTESIAN_POINT('Ctrl Pts',(90.5733689500028,153.305357171939,0.));
#525=CARTESIAN_POINT('Ctrl Pts',(92.3512305134207,153.364679624038,3.80952380952381));
#526=CARTESIAN_POINT('Ctrl Pts',(95.0180339024419,153.453728999983,9.52380952380952));
#527=CARTESIAN_POINT('Ctrl Pts',(97.9070614542569,153.550142923604,15.7142857142857));
#528=CARTESIAN_POINT('Ctrl Pts',(99.2404589164028,153.594642434133,18.5714285714286));
#529=CARTESIAN_POINT('Ctrl Pts',(99.6849246605405,153.609475148764,19.5238095238095));
#530=CARTESIAN_POINT('Ctrl Pts',(99.9071573559677,153.616890455277,20.));
#531=CARTESIAN_POINT('Ctrl Pts',(90.5341824302955,150.107176266845,0.));
#532=CARTESIAN_POINT('Ctrl Pts',(92.3100848941225,150.006474985762,3.80952380952381));
#533=CARTESIAN_POINT('Ctrl Pts',(94.9739507943612,149.855423131062,9.52380952380953));
#534=CARTESIAN_POINT('Ctrl Pts',(97.8597950732494,149.69178356452,15.7142857142857));
#535=CARTESIAN_POINT('Ctrl Pts',(99.1917233462244,149.616257611523,18.5714285714286));
#536=CARTESIAN_POINT('Ctrl Pts',(99.6356993525909,149.591082293393,19.5238095238095));
#537=CARTESIAN_POINT('Ctrl Pts',(99.8576871605692,149.578494633258,20.));
#538=CARTESIAN_POINT('Ctrl Pts',(90.2185382326282,146.993381103251,0.));
#539=CARTESIAN_POINT('Ctrl Pts',(91.9787343291377,146.73861054127,3.80952380952381));
#540=CARTESIAN_POINT('Ctrl Pts',(94.619033473092,146.356482670736,9.52380952380953));
#541=CARTESIAN_POINT('Ctrl Pts',(97.4793532666811,145.942486868144,15.7142857142857));
#542=CARTESIAN_POINT('Ctrl Pts',(98.7995009228127,145.751412212967,18.5714285714286));
#543=CARTESIAN_POINT('Ctrl Pts',(99.2395501068592,145.687720467282,19.5238095238095));
#544=CARTESIAN_POINT('Ctrl Pts',(99.4595746189229,145.655874147035,20.));
#545=CARTESIAN_POINT('Ctrl Pts',(89.6535923440481,143.981850321069,0.));
#546=CARTESIAN_POINT('Ctrl Pts',(91.386918901537,143.584939253526,3.80952380952381));
#547=CARTESIAN_POINT('Ctrl Pts',(93.9869170244224,142.989575848208,9.52380952380953));
#548=CARTESIAN_POINT('Ctrl Pts',(96.8035745646359,142.344596090185,15.7142857142857));
#549=CARTESIAN_POINT('Ctrl Pts',(98.1035704503751,142.046913162721,18.5714285714286));
#550=CARTESIAN_POINT('Ctrl Pts',(98.5369023548291,141.947685498072,19.5238095238095));
#551=CARTESIAN_POINT('Ctrl Pts',(98.7535681745152,141.898071614629,20.));
#552=CARTESIAN_POINT('Ctrl Pts',(88.8742072215421,141.084408690417,0.));
#553=CARTESIAN_POINT('Ctrl Pts',(90.5735895955363,140.562320609994,3.80952380952381));
#554=CARTESIAN_POINT('Ctrl Pts',(93.122661666255,139.77920528996,9.52380952380952));
#555=CARTESIAN_POINT('Ctrl Pts',(95.8841576851238,138.930815979545,15.7142857142857));
#556=CARTESIAN_POINT('Ctrl Pts',(97.1586942916021,138.539251881014,18.5714285714286));
#557=CARTESIAN_POINT('Ctrl Pts',(97.5835398374283,138.408730398342,19.5238095238095));
#558=CARTESIAN_POINT('Ctrl Pts',(97.7959626341776,138.343469388289,20.));
#559=CARTESIAN_POINT('Ctrl Pts',(87.9214981658717,138.307743721442,0.));
#560=CARTESIAN_POINT('Ctrl Pts',(89.5847160816306,137.681137162742,3.80952380952381));
#561=CARTESIAN_POINT('Ctrl Pts',(92.0795536494363,136.741227617847,9.52380952380953));
#562=CARTESIAN_POINT('Ctrl Pts',(94.7822851942812,135.722992026619,15.7142857142857));
#563=CARTESIAN_POINT('Ctrl Pts',(96.0296998798457,135.253037141825,18.5714285714286));
#564=CARTESIAN_POINT('Ctrl Pts',(96.4455047008812,135.096385511527,19.5238095238095));
#565=CARTESIAN_POINT('Ctrl Pts',(96.6534069403511,135.01805969169,20.));
#566=CARTESIAN_POINT('Ctrl Pts',(86.6614389819512,135.211677724325,0.));
#567=CARTESIAN_POINT('Ctrl Pts',(88.2855960110295,134.489951503099,3.80952380952382));
#568=CARTESIAN_POINT('Ctrl Pts',(90.7218184023428,133.40739034777,9.52380952380952));
#569=CARTESIAN_POINT('Ctrl Pts',(93.3610705839049,132.234591645307,15.7142857142857));
#570=CARTESIAN_POINT('Ctrl Pts',(94.5791868199347,131.693300269526,18.5714285714286));
#571=CARTESIAN_POINT('Ctrl Pts',(94.9852256564752,131.512869615558,19.5238095238095));
#572=CARTESIAN_POINT('Ctrl Pts',(95.18824528511,131.422653837904,20.));
#573=CARTESIAN_POINT('Ctrl Pts',(85.0906389811836,131.876622199127,0.));
#574=CARTESIAN_POINT('Ctrl Pts',(86.6821886425246,131.087209265809,3.8095238095238));
#575=CARTESIAN_POINT('Ctrl Pts',(89.0695261757139,129.903076710419,9.52380952380953));
#576=CARTESIAN_POINT('Ctrl Pts',(91.6557973408142,128.62027770238,15.7142857142857));
#577=CARTESIAN_POINT('Ctrl Pts',(92.8494611096229,128.028216466249,18.5714285714286));
#578=CARTESIAN_POINT('Ctrl Pts',(93.2473489421324,127.830862812091,19.5238095238095));
#579=CARTESIAN_POINT('Ctrl Pts',(93.4462926498001,127.732186195426,20.));
#580=CARTESIAN_POINT('Ctrl Pts',(83.3872450229403,128.512022716277,0.));
#581=CARTESIAN_POINT('Ctrl Pts',(84.9717140878785,127.708922708382,3.80952380952381));
#582=CARTESIAN_POINT('Ctrl Pts',(87.3483903904335,126.504363021465,9.52380952380953));
#583=CARTESIAN_POINT('Ctrl Pts',(89.9231464144072,125.199346047536,15.7142857142857));
#584=CARTESIAN_POINT('Ctrl Pts',(91.1114950259233,124.597031588749,18.5714285714286));
#585=CARTESIAN_POINT('Ctrl Pts',(91.5076114190227,124.39625947618,19.5238095238095));
#586=CARTESIAN_POINT('Ctrl Pts',(91.70567005214,124.295871975193,20.));
#587=CARTESIAN_POINT('Ctrl Pts',(81.9036622394441,125.477916373745,0.));
#588=CARTESIAN_POINT('Ctrl Pts',(83.5145083983878,124.727382022119,3.8095238095238));
#589=CARTESIAN_POINT('Ctrl Pts',(85.9306576249043,123.601536921864,9.52380952380953));
#590=CARTESIAN_POINT('Ctrl Pts',(88.5482553437944,122.381908692489,15.7142857142857));
#591=CARTESIAN_POINT('Ctrl Pts',(89.7563759493549,121.819002840823,18.5714285714286));
#592=CARTESIAN_POINT('Ctrl Pts',(90.1590836500298,121.631367859065,19.5238095238095));
#593=CARTESIAN_POINT('Ctrl Pts',(90.3604394198978,121.537551065112,20.));
#594=CARTESIAN_POINT('Ctrl Pts',(80.9340725046548,123.182020952393,0.));
#595=CARTESIAN_POINT('Ctrl Pts',(82.5913612750765,122.537125978475,3.80952380952381));
#596=CARTESIAN_POINT('Ctrl Pts',(85.0773885142333,121.569808027156,9.52380952380952));
#597=CARTESIAN_POINT('Ctrl Pts',(87.770504159733,120.521859267744,15.7142857142857));
#598=CARTESIAN_POINT('Ctrl Pts',(89.013481723571,120.038190899258,18.5714285714286));
#599=CARTESIAN_POINT('Ctrl Pts',(89.4278069258146,119.876967939814,19.5238095238095));
#600=CARTESIAN_POINT('Ctrl Pts',(89.6349680221173,119.796356068075,20.));
#601=CARTESIAN_POINT('Ctrl Pts',(80.343953823634,121.411988323659,0.));
#602=CARTESIAN_POINT('Ctrl Pts',(82.0467521819089,120.901138550126,3.8095238095238));
#603=CARTESIAN_POINT('Ctrl Pts',(84.6009497589331,120.134854826487,9.52380952380953));
#604=CARTESIAN_POINT('Ctrl Pts',(87.3679971001371,119.304721883592,15.7142857142857));
#605=CARTESIAN_POINT('Ctrl Pts',(88.6450958734687,118.921583495126,18.5714285714286));
#606=CARTESIAN_POINT('Ctrl Pts',(89.0707954643046,118.793870761816,19.5238095238095));
#607=CARTESIAN_POINT('Ctrl Pts',(89.283645259089,118.730014540124,20.));
#608=CARTESIAN_POINT('Ctrl Pts',(80.0554469365072,120.304127023842,0.));
#609=CARTESIAN_POINT('Ctrl Pts',(81.7871363821562,119.902497187349,3.80952380952381));
#610=CARTESIAN_POINT('Ctrl Pts',(84.3847332952097,119.300101393131,9.52380952380952));
#611=CARTESIAN_POINT('Ctrl Pts',(87.1987429118206,118.647464041917,15.7142857142857));
#612=CARTESIAN_POINT('Ctrl Pts',(88.4975173226676,118.346247381609,18.5714285714286));
#613=CARTESIAN_POINT('Ctrl Pts',(88.9304416912164,118.245841488684,19.5238095238095));
#614=CARTESIAN_POINT('Ctrl Pts',(89.1469028719226,118.195637759123,20.));
#615=CARTESIAN_POINT('Ctrl Pts',(79.8805805646398,119.400810884251,0.));
#616=CARTESIAN_POINT('Ctrl Pts',(81.6330779556066,119.105629190036,3.80952380952381));
#617=CARTESIAN_POINT('Ctrl Pts',(84.2618040352059,118.662829007718,9.52380952380953));
#618=CARTESIAN_POINT('Ctrl Pts',(87.1096077461878,118.183152469358,15.7142857142857));
#619=CARTESIAN_POINT('Ctrl Pts',(88.4239784532366,117.96176297109,18.5714285714286));
#620=CARTESIAN_POINT('Ctrl Pts',(88.8621021609791,117.887966663328,19.5238095238095));
#621=CARTESIAN_POINT('Ctrl Pts',(89.0811643348499,117.851068951552,20.));
#622=CARTESIAN_POINT('Ctrl Pts',(79.746910832651,118.455511142138,0.));
#623=CARTESIAN_POINT('Ctrl Pts',(81.5171704282781,118.284793364199,3.80952380952381));
#624=CARTESIAN_POINT('Ctrl Pts',(84.1725812859572,118.028783314027,9.52380952380952));
#625=CARTESIAN_POINT('Ctrl Pts',(87.0492580095843,117.751382072793,15.7142857142857));
#626=CARTESIAN_POINT('Ctrl Pts',(88.3769552126583,117.623351518096,18.5714285714286));
#627=CARTESIAN_POINT('Ctrl Pts',(88.8195207981847,117.580674204615,19.5238095238095));
#628=CARTESIAN_POINT('Ctrl Pts',(89.040803247638,117.559334482372,20.));
#629=CARTESIAN_POINT('Ctrl Pts',(79.6808496377845,117.293715092384,0.));
#630=CARTESIAN_POINT('Ctrl Pts',(81.46205176525,117.299816167863,3.8095238095238));
#631=CARTESIAN_POINT('Ctrl Pts',(84.1339105013193,117.308901074492,9.52380952380953));
#632=CARTESIAN_POINT('Ctrl Pts',(87.0283765887471,117.318800153797,15.7142857142857));
#633=CARTESIAN_POINT('Ctrl Pts',(88.364284670255,117.323368171157,18.5714285714286));
#634=CARTESIAN_POINT('Ctrl Pts',(88.8095869789464,117.32489130615,19.5238095238095));
#635=CARTESIAN_POINT('Ctrl Pts',(89.0322372448796,117.325653940585,20.));
#636=CARTESIAN_POINT('Ctrl Pts',(79.7760141855131,115.928142223316,0.));
#637=CARTESIAN_POINT('Ctrl Pts',(81.5414563302357,116.171107820001,3.80952380952381));
#638=CARTESIAN_POINT('Ctrl Pts',(84.1895322013007,116.535575932285,9.52380952380952));
#639=CARTESIAN_POINT('Ctrl Pts',(87.0583558249454,116.930399510388,15.7142857142857));
#640=CARTESIAN_POINT('Ctrl Pts',(88.3824272341963,117.112626010262,18.5714285714286));
#641=CARTESIAN_POINT('Ctrl Pts',(88.8237849762648,117.173368040169,19.5238095238095));
#642=CARTESIAN_POINT('Ctrl Pts',(89.0444652443552,117.203738739755,20.));
#643=CARTESIAN_POINT('Ctrl Pts',(80.0564741070743,114.588460893325,0.));
#644=CARTESIAN_POINT('Ctrl Pts',(81.7707544085557,115.076343053041,3.8095238095238));
#645=CARTESIAN_POINT('Ctrl Pts',(84.3422589174273,115.808199388651,9.52380952380953));
#646=CARTESIAN_POINT('Ctrl Pts',(87.1279835208975,116.601015423867,15.7142857142857));
#647=CARTESIAN_POINT('Ctrl Pts',(88.413703562204,116.966930908239,18.5714285714286));
#648=CARTESIAN_POINT('Ctrl Pts',(88.8422763264628,117.088902506878,19.5238095238095));
#649=CARTESIAN_POINT('Ctrl Pts',(89.0565613641479,117.149887776842,20.));
#650=CARTESIAN_POINT('Ctrl Pts',(80.531428655499,113.272382280525,0.));
#651=CARTESIAN_POINT('Ctrl Pts',(82.1607370892988,113.993993686462,3.80952380952381));
#652=CARTESIAN_POINT('Ctrl Pts',(84.6046636354362,115.076307766615,9.52380952380951));
#653=CARTESIAN_POINT('Ctrl Pts',(87.2522816305783,116.248902873652,15.7142857142857));
#654=CARTESIAN_POINT('Ctrl Pts',(88.4742587400412,116.790099397559,18.5714285714286));
#655=CARTESIAN_POINT('Ctrl Pts',(88.8815846935422,116.970498953256,19.5238095238095));
#656=CARTESIAN_POINT('Ctrl Pts',(89.0852482477672,117.060700378998,20.));
#657=CARTESIAN_POINT('Ctrl Pts',(81.2084073681161,111.978017356747,0.));
#658=CARTESIAN_POINT('Ctrl Pts',(82.7281682085917,112.906784047343,3.80952380952381));
#659=CARTESIAN_POINT('Ctrl Pts',(85.0078395374353,114.300019753958,9.52380952380953));
#660=CARTESIAN_POINT('Ctrl Pts',(87.4774577403722,115.809285106761,15.7142857142857));
#661=CARTESIAN_POINT('Ctrl Pts',(88.6172818817489,116.505870128377,18.5714285714286));
#662=CARTESIAN_POINT('Ctrl Pts',(88.9972230537173,116.738064541547,19.5238095238095));
#663=CARTESIAN_POINT('Ctrl Pts',(89.1871931587768,116.854160377871,20.));
#664=CARTESIAN_POINT('Ctrl Pts',(82.0936339159674,110.703785943314,0.));
#665=CARTESIAN_POINT('Ctrl Pts',(83.4917180650601,111.805670006046,3.80952380952381));
#666=CARTESIAN_POINT('Ctrl Pts',(85.5888783268303,113.458419638822,9.52380952380952));
#667=CARTESIAN_POINT('Ctrl Pts',(87.8607728090047,115.248963854293,15.7142857142857));
#668=CARTESIAN_POINT('Ctrl Pts',(88.9093398954165,116.075367973044,18.5714285714286));
#669=CARTESIAN_POINT('Ctrl Pts',(89.2588620215356,116.350836542806,19.5238095238095));
#670=CARTESIAN_POINT('Ctrl Pts',(89.4336225401722,116.488572050647,20.));
#671=CARTESIAN_POINT('Ctrl Pts',(83.1920344627369,109.448410247408,0.));
#672=CARTESIAN_POINT('Ctrl Pts',(84.4671687676997,110.689140840961,3.80952380952381));
#673=CARTESIAN_POINT('Ctrl Pts',(86.3799163129548,112.550321031307,9.52380952380953));
#674=CARTESIAN_POINT('Ctrl Pts',(88.4520200383835,114.566527414732,15.7142857142857));
#675=CARTESIAN_POINT('Ctrl Pts',(89.4083761487248,115.49708520351,18.5714285714286));
#676=CARTESIAN_POINT('Ctrl Pts',(89.7271611992686,115.807270548571,19.5238095238095));
#677=CARTESIAN_POINT('Ctrl Pts',(89.886552987389,115.962361872765,20.));
#678=CARTESIAN_POINT('Ctrl Pts',(84.5075972240556,108.21082515142,0.));
#679=CARTESIAN_POINT('Ctrl Pts',(85.6659358984624,109.560362954082,3.80952380952381));
#680=CARTESIAN_POINT('Ctrl Pts',(87.4034260574906,111.584619016859,9.52380952380952));
#681=CARTESIAN_POINT('Ctrl Pts',(89.2857223439197,113.777606430926,15.7142857142857));
#682=CARTESIAN_POINT('Ctrl Pts',(90.1544742651,114.789753869608,18.5714285714286));
#683=CARTESIAN_POINT('Ctrl Pts',(90.4440583626154,115.127136700311,19.5238095238095));
#684=CARTESIAN_POINT('Ctrl Pts',(90.5888506969163,115.295828925644,20.));
#685=CARTESIAN_POINT('Ctrl Pts',(86.555145951781,106.583342001435,0.));
#686=CARTESIAN_POINT('Ctrl Pts',(87.5707273646744,108.045051089264,3.80952380952381));
#687=CARTESIAN_POINT('Ctrl Pts',(89.0942481204653,110.237807155786,9.52380952380953));
#688=CARTESIAN_POINT('Ctrl Pts',(90.7446017147206,112.613128181072,15.7142857142857));
#689=CARTESIAN_POINT('Ctrl Pts',(91.5063051304929,113.709432467325,18.5714285714286));
#690=CARTESIAN_POINT('Ctrl Pts',(91.7602052384482,114.074865895079,19.5238095238095));
#691=CARTESIAN_POINT('Ctrl Pts',(91.8871529150599,114.257579531058,20.));
#692=CARTESIAN_POINT('Ctrl Pts',(89.670734652198,104.589712218399,0.));
#693=CARTESIAN_POINT('Ctrl Pts',(90.5362919239107,106.144329776632,3.80952380952381));
#694=CARTESIAN_POINT('Ctrl Pts',(91.8345501819871,108.476082443923,9.52380952380952));
#695=CARTESIAN_POINT('Ctrl Pts',(93.2410630918748,111.002296485379,15.7142857142857));
#696=CARTESIAN_POINT('Ctrl Pts',(93.8902219786201,112.168239374806,18.5714285714286));
#697=CARTESIAN_POINT('Ctrl Pts',(94.1066088126183,112.556888208833,19.5238095238095));
#698=CARTESIAN_POINT('Ctrl Pts',(94.2148034715824,112.751215403612,20.));
#699=CARTESIAN_POINT('Ctrl Pts',(94.3093179988708,102.259301406137,0.));
#700=CARTESIAN_POINT('Ctrl Pts',(95.0357151087214,103.882225746269,3.80952380952381));
#701=CARTESIAN_POINT('Ctrl Pts',(96.1252788166291,106.316753645878,9.52380952380952));
#702=CARTESIAN_POINT('Ctrl Pts',(97.3056668534939,108.954037848998,15.7142857142857));
#703=CARTESIAN_POINT('Ctrl Pts',(97.8504609543162,110.171247613972,18.5714285714286));
#704=CARTESIAN_POINT('Ctrl Pts',(98.0320592095105,110.576983221911,19.5238095238095));
#705=CARTESIAN_POINT('Ctrl Pts',(98.1228588482418,110.779848764427,20.));
#706=CARTESIAN_POINT('Ctrl Pts',(98.0029222000229,100.746343954044,0.));
#707=CARTESIAN_POINT('Ctrl Pts',(98.6570976932033,102.398259044095,3.80952380952381));
#708=CARTESIAN_POINT('Ctrl Pts',(99.6383949142262,104.876180645929,9.52380952380952));
#709=CARTESIAN_POINT('Ctrl Pts',(100.701437817609,107.560553801766,15.7142857142857));
#710=CARTESIAN_POINT('Ctrl Pts',(101.192073405445,108.799495837094,18.5714285714286));
#711=CARTESIAN_POINT('Ctrl Pts',(101.355618365767,109.212476176005,19.5238095238095));
#712=CARTESIAN_POINT('Ctrl Pts',(101.437390302414,109.418965562261,20.));
#713=CARTESIAN_POINT('Ctrl Pts',(100.,100.,0.));
#714=CARTESIAN_POINT('Ctrl Pts',(100.621868616536,101.66400491604,3.80952380952381));
#715=CARTESIAN_POINT('Ctrl Pts',(101.55467154134,104.1600122901,9.52380952380953));
#716=CARTESIAN_POINT('Ctrl Pts',(102.565208043211,106.864020278666,15.7142857142857));
#717=CARTESIAN_POINT('Ctrl Pts',(103.031609505613,108.112023965696,18.5714285714286));
#718=CARTESIAN_POINT('Ctrl Pts',(103.187076659747,108.528025194706,19.5238095238095));
#719=CARTESIAN_POINT('Ctrl Pts',(103.264810236814,108.736025809211,20.));
#720=CARTESIAN_POINT('',(98.3624234859065,110.740038599718,20.));
#721=CARTESIAN_POINT('',(9.32615316309997,3.7584764486915,20.));
#722=CARTESIAN_POINT('Ctrl Pts',(98.3624328978991,110.74008413808,20.));
#723=CARTESIAN_POINT('Ctrl Pts',(98.3416368895296,110.749454718889,20.));
#724=CARTESIAN_POINT('Ctrl Pts',(98.3208756333657,110.758823038056,20.));
#725=CARTESIAN_POINT('Ctrl Pts',(98.3001491490084,110.768189070417,20.));
#726=CARTESIAN_POINT('Ctrl Pts',(96.8201737226887,111.436970977489,20.));
#727=CARTESIAN_POINT('Ctrl Pts',(95.5174885971356,112.09409319055,20.));
#728=CARTESIAN_POINT('Ctrl Pts',(94.4006159230545,112.72392712257,20.));
#729=CARTESIAN_POINT('Ctrl Pts',(93.2837432489734,113.35376105459,20.));
#730=CARTESIAN_POINT('Ctrl Pts',(92.3526830263644,113.956306705569,20.));
#731=CARTESIAN_POINT('Ctrl Pts',(91.6095622127802,114.503238387424,20.));
#732=CARTESIAN_POINT('Ctrl Pts',(91.2380018059881,114.776704228351,20.));
#733=CARTESIAN_POINT('Ctrl Pts',(90.9134262514522,115.036266576998,20.));
#734=CARTESIAN_POINT('Ctrl Pts',(90.6340888559297,115.277136575841,20.));
#735=CARTESIAN_POINT('Ctrl Pts',(90.3547514604072,115.518006574685,20.));
#736=CARTESIAN_POINT('Ctrl Pts',(90.1206522238981,115.740184223725,20.));
#737=CARTESIAN_POINT('Ctrl Pts',(89.928114197774,115.938974744559,20.));
#738=CARTESIAN_POINT('Ctrl Pts',(89.73557617165,116.137765265393,20.));
#739=CARTESIAN_POINT('Ctrl Pts',(89.5845993559111,116.31316865802,20.));
#740=CARTESIAN_POINT('Ctrl Pts',(89.4680393844757,116.461801742204,20.));
#741=CARTESIAN_POINT('Ctrl Pts',(89.3514794130404,116.610434826388,20.));
#742=CARTESIAN_POINT('Ctrl Pts',(89.2693362859086,116.73229760213,20.));
#743=CARTESIAN_POINT('Ctrl Pts',(89.2112739038411,116.827652323522,20.));
#744=CARTESIAN_POINT('Ctrl Pts',(89.1532115217736,116.923007044914,20.));
#745=CARTESIAN_POINT('Ctrl Pts',(89.1192298847704,116.991853711956,20.));
#746=CARTESIAN_POINT('Ctrl Pts',(89.0974579189989,117.041141611784,20.));
#747=CARTESIAN_POINT('Ctrl Pts',(89.0756859532274,117.090429511613,20.));
#748=CARTESIAN_POINT('Ctrl Pts',(89.0661236586877,117.120158644228,20.));
#749=CARTESIAN_POINT('Ctrl Pts',(89.0593264914523,117.14399837102,20.));
#750=CARTESIAN_POINT('Ctrl Pts',(89.052529324217,117.167838097813,20.));
#751=CARTESIAN_POINT('Ctrl Pts',(89.0484972842861,117.185788418784,20.));
#752=CARTESIAN_POINT('Ctrl Pts',(89.044443264408,117.215082779408,20.));
#753=CARTESIAN_POINT('Ctrl Pts',(89.04038924453,117.244377140032,20.));
#754=CARTESIAN_POINT('Ctrl Pts',(89.0363132447048,117.285015540308,20.));
#755=CARTESIAN_POINT('Ctrl Pts',(89.0359884453439,117.352070848804,20.));
#756=CARTESIAN_POINT('Ctrl Pts',(89.035663645983,117.4191261573,20.));
#757=CARTESIAN_POINT('Ctrl Pts',(89.0390900470864,117.512598374015,20.));
#758=CARTESIAN_POINT('Ctrl Pts',(89.0536858765248,117.641000602646,20.));
#759=CARTESIAN_POINT('Ctrl Pts',(89.060983791244,117.705201716962,20.));
#760=CARTESIAN_POINT('Ctrl Pts',(89.0710740630469,117.778135334257,20.));
#761=CARTESIAN_POINT('Ctrl Pts',(89.0848198876786,117.860206838024,20.));
#762=CARTESIAN_POINT('Ctrl Pts',(89.0985657123103,117.942278341791,20.));
#763=CARTESIAN_POINT('Ctrl Pts',(89.1159670897707,118.03348773203,20.));
#764=CARTESIAN_POINT('Ctrl Pts',(89.1379099551117,118.134090541063,20.));
#765=CARTESIAN_POINT('Ctrl Pts',(89.1769194934957,118.312939979343,20.));
#766=CARTESIAN_POINT('Ctrl Pts',(89.2302823762923,118.521477259733,20.));
#767=CARTESIAN_POINT('Ctrl Pts',(89.3008791630692,118.759038590923,20.));
#768=CARTESIAN_POINT('Ctrl Pts',(89.371475949846,118.996599922112,20.));
#769=CARTESIAN_POINT('Ctrl Pts',(89.4593066406031,119.263185304099,20.));
#770=CARTESIAN_POINT('Ctrl Pts',(89.5662251942932,119.55698855856,20.));
#771=CARTESIAN_POINT('Ctrl Pts',(89.7800623016734,120.144595067482,20.));
#772=CARTESIAN_POINT('Ctrl Pts',(90.0702508607856,120.841073066297,20.));
#773=CARTESIAN_POINT('Ctrl Pts',(90.4305820415004,121.630643411317,20.));
#774=CARTESIAN_POINT('Ctrl Pts',(90.7909132222153,122.420213756338,20.));
#775=CARTESIAN_POINT('Ctrl Pts',(91.2213870245328,123.302876447564,20.));
#776=CARTESIAN_POINT('Ctrl Pts',(91.7013207711223,124.267734320509,20.));
#777=CARTESIAN_POINT('Ctrl Pts',(92.2412462360354,125.353199427572,20.));
#778=CARTESIAN_POINT('Ctrl Pts',(92.8437694429178,126.542692811499,20.));
#779=CARTESIAN_POINT('Ctrl Pts',(93.4716471654795,127.829402186427,20.));
#780=CARTESIAN_POINT('Ctrl Pts',(94.0995248880413,129.116111561355,20.));
#781=CARTESIAN_POINT('Ctrl Pts',(94.7527571262825,130.500036927285,20.));
#782=CARTESIAN_POINT('Ctrl Pts',(95.3908058757838,131.978140007487,20.));
#783=CARTESIAN_POINT('Ctrl Pts',(95.8161717087847,132.963542060955,20.));
#784=CARTESIAN_POINT('Ctrl Pts',(96.2347893245679,133.990800876323,20.));
#785=CARTESIAN_POINT('Ctrl Pts',(96.6345240814306,135.058665233439,20.));
#786=CARTESIAN_POINT('Ctrl Pts',(97.0342588382932,136.126529590556,20.));
#787=CARTESIAN_POINT('Ctrl Pts',(97.4151107362354,137.234999489423,20.));
#788=CARTESIAN_POINT('Ctrl Pts',(97.7651376085961,138.381668143246,20.));
#789=CARTESIAN_POINT('Ctrl Pts',(98.1151644809568,139.528336797069,20.));
#790=CARTESIAN_POINT('Ctrl Pts',(98.434366327736,140.713204205849,20.));
#791=CARTESIAN_POINT('Ctrl Pts',(98.7116349918602,141.931938332307,20.));
#792=CARTESIAN_POINT('Ctrl Pts',(98.9889036559844,143.150672458764,20.));
#793=CARTESIAN_POINT('Ctrl Pts',(99.2242391374537,144.403273302899,20.));
#794=CARTESIAN_POINT('Ctrl Pts',(99.4082589684627,145.683343806004,20.));
#795=CARTESIAN_POINT('Ctrl Pts',(99.5922787994717,146.963414309109,20.));
#796=CARTESIAN_POINT('Ctrl Pts',(99.7249829800204,148.270954471183,20.));
#797=CARTESIAN_POINT('Ctrl Pts',(99.7995801028613,149.597790522557,20.));
#798=CARTESIAN_POINT('Ctrl Pts',(99.8741772257021,150.924626573931,20.));
#799=CARTESIAN_POINT('Ctrl Pts',(99.8906672908349,152.270758514604,20.));
#800=CARTESIAN_POINT('Ctrl Pts',(99.8452535354595,153.627444471921,20.));
#801=CARTESIAN_POINT('Ctrl Pts',(99.7998397800841,154.984130429238,20.));
#802=CARTESIAN_POINT('Ctrl Pts',(99.6925222042004,156.3513704032,20.));
#803=CARTESIAN_POINT('Ctrl Pts',(99.5221012255806,157.720356690686,20.));
#804=CARTESIAN_POINT('Ctrl Pts',(99.3516802469609,159.089342978172,20.));
#805=CARTESIAN_POINT('Ctrl Pts',(99.1181558656049,160.460075579183,20.));
#806=CARTESIAN_POINT('Ctrl Pts',(98.8226400594006,161.824110306042,20.));
#807=CARTESIAN_POINT('Ctrl Pts',(98.5271242531963,163.188145032901,20.));
#808=CARTESIAN_POINT('Ctrl Pts',(98.1696170221436,164.545481885609,20.));
#809=CARTESIAN_POINT('Ctrl Pts',(97.7525127549244,165.888057245465,20.));
#810=CARTESIAN_POINT('Ctrl Pts',(96.9183042204862,168.573207965176,20.));
#811=CARTESIAN_POINT('Ctrl Pts',(95.8457075413824,171.199312713478,20.));
#812=CARTESIAN_POINT('Ctrl Pts',(94.5609093837414,173.710014004732,20.));
#813=CARTESIAN_POINT('Ctrl Pts',(93.2761112261004,176.220715295986,20.));
#814=CARTESIAN_POINT('Ctrl Pts',(91.7791115899221,178.616013130191,20.));
#815=CARTESIAN_POINT('Ctrl Pts',(90.0882217522015,180.840013807318,20.));
#816=CARTESIAN_POINT('Ctrl Pts',(88.9609618603878,182.322680925402,20.));
#817=CARTESIAN_POINT('Ctrl Pts',(87.7475285456664,183.729215973674,20.));
#818=CARTESIAN_POINT('Ctrl Pts',(86.4468596329596,185.041086486529,20.));
#819=CARTESIAN_POINT('Ctrl Pts',(85.1461907202528,186.352956999385,20.));
#820=CARTESIAN_POINT('Ctrl Pts',(83.7582862095606,187.570162976825,20.));
#821=CARTESIAN_POINT('Ctrl Pts',(82.2747261372322,188.667113268252,20.));
#822=CARTESIAN_POINT('Ctrl Pts',(81.532946101068,189.215588413965,20.));
#823=CARTESIAN_POINT('Ctrl Pts',(80.7672521744948,189.733999638175,20.));
#824=CARTESIAN_POINT('Ctrl Pts',(79.9756187676903,190.217480146112,20.));
#825=CARTESIAN_POINT('Ctrl Pts',(79.1839853608859,190.700960654048,20.));
#826=CARTESIAN_POINT('Ctrl Pts',(78.3664124738503,191.149510445711,20.));
#827=CARTESIAN_POINT('Ctrl Pts',(77.5217573776178,191.556821397625,20.));
#828=CARTESIAN_POINT('Ctrl Pts',(77.0994298295016,191.760476873582,20.));
#829=CARTESIAN_POINT('Ctrl Pts',(76.6703317290861,191.953822639601,20.));
#830=CARTESIAN_POINT('Ctrl Pts',(76.2341914309877,192.135938225481,20.));
#831=CARTESIAN_POINT('Ctrl Pts',(74.9257705366924,192.682284983121,20.));
#832=CARTESIAN_POINT('Ctrl Pts',(73.55396986325,193.127560119505,20.));
#833=CARTESIAN_POINT('Ctrl Pts',(72.1248491639781,193.438844005497,20.));
#834=CARTESIAN_POINT('Ctrl Pts',(71.1721020311302,193.646366596157,20.));
#835=CARTESIAN_POINT('Ctrl Pts',(70.193879331247,193.794337519977,20.));
#836=CARTESIAN_POINT('Ctrl Pts',(69.1982002411862,193.871854001608,20.));
#837=CARTESIAN_POINT('Ctrl Pts',(68.2025211511255,193.94937048324,20.));
#838=CARTESIAN_POINT('Ctrl Pts',(67.1893856708872,193.956432522684,20.));
#839=CARTESIAN_POINT('Ctrl Pts',(66.1720086471993,193.885079862835,20.));
#840=CARTESIAN_POINT('Ctrl Pts',(65.1546316235114,193.813727202985,20.));
#841=CARTESIAN_POINT('Ctrl Pts',(64.1330130563738,193.663959843843,20.));
#842=CARTESIAN_POINT('Ctrl Pts',(63.1246114773996,193.434002778618,20.));
#843=CARTESIAN_POINT('Ctrl Pts',(62.1162098984254,193.204045713393,20.));
#844=CARTESIAN_POINT('Ctrl Pts',(61.1210253076145,192.893898942084,20.));
#845=CARTESIAN_POINT('Ctrl Pts',(60.1552240979107,192.509463058871,20.));
#846=CARTESIAN_POINT('Ctrl Pts',(59.4308731906327,192.22113614646,20.));
#847=CARTESIAN_POINT('Ctrl Pts',(58.7230504352275,191.891021608603,20.));
#848=CARTESIAN_POINT('Ctrl Pts',(58.0365313874279,191.523619589812,20.));
#849=CARTESIAN_POINT('Ctrl Pts',(57.3500123396283,191.156217571021,20.));
#850=CARTESIAN_POINT('Ctrl Pts',(56.6847969994344,190.751528071296,20.));
#851=CARTESIAN_POINT('Ctrl Pts',(56.0435294810082,190.314575920034,20.));
#852=CARTESIAN_POINT('Ctrl Pts',(55.402261962582,189.877623768772,20.));
#853=CARTESIAN_POINT('Ctrl Pts',(54.7849422659235,189.408408965973,20.));
#854=CARTESIAN_POINT('Ctrl Pts',(54.1919943718635,188.911384134333,20.));
#855=CARTESIAN_POINT('Ctrl Pts',(53.5990464778035,188.414359302693,20.));
#856=CARTESIAN_POINT('Ctrl Pts',(53.030470386342,187.889524442211,20.));
#857=CARTESIAN_POINT('Ctrl Pts',(52.4854618914644,187.340927646235,20.));
#858=CARTESIAN_POINT('Ctrl Pts',(51.3954449017093,186.243734054282,20.));
#859=CARTESIAN_POINT('Ctrl Pts',(50.39969829829,185.051492720351,20.));
#860=CARTESIAN_POINT('Ctrl Pts',(49.4824059708006,183.780832885183,20.));
#861=CARTESIAN_POINT('Ctrl Pts',(48.5651136433112,182.510173050015,20.));
#862=CARTESIAN_POINT('Ctrl Pts',(47.7262755917518,181.161094713609,20.));
#863=CARTESIAN_POINT('Ctrl Pts',(46.9499286880733,179.738691518369,20.));
#864=CARTESIAN_POINT('Ctrl Pts',(46.1735817843949,178.316288323128,20.));
#865=CARTESIAN_POINT('Ctrl Pts',(45.4597260285974,176.820560269053,20.));
#866=CARTESIAN_POINT('Ctrl Pts',(44.7970637473225,175.251982850491,20.));
#867=CARTESIAN_POINT('Ctrl Pts',(44.1344014660477,173.68340543193,20.));
#868=CARTESIAN_POINT('Ctrl Pts',(43.5229326592954,172.041978648883,20.));
#869=CARTESIAN_POINT('Ctrl Pts',(42.9548340910518,170.327490103273,20.));
#870=CARTESIAN_POINT('Ctrl Pts',(42.3867355228082,168.613001557663,20.));
#871=CARTESIAN_POINT('Ctrl Pts',(41.8620071930733,166.825451249489,20.));
#872=CARTESIAN_POINT('Ctrl Pts',(41.3755489865987,164.965812024628,20.));
#873=CARTESIAN_POINT('Ctrl Pts',(40.8890907801241,163.106172799767,20.));
#874=CARTESIAN_POINT('Ctrl Pts',(40.4409026969098,161.174444658218,20.));
#875=CARTESIAN_POINT('Ctrl Pts',(40.027035085808,159.172358386013,20.));
#876=CARTESIAN_POINT('Ctrl Pts',(39.1992998636045,155.168185841604,20.));
#877=CARTESIAN_POINT('Ctrl Pts',(38.508846529851,150.882580774572,20.));
#878=CARTESIAN_POINT('Ctrl Pts',(37.9327887739841,146.349022236751,20.));
#879=CARTESIAN_POINT('Ctrl Pts',(37.3567310181172,141.81546369893,20.));
#880=CARTESIAN_POINT('Ctrl Pts',(36.895068840137,137.033951690321,20.));
#881=CARTESIAN_POINT('Ctrl Pts',(36.5268512097215,132.054771348208,20.));
#882=CARTESIAN_POINT('Ctrl Pts',(36.1586335793061,127.075591006095,20.));
#883=CARTESIAN_POINT('Ctrl Pts',(35.8838604964555,121.898742330478,20.));
#884=CARTESIAN_POINT('Ctrl Pts',(35.6794751615505,116.586944620068,20.));
#885=CARTESIAN_POINT('Ctrl Pts',(35.4750898266454,111.275146909659,20.));
#886=CARTESIAN_POINT('Ctrl Pts',(35.3410922396858,105.828400164457,20.));
#887=CARTESIAN_POINT('Ctrl Pts',(35.2522114094549,100.316904690423,20.));
#888=CARTESIAN_POINT('Ctrl Pts',(35.1337036358136,92.9682440583777,20.));
#889=CARTESIAN_POINT('Ctrl Pts',(35.0954034296899,85.5044745750743,20.));
#890=CARTESIAN_POINT('Ctrl Pts',(35.0719897930642,78.1056701863226,20.));
#891=CARTESIAN_POINT('Ctrl Pts',(35.0602829747513,74.4062679919466,20.));
#892=CARTESIAN_POINT('Ctrl Pts',(35.0522977988129,70.7231070712087,20.));
#893=CARTESIAN_POINT('Ctrl Pts',(35.0395100030362,67.079549346828,20.));
#894=CARTESIAN_POINT('Ctrl Pts',(35.0203283093711,61.6142127602571,20.));
#895=CARTESIAN_POINT('Ctrl Pts',(34.9903407210696,56.2379833654904,20.));
#896=CARTESIAN_POINT('Ctrl Pts',(34.9214868580395,51.0293625452191,20.));
#897=CARTESIAN_POINT('Ctrl Pts',(34.8526329950094,45.8207417249478,20.));
#898=CARTESIAN_POINT('Ctrl Pts',(34.7449128572507,40.7797294791719,20.));
#899=CARTESIAN_POINT('Ctrl Pts',(34.5718367825377,35.984771728692,20.));
#900=CARTESIAN_POINT('Ctrl Pts',(34.3987607078247,31.1898139782121,20.));
#901=CARTESIAN_POINT('Ctrl Pts',(34.1603286961575,26.6409107230281,20.));
#902=CARTESIAN_POINT('Ctrl Pts',(33.8352875412673,22.4165322849761,20.));
#903=CARTESIAN_POINT('Ctrl Pts',(33.6727669638222,20.3043430659501,20.));
#904=CARTESIAN_POINT('Ctrl Pts',(33.4885941005713,18.273285051207,20.));
#905=CARTESIAN_POINT('Ctrl Pts',(33.2812115749332,16.3334457530671,20.));
#906=CARTESIAN_POINT('Ctrl Pts',(33.0738290492952,14.3936064549272,20.));
#907=CARTESIAN_POINT('Ctrl Pts',(32.8432368612699,12.5449858733905,20.));
#908=CARTESIAN_POINT('Ctrl Pts',(32.5886424844805,10.7978826946867,20.));
#909=CARTESIAN_POINT('Ctrl Pts',(32.2491833154279,8.4684117897483,20.));
#910=CARTESIAN_POINT('Ctrl Pts',(31.8670535885723,6.31941626762413,20.));
#911=CARTESIAN_POINT('Ctrl Pts',(31.4460952219354,4.37741401980003,20.));
#912=CARTESIAN_POINT('Ctrl Pts',(31.0251368552984,2.43541177197595,20.));
#913=CARTESIAN_POINT('Ctrl Pts',(30.5653498488803,0.700402798451942,20.));
#914=CARTESIAN_POINT('Ctrl Pts',(30.0827457754905,-0.799033946445588,20.));
#915=CARTESIAN_POINT('Ctrl Pts',(29.8414437387957,-1.54875231889436,20.));
#916=CARTESIAN_POINT('Ctrl Pts',(29.5944374353579,-2.23957763418652,20.));
#917=CARTESIAN_POINT('Ctrl Pts',(29.3462580537911,-2.86817611982816,20.));
#918=CARTESIAN_POINT('Ctrl Pts',(29.0980786722242,-3.49677460546979,20.));
#919=CARTESIAN_POINT('Ctrl Pts',(28.8487262125283,-4.0631462614609,20.));
#920=CARTESIAN_POINT('Ctrl Pts',(28.6040186299808,-4.56463585595468,20.));
#921=CARTESIAN_POINT('Ctrl Pts',(28.328722599615,-5.12881164976018,20.));
#922=CARTESIAN_POINT('Ctrl Pts',(28.0593052418902,-5.6108710844831,20.));
#923=CARTESIAN_POINT('Ctrl Pts',(27.8077538366883,-6.01079185480993,20.));
#924=CARTESIAN_POINT('Ctrl Pts',(27.5562024314864,-6.41071262513675,20.));
#925=CARTESIAN_POINT('Ctrl Pts',(27.3225169788073,-6.72849473106749,20.));
#926=CARTESIAN_POINT('Ctrl Pts',(27.1204951953647,-6.97137493469448,20.));
#927=CARTESIAN_POINT('Ctrl Pts',(26.9184734119221,-7.21425513832148,20.));
#928=CARTESIAN_POINT('Ctrl Pts',(26.7481152977159,-7.38223343964473,20.));
#929=CARTESIAN_POINT('Ctrl Pts',(26.6182771321937,-7.49557583396714,20.));
#930=CARTESIAN_POINT('Ctrl Pts',(26.4884389666715,-7.60891822828954,20.));
#931=CARTESIAN_POINT('Ctrl Pts',(26.3991207498333,-7.6676247156111,20.));
#932=CARTESIAN_POINT('Ctrl Pts',(26.3417999329616,-7.70118928611127,20.));
#933=CARTESIAN_POINT('Ctrl Pts',(26.3131395245258,-7.71797157136136,20.));
#934=CARTESIAN_POINT('Ctrl Pts',(26.2924784660816,-7.7284683774061,20.));
#935=CARTESIAN_POINT('Ctrl Pts',(26.2760102563108,-7.73607387211218,20.));
#936=CARTESIAN_POINT('Ctrl Pts',(26.2595420465401,-7.74367936681827,20.));
#937=CARTESIAN_POINT('Ctrl Pts',(26.2472666854428,-7.74839355018569,20.));
#938=CARTESIAN_POINT('Ctrl Pts',(26.2348134772946,-7.75265203676974,20.));
#939=CARTESIAN_POINT('Ctrl Pts',(26.2223602691464,-7.7569105233538,20.));
#940=CARTESIAN_POINT('Ctrl Pts',(26.2097292139471,-7.76071331315448,20.));
#941=CARTESIAN_POINT('Ctrl Pts',(26.1919721988221,-7.76480257837602,20.));
#942=CARTESIAN_POINT('Ctrl Pts',(26.174215183697,-7.76889184359756,20.));
#943=CARTESIAN_POINT('Ctrl Pts',(26.1513322086461,-7.77326758423996,20.));
#944=CARTESIAN_POINT('Ctrl Pts',(26.1181132611846,-7.77753472446786,20.));
#945=CARTESIAN_POINT('Ctrl Pts',(26.0516753662618,-7.78606900492366,20.));
#946=CARTESIAN_POINT('Ctrl Pts',(25.9438935816968,-7.79416888372145,20.));
#947=CARTESIAN_POINT('Ctrl Pts',(25.7684988125401,-7.78346224332324,20.));
#948=CARTESIAN_POINT('Ctrl Pts',(25.6808014279617,-7.77810892312413,20.));
#949=CARTESIAN_POINT('Ctrl Pts',(25.5762007972353,-7.76805397312602,20.));
#950=CARTESIAN_POINT('Ctrl Pts',(25.4538047141471,-7.75026393211694,20.));
#951=CARTESIAN_POINT('Ctrl Pts',(25.3314086310589,-7.73247389110786,20.));
#952=CARTESIAN_POINT('Ctrl Pts',(25.1912170956089,-7.70694875908782,20.));
#953=CARTESIAN_POINT('Ctrl Pts',(25.0325593989128,-7.67097035700929,20.));
#954=CARTESIAN_POINT('Ctrl Pts',(24.7152440055205,-7.59901355285224,20.));
#955=CARTESIAN_POINT('Ctrl Pts',(24.324063967144,-7.48524366846126,20.));
#956=CARTESIAN_POINT('Ctrl Pts',(23.8644870950193,-7.31349731293829,20.));
#957=CARTESIAN_POINT('Ctrl Pts',(23.4049102228946,-7.14175095741532,20.));
#958=CARTESIAN_POINT('Ctrl Pts',(22.8769365170216,-6.91202813076036,20.));
#959=CARTESIAN_POINT('Ctrl Pts',(22.289808767021,-6.61535231495426,20.));
#960=CARTESIAN_POINT('Ctrl Pts',(21.7026810170204,-6.31867649914816,20.));
#961=CARTESIAN_POINT('Ctrl Pts',(21.0563992228921,-5.95504769419092,20.));
#962=CARTESIAN_POINT('Ctrl Pts',(20.3593222065723,-5.52061642602802,20.));
#963=CARTESIAN_POINT('Ctrl Pts',(19.6622451902524,-5.08618515786511,20.));
#964=CARTESIAN_POINT('Ctrl Pts',(18.9143729517409,-4.58095142649652,20.));
#965=CARTESIAN_POINT('Ctrl Pts',(18.1230639050264,-4.00336932528264,20.));
#966=CARTESIAN_POINT('Ctrl Pts',(16.5404458115975,-2.84820512285488,20.));
#967=CARTESIAN_POINT('Ctrl Pts',(14.7840804853566,-1.40364744104591,20.));
#968=CARTESIAN_POINT('Ctrl Pts',(12.8889101039736,0.32782235436065,20.));
#969=CARTESIAN_POINT('Ctrl Pts',(11.7501569529032,1.36821255086818,20.));
#970=CARTESIAN_POINT('Ctrl Pts',(10.5612887774931,2.51219124810855,20.));
#971=CARTESIAN_POINT('Ctrl Pts',(9.32629205865639,3.75843114238539,20.));
#972=CARTESIAN_POINT('',(0.,0.,0.));
#973=CARTESIAN_POINT('Ctrl Pts',(-1.11022302462516E-15,2.63677968348475E-15,
0.));
#974=CARTESIAN_POINT('Ctrl Pts',(1.55356349476513,0.614129703332935,3.33162766597485));
#975=CARTESIAN_POINT('Ctrl Pts',(3.11063671643581,1.23505417352167,6.67078196556842));
#976=CARTESIAN_POINT('Ctrl Pts',(6.2163667099221,2.48601822858506,13.3310414298339));
#977=CARTESIAN_POINT('Ctrl Pts',(7.77417331337014,3.11974600505719,16.671768471763));
#978=CARTESIAN_POINT('Ctrl Pts',(9.32615316309997,3.7584764486915,20.));
#979=CARTESIAN_POINT('',(100.,100.,0.));
#980=CARTESIAN_POINT('Ctrl Pts',(100.,100.,0.));
#981=CARTESIAN_POINT('Ctrl Pts',(97.3159274368308,101.003086274235,0.));
#982=CARTESIAN_POINT('Ctrl Pts',(92.4002176687477,103.039780336769,0.));
#983=CARTESIAN_POINT('Ctrl Pts',(86.3837026894872,106.186488614759,0.));
#984=CARTESIAN_POINT('Ctrl Pts',(81.0850928792846,110.565020362413,0.));
#985=CARTESIAN_POINT('Ctrl Pts',(78.8112009645855,116.400393087083,0.));
#986=CARTESIAN_POINT('Ctrl Pts',(80.2853463801207,122.748830815008,0.));
#987=CARTESIAN_POINT('Ctrl Pts',(84.165616104396,129.941046509058,0.));
#988=CARTESIAN_POINT('Ctrl Pts',(88.4560634805996,138.402847509932,0.));
#989=CARTESIAN_POINT('Ctrl Pts',(91.1526043700666,148.32556433509,0.));
#990=CARTESIAN_POINT('Ctrl Pts',(90.6885255333299,159.439455321366,0.));
#991=CARTESIAN_POINT('Ctrl Pts',(86.5945924995357,170.642545197597,0.));
#992=CARTESIAN_POINT('Ctrl Pts',(79.608660578602,180.038865465896,0.));
#993=CARTESIAN_POINT('Ctrl Pts',(71.0749424527407,185.527955470405,0.));
#994=CARTESIAN_POINT('Ctrl Pts',(62.547727174141,185.228935510727,0.));
#995=CARTESIAN_POINT('Ctrl Pts',(55.268849831491,178.033468120509,0.));
#996=CARTESIAN_POINT('Ctrl Pts',(49.8479817158501,163.92649124517,0.));
#997=CARTESIAN_POINT('Ctrl Pts',(46.4290468288778,143.702911129,0.));
#998=CARTESIAN_POINT('Ctrl Pts',(44.7676988933065,118.800281426382,0.));
#999=CARTESIAN_POINT('Ctrl Pts',(44.3382626467261,91.0964687441681,0.));
#1000=CARTESIAN_POINT('Ctrl Pts',(44.4241661120964,62.7293268137131,0.));
#1001=CARTESIAN_POINT('Ctrl Pts',(44.2115737857908,35.9138096440924,0.));
#1002=CARTESIAN_POINT('Ctrl Pts',(42.8818718551415,12.7578945776721,0.));
#1003=CARTESIAN_POINT('Ctrl Pts',(39.6997467833923,-4.91180413015948,0.));
#1004=CARTESIAN_POINT('Ctrl Pts',(34.115138205038,-15.7568871973445,0.));
#1005=CARTESIAN_POINT('Ctrl Pts',(25.8280399630893,-19.0521604982572,0.));
#1006=CARTESIAN_POINT('Ctrl Pts',(16.9286279551828,-15.3934991790645,0.));
#1007=CARTESIAN_POINT('Ctrl Pts',(8.96454036268218,-9.08099673096712,0.));
#1008=CARTESIAN_POINT('Ctrl Pts',(3.08345945234836,-3.2906608760803,0.));
#1009=CARTESIAN_POINT('Ctrl Pts',(0.,0.,0.));
#1010=CARTESIAN_POINT('Ctrl Pts',(100.,100.,0.));
#1011=CARTESIAN_POINT('Ctrl Pts',(99.9401199788612,100.416097318527,0.790906735188589));
#1012=CARTESIAN_POINT('Ctrl Pts',(99.8797078677117,100.833287727867,1.58242000807525));
#1013=CARTESIAN_POINT('Ctrl Pts',(99.8187104765703,101.251385899359,2.37400553803065));
#1014=CARTESIAN_POINT('Ctrl Pts',(99.7596472944291,101.656226303083,3.14049012796673));
#1015=CARTESIAN_POINT('Ctrl Pts',(99.700035320297,102.061917887418,3.9070424651264));
#1016=CARTESIAN_POINT('Ctrl Pts',(99.6398732705816,102.468279265318,4.67317749988586));
#1017=CARTESIAN_POINT('Ctrl Pts',(99.5808050390953,102.867252505932,5.42538328072398));
#1018=CARTESIAN_POINT('Ctrl Pts',(99.5212064047988,103.26687151297,6.17718679533647));
#1019=CARTESIAN_POINT('Ctrl Pts',(99.4611237466852,103.666950370818,6.92812897235839));
#1020=CARTESIAN_POINT('Ctrl Pts',(99.402608741664,104.05659052841,7.65947786135162));
#1021=CARTESIAN_POINT('Ctrl Pts',(99.3436345650355,104.446666938032,8.39000977374333));
#1022=CARTESIAN_POINT('Ctrl Pts',(99.2842911472775,104.836992860826,9.11930064248275));
#1023=CARTESIAN_POINT('Ctrl Pts',(99.260446953046,104.993825875646,9.41232982385571));
#1024=CARTESIAN_POINT('Ctrl Pts',(99.2365436949631,105.150698993274,9.70515864696961));
#1025=CARTESIAN_POINT('Ctrl Pts',(99.2125894799242,105.307599341338,9.99775960345696));
#1026=CARTESIAN_POINT('Ctrl Pts',(99.1735753760849,105.563142111653,10.4743172398221));
#1027=CARTESIAN_POINT('Ctrl Pts',(99.1343875797623,105.819305312174,10.951329466478));
#1028=CARTESIAN_POINT('Ctrl Pts',(99.0949864526753,106.076015128914,11.4285714285714));
#1029=CARTESIAN_POINT('Ctrl Pts',(99.0453603350097,106.399343736833,12.0296625017658));
#1030=CARTESIAN_POINT('Ctrl Pts',(98.9953941583682,106.723539959376,12.6311180193786));
#1031=CARTESIAN_POINT('Ctrl Pts',(98.9450509945116,107.048445077063,13.2324887116029));
#1032=CARTESIAN_POINT('Ctrl Pts',(98.8955747790209,107.36775507638,13.8235033336276));
#1033=CARTESIAN_POINT('Ctrl Pts',(98.8457343095777,107.687749870972,14.4144360266264));
#1034=CARTESIAN_POINT('Ctrl Pts',(98.7955424994528,108.008264746798,15.0048603337114));
#1035=CARTESIAN_POINT('Ctrl Pts',(98.7465693385366,108.32099757215,15.5809492320348));
#1036=CARTESIAN_POINT('Ctrl Pts',(98.6972616116541,108.634225622204,16.1565541318046));
#1037=CARTESIAN_POINT('Ctrl Pts',(98.647678880101,108.947780981538,16.7312788909513));
#1038=CARTESIAN_POINT('Ctrl Pts',(98.6358384835088,109.022658256182,16.8685236305309));
#1039=CARTESIAN_POINT('Ctrl Pts',(98.6239826256207,109.09755412399,17.0057181793625));
#1040=CARTESIAN_POINT('Ctrl Pts',(98.6121125409807,109.172466158701,17.1428571428571));
#1041=CARTESIAN_POINT('Ctrl Pts',(98.5708310612071,109.432993336011,17.619795557312));
#1042=CARTESIAN_POINT('Ctrl Pts',(98.5293755399626,109.693716728798,18.096061671746));
#1043=CARTESIAN_POINT('Ctrl Pts',(98.4878142390193,109.954528445815,18.5714285714286));
#1044=CARTESIAN_POINT('Ctrl Pts',(98.446095027272,110.216331108424,19.0486016121042));
#1045=CARTESIAN_POINT('Ctrl Pts',(98.4042690569613,110.478222814774,19.5248685919733));
#1046=CARTESIAN_POINT('Ctrl Pts',(98.3624328978992,110.74008413808,20.));
#1047=CARTESIAN_POINT('Origin',(0.,0.,0.));
#1048=CARTESIAN_POINT('',(9.32615316309997,150.,20.));
#1049=CARTESIAN_POINT('',(9.32615316309997,0.,20.));
#1050=CARTESIAN_POINT('',(0.,150.,0.));
#1051=CARTESIAN_POINT('',(0.,150.,0.));
#1052=CARTESIAN_POINT('',(0.,0.,0.));
#1053=CARTESIAN_POINT('Origin',(62.5,150.,0.));
#1054=CARTESIAN_POINT('Origin',(62.5,150.,20.));
#1055=CARTESIAN_POINT('Origin',(62.5,150.,0.));
#1056=CARTESIAN_POINT('Origin',(62.5,96.7239197508714,20.));
#1057=CARTESIAN_POINT('Origin',(62.5,96.7239197508714,0.));
#1058=UNCERTAINTY_MEASURE_WITH_UNIT(LENGTH_MEASURE(0.01),#1062,
'DISTANCE_ACCURACY_VALUE',
'Maximum model space distance between geometric entities at asserted c
onnectivities');
#1059=UNCERTAINTY_MEASURE_WITH_UNIT(LENGTH_MEASURE(0.01),#1062,
'DISTANCE_ACCURACY_VALUE',
'Maximum model space distance between geometric entities at asserted c
onnectivities');
#1060=(
GEOMETRIC_REPRESENTATION_CONTEXT(3)
GLOBAL_UNCERTAINTY_ASSIGNED_CONTEXT((#1058))
GLOBAL_UNIT_ASSIGNED_CONTEXT((#1062,#1064,#1065))
REPRESENTATION_CONTEXT('','3D')
);
#1061=(
GEOMETRIC_REPRESENTATION_CONTEXT(3)
GLOBAL_UNCERTAINTY_ASSIGNED_CONTEXT((#1059))
GLOBAL_UNIT_ASSIGNED_CONTEXT((#1062,#1064,#1065))
REPRESENTATION_CONTEXT('','3D')
);
#1062=(
LENGTH_UNIT()
NAMED_UNIT(*)
SI_UNIT(.MILLI.,.METRE.)
);
#1063=(
LENGTH_UNIT()
NAMED_UNIT(*)
SI_UNIT($,.METRE.)
);
#1064=(
NAMED_UNIT(*)
PLANE_ANGLE_UNIT()
SI_UNIT($,.RADIAN.)
);
#1065=(
NAMED_UNIT(*)
SI_UNIT($,.STERADIAN.)
SOLID_ANGLE_UNIT()
);
#1066=SHAPE_DEFINITION_REPRESENTATION(#1067,#1068);
#1067=PRODUCT_DEFINITION_SHAPE('',$,#1070);
#1068=SHAPE_REPRESENTATION('',(#93),#1060);
#1069=PRODUCT_DEFINITION_CONTEXT('part definition',#1074,'design');
#1070=PRODUCT_DEFINITION('(Nicht gespeichert)','(Nicht gespeichert)',#1071,
#1069);
#1071=PRODUCT_DEFINITION_FORMATION('',$,#1076);
#1072=PRODUCT_RELATED_PRODUCT_CATEGORY('(Nicht gespeichert)',
'(Nicht gespeichert)',(#1076));
#1073=APPLICATION_PROTOCOL_DEFINITION('international standard',
'automotive_design',2009,#1074);
#1074=APPLICATION_CONTEXT(
'Core Data for Automotive Mechanical Design Process');
#1075=PRODUCT_CONTEXT('part definition',#1074,'mechanical');
#1076=PRODUCT('(Nicht gespeichert)','(Nicht gespeichert)',$,(#1075));
#1077=PRESENTATION_STYLE_ASSIGNMENT((#1078));
#1078=SURFACE_STYLE_USAGE(.BOTH.,#1079);
#1079=SURFACE_SIDE_STYLE('',(#1080));
#1080=SURFACE_STYLE_FILL_AREA(#1081);
#1081=FILL_AREA_STYLE('Stahl - satiniert',(#1082));
#1082=FILL_AREA_STYLE_COLOUR('Stahl - satiniert',#1083);
#1083=COLOUR_RGB('Stahl - satiniert',0.627450980392157,0.627450980392157,
0.627450980392157);
ENDSEC;
END-ISO-10303-21;
