v 0.10000000149011612 0.10000000149011612 0.020000001415610313
v 0.1300000101327896 0.07500000298023224 0.0
v 0.10000000149011612 0.10000000149011612 0.0
v 0.10000000149011612 0.10000000149011612 0.020000001415610313
v 0.1300000101327896 0.07500000298023224 0.020000001415610313
v 0.1300000101327896 0.07500000298023224 0.0
v 0.1300000101327896 0.07500000298023224 0.020000001415610313
v 0.10000000149011612 0.05000000074505806 0.0
v 0.1300000101327896 0.07500000298023224 0.0
v 0.1300000101327896 0.07500000298023224 0.020000001415610313
v 0.10000000149011612 0.05000000074505806 0.020000001415610313
v 0.10000000149011612 0.05000000074505806 0.0
v 0.10000000149011612 0.05000000074505806 0.020000001415610313
v 0.10000000149011612 0.0 0.0
v 0.10000000149011612 0.05000000074505806 0.0
v 0.10000000149011612 0.05000000074505806 0.020000001415610313
v 0.10000000149011612 0.0 0.020000001415610313
v 0.10000000149011612 0.0 0.0
v 0.10000000149011612 0.0 0.020000001415610313
v 0.0 0.0 0.0
v 0.10000000149011612 0.0 0.0
v 0.10000000149011612 0.0 0.020000001415610313
v 0.0 0.0 0.020000001415610313
v 0.0 0.0 0.0
v 0.0 0.0 0.020000001415610313
v 0.0 0.10000000149011612 0.0
v 0.0 0.0 0.0
v 0.0 0.0 0.020000001415610313
v 0.0 0.10000000149011612 0.020000001415610313
v 0.0 0.10000000149011612 0.0
v 0.0 0.10000000149011612 0.020000001415610313
v 0.10000000149011612 0.10000000149011612 0.0
v 0.0 0.10000000149011612 0.0
v 0.0 0.10000000149011612 0.020000001415610313
v 0.10000000149011612 0.10000000149011612 0.020000001415610313
v 0.10000000149011612 0.10000000149011612 0.0
v 0.10000000149011612 0.05000000074505806 0.020000001415610313
v 0.0 0.10000000149011612 0.020000001415610313
v 0.0 0.0 0.020000001415610313
v 0.10000000149011612 0.05000000074505806 0.020000001415610313
v 0.0 0.0 0.020000001415610313
v 0.10000000149011612 0.0 0.020000001415610313
v 0.10000000149011612 0.10000000149011612 0.020000001415610313
v 0.0 0.10000000149011612 0.020000001415610313
v 0.10000000149011612 0.05000000074505806 0.020000001415610313
v 0.1300000101327896 0.07500000298023224 0.020000001415610313
v 0.10000000149011612 0.10000000149011612 0.020000001415610313
v 0.10000000149011612 0.05000000074505806 0.020000001415610313
v 0.10000000149011612 0.05000000074505806 0.0
v 0.0 0.0 0.0
v 0.0 0.10000000149011612 0.0
v 0.10000000149011612 0.05000000074505806 0.0
v 0.10000000149011612 0.0 0.0
v 0.0 0.0 0.0
v 0.10000000149011612 0.10000000149011612 0.0
v 0.10000000149011612 0.05000000074505806 0.0
v 0.0 0.10000000149011612 0.0
v 0.1300000101327896 0.07500000298023224 0.0
v 0.10000000149011612 0.05000000074505806 0.0
v 0.10000000149011612 0.10000000149011612 0.0
f 1 2 3
f 4 5 6
f 7 8 9
f 10 11 12
f 13 14 15
f 16 17 18
f 19 20 21
f 22 23 24
f 25 26 27
f 28 29 30
f 31 32 33
f 34 35 36
f 37 38 39
f 40 41 42
f 43 44 45
f 46 47 48
f 49 50 51
f 52 53 54
f 55 56 57
f 58 59 60
