ISO-10303-21;
HEADER;
/* Generated by software containing ST-Developer
 * from STEP Tools, Inc. (www.steptools.com) 
 */

FILE_DESCRIPTION(
/* description */ (''),
/* implementation_level */ '2;1');

FILE_NAME(
/* name */ 'MA Round Object With Holes.step',
/* time_stamp */ '2024-02-05T12:28:32+01:00',
/* author */ (''),
/* organization */ (''),
/* preprocessor_version */ 'ST-DEVELOPER v20',
/* originating_system */ 'Autodesk Translation Framework v12.14.0.127',

/* authorisation */ '');

FILE_SCHEMA (('AUTOMOTIVE_DESIGN { 1 0 10303 214 3 1 1 }'));
ENDSEC;

DATA;
#10=MECHANICAL_DESIGN_GEOMETRIC_PRESENTATION_REPRESENTATION('',(#13),#1218);
#11=SHAPE_REPRESENTATION_RELATIONSHIP('SRR','None',#1225,#12);
#12=ADVANCED_BREP_SHAPE_REPRESENTATION('',(#14),#1217);
#13=STYLED_ITEM('',(#1235),#14);
#14=MANIFOLD_SOLID_BREP('K\X\F6rper1',#694);
#15=FACE_BOUND('',#94,.T.);
#16=FACE_BOUND('',#95,.T.);
#17=FACE_BOUND('',#96,.T.);
#18=FACE_BOUND('',#97,.T.);
#19=FACE_BOUND('',#98,.T.);
#20=FACE_BOUND('',#116,.T.);
#21=FACE_BOUND('',#117,.T.);
#22=FACE_BOUND('',#118,.T.);
#23=PLANE('',#711);
#24=PLANE('',#719);
#25=PLANE('',#724);
#26=PLANE('',#740);
#27=PLANE('',#750);
#28=PLANE('',#754);
#29=PLANE('',#756);
#30=PLANE('',#774);
#31=PLANE('',#775);
#32=PLANE('',#782);
#33=PLANE('',#783);
#34=PLANE('',#786);
#35=PLANE('',#787);
#36=PLANE('',#790);
#37=FACE_OUTER_BOUND('',#74,.T.);
#38=FACE_OUTER_BOUND('',#75,.T.);
#39=FACE_OUTER_BOUND('',#76,.T.);
#40=FACE_OUTER_BOUND('',#77,.T.);
#41=FACE_OUTER_BOUND('',#78,.T.);
#42=FACE_OUTER_BOUND('',#79,.T.);
#43=FACE_OUTER_BOUND('',#80,.T.);
#44=FACE_OUTER_BOUND('',#81,.T.);
#45=FACE_OUTER_BOUND('',#82,.T.);
#46=FACE_OUTER_BOUND('',#83,.T.);
#47=FACE_OUTER_BOUND('',#84,.T.);
#48=FACE_OUTER_BOUND('',#85,.T.);
#49=FACE_OUTER_BOUND('',#86,.T.);
#50=FACE_OUTER_BOUND('',#87,.T.);
#51=FACE_OUTER_BOUND('',#88,.T.);
#52=FACE_OUTER_BOUND('',#89,.T.);
#53=FACE_OUTER_BOUND('',#90,.T.);
#54=FACE_OUTER_BOUND('',#91,.T.);
#55=FACE_OUTER_BOUND('',#92,.T.);
#56=FACE_OUTER_BOUND('',#93,.T.);
#57=FACE_OUTER_BOUND('',#99,.T.);
#58=FACE_OUTER_BOUND('',#100,.T.);
#59=FACE_OUTER_BOUND('',#101,.T.);
#60=FACE_OUTER_BOUND('',#102,.T.);
#61=FACE_OUTER_BOUND('',#103,.T.);
#62=FACE_OUTER_BOUND('',#104,.T.);
#63=FACE_OUTER_BOUND('',#105,.T.);
#64=FACE_OUTER_BOUND('',#106,.T.);
#65=FACE_OUTER_BOUND('',#107,.T.);
#66=FACE_OUTER_BOUND('',#108,.T.);
#67=FACE_OUTER_BOUND('',#109,.T.);
#68=FACE_OUTER_BOUND('',#110,.T.);
#69=FACE_OUTER_BOUND('',#111,.T.);
#70=FACE_OUTER_BOUND('',#112,.T.);
#71=FACE_OUTER_BOUND('',#113,.T.);
#72=FACE_OUTER_BOUND('',#114,.T.);
#73=FACE_OUTER_BOUND('',#115,.T.);
#74=EDGE_LOOP('',(#436,#437,#438,#439));
#75=EDGE_LOOP('',(#440,#441,#442,#443,#444,#445,#446,#447,#448,#449,#450));
#76=EDGE_LOOP('',(#451,#452,#453,#454));
#77=EDGE_LOOP('',(#455,#456,#457,#458));
#78=EDGE_LOOP('',(#459,#460,#461,#462));
#79=EDGE_LOOP('',(#463,#464,#465,#466));
#80=EDGE_LOOP('',(#467,#468,#469,#470));
#81=EDGE_LOOP('',(#471,#472,#473,#474));
#82=EDGE_LOOP('',(#475,#476,#477,#478));
#83=EDGE_LOOP('',(#479,#480,#481,#482));
#84=EDGE_LOOP('',(#483,#484,#485,#486));
#85=EDGE_LOOP('',(#487,#488,#489,#490));
#86=EDGE_LOOP('',(#491,#492,#493,#494));
#87=EDGE_LOOP('',(#495,#496,#497,#498));
#88=EDGE_LOOP('',(#499,#500,#501,#502));
#89=EDGE_LOOP('',(#503,#504,#505,#506));
#90=EDGE_LOOP('',(#507,#508,#509,#510));
#91=EDGE_LOOP('',(#511,#512,#513,#514));
#92=EDGE_LOOP('',(#515,#516,#517,#518,#519,#520,#521,#522,#523,#524,#525));
#93=EDGE_LOOP('',(#526,#527,#528,#529,#530,#531,#532,#533));
#94=EDGE_LOOP('',(#534,#535,#536,#537,#538,#539,#540,#541,#542,#543,#544));
#95=EDGE_LOOP('',(#545));
#96=EDGE_LOOP('',(#546));
#97=EDGE_LOOP('',(#547));
#98=EDGE_LOOP('',(#548,#549,#550,#551,#552,#553,#554,#555,#556,#557,#558));
#99=EDGE_LOOP('',(#559,#560,#561,#562));
#100=EDGE_LOOP('',(#563,#564,#565,#566));
#101=EDGE_LOOP('',(#567,#568,#569,#570));
#102=EDGE_LOOP('',(#571,#572,#573,#574));
#103=EDGE_LOOP('',(#575,#576,#577,#578));
#104=EDGE_LOOP('',(#579,#580,#581,#582));
#105=EDGE_LOOP('',(#583,#584,#585,#586));
#106=EDGE_LOOP('',(#587,#588,#589,#590));
#107=EDGE_LOOP('',(#591,#592,#593,#594));
#108=EDGE_LOOP('',(#595,#596,#597,#598));
#109=EDGE_LOOP('',(#599,#600,#601,#602));
#110=EDGE_LOOP('',(#603,#604,#605,#606));
#111=EDGE_LOOP('',(#607,#608,#609,#610));
#112=EDGE_LOOP('',(#611,#612,#613,#614));
#113=EDGE_LOOP('',(#615,#616,#617,#618));
#114=EDGE_LOOP('',(#619,#620,#621,#622));
#115=EDGE_LOOP('',(#623,#624,#625,#626,#627,#628,#629,#630));
#116=EDGE_LOOP('',(#631));
#117=EDGE_LOOP('',(#632));
#118=EDGE_LOOP('',(#633));
#119=LINE('',#1018,#172);
#120=LINE('',#1021,#173);
#121=LINE('',#1024,#174);
#122=LINE('',#1030,#175);
#123=LINE('',#1038,#176);
#124=LINE('',#1044,#177);
#125=LINE('',#1045,#178);
#126=LINE('',#1049,#179);
#127=LINE('',#1052,#180);
#128=LINE('',#1055,#181);
#129=LINE('',#1058,#182);
#130=LINE('',#1059,#183);
#131=LINE('',#1062,#184);
#132=LINE('',#1065,#185);
#133=LINE('',#1069,#186);
#134=LINE('',#1077,#187);
#135=LINE('',#1080,#188);
#136=LINE('',#1085,#189);
#137=LINE('',#1091,#190);
#138=LINE('',#1095,#191);
#139=LINE('',#1097,#192);
#140=LINE('',#1098,#193);
#141=LINE('',#1103,#194);
#142=LINE('',#1109,#195);
#143=LINE('',#1115,#196);
#144=LINE('',#1119,#197);
#145=LINE('',#1121,#198);
#146=LINE('',#1122,#199);
#147=LINE('',#1127,#200);
#148=LINE('',#1131,#201);
#149=LINE('',#1138,#202);
#150=LINE('',#1142,#203);
#151=LINE('',#1146,#204);
#152=LINE('',#1149,#205);
#153=LINE('',#1152,#206);
#154=LINE('',#1161,#207);
#155=LINE('',#1165,#208);
#156=LINE('',#1170,#209);
#157=LINE('',#1171,#210);
#158=LINE('',#1174,#211);
#159=LINE('',#1177,#212);
#160=LINE('',#1179,#213);
#161=LINE('',#1185,#214);
#162=LINE('',#1189,#215);
#163=LINE('',#1193,#216);
#164=LINE('',#1196,#217);
#165=LINE('',#1197,#218);
#166=LINE('',#1200,#219);
#167=LINE('',#1201,#220);
#168=LINE('',#1205,#221);
#169=LINE('',#1207,#222);
#170=LINE('',#1210,#223);
#171=LINE('',#1211,#224);
#172=VECTOR('',#797,1.);
#173=VECTOR('',#800,1.);
#174=VECTOR('',#803,1.);
#175=VECTOR('',#808,1.);
#176=VECTOR('',#815,1.);
#177=VECTOR('',#822,1.);
#178=VECTOR('',#823,1.);
#179=VECTOR('',#828,1.);
#180=VECTOR('',#831,1.);
#181=VECTOR('',#834,1.);
#182=VECTOR('',#837,1.);
#183=VECTOR('',#838,1.);
#184=VECTOR('',#841,1.);
#185=VECTOR('',#844,1.);
#186=VECTOR('',#849,1.);
#187=VECTOR('',#858,1.);
#188=VECTOR('',#861,1.);
#189=VECTOR('',#866,1.);
#190=VECTOR('',#873,1.);
#191=VECTOR('',#878,1.);
#192=VECTOR('',#879,1.);
#193=VECTOR('',#880,1.);
#194=VECTOR('',#885,1.);
#195=VECTOR('',#892,1.);
#196=VECTOR('',#899,1.);
#197=VECTOR('',#904,1.);
#198=VECTOR('',#905,1.);
#199=VECTOR('',#906,1.);
#200=VECTOR('',#911,1.);
#201=VECTOR('',#916,1.);
#202=VECTOR('',#923,1.);
#203=VECTOR('',#926,1.);
#204=VECTOR('',#929,1.);
#205=VECTOR('',#932,1.);
#206=VECTOR('',#935,1.);
#207=VECTOR('',#944,1.);
#208=VECTOR('',#951,1.);
#209=VECTOR('',#956,1.);
#210=VECTOR('',#957,1.);
#211=VECTOR('',#960,1.);
#212=VECTOR('',#963,1.);
#213=VECTOR('',#966,1.);
#214=VECTOR('',#975,1.);
#215=VECTOR('',#980,1.);
#216=VECTOR('',#985,1.);
#217=VECTOR('',#988,1.);
#218=VECTOR('',#989,1.);
#219=VECTOR('',#992,1.);
#220=VECTOR('',#993,1.);
#221=VECTOR('',#998,1.);
#222=VECTOR('',#1001,1.);
#223=VECTOR('',#1004,1.);
#224=VECTOR('',#1005,1.);
#225=CIRCLE('',#709,0.4);
#226=CIRCLE('',#710,0.4);
#227=CIRCLE('',#712,0.4);
#228=CIRCLE('',#713,2.49999999999933);
#229=CIRCLE('',#714,0.4);
#230=CIRCLE('',#715,1.5);
#231=CIRCLE('',#716,0.4);
#232=CIRCLE('',#717,0.4);
#233=CIRCLE('',#718,1.5);
#234=CIRCLE('',#721,0.4);
#235=CIRCLE('',#723,0.4);
#236=CIRCLE('',#726,0.4);
#237=CIRCLE('',#728,1.5);
#238=CIRCLE('',#730,0.4);
#239=CIRCLE('',#732,0.4);
#240=CIRCLE('',#733,0.4);
#241=CIRCLE('',#735,1.5);
#242=CIRCLE('',#736,1.5);
#243=CIRCLE('',#738,0.4);
#244=CIRCLE('',#739,0.4);
#245=CIRCLE('',#742,0.4);
#246=CIRCLE('',#743,0.4);
#247=CIRCLE('',#745,1.5);
#248=CIRCLE('',#746,1.5);
#249=CIRCLE('',#748,0.4);
#250=CIRCLE('',#749,0.4);
#251=CIRCLE('',#752,0.4);
#252=CIRCLE('',#753,0.4);
#253=CIRCLE('',#755,2.49999999999933);
#254=CIRCLE('',#757,1.99999999999933);
#255=CIRCLE('',#758,1.5);
#256=CIRCLE('',#759,1.5);
#257=CIRCLE('',#760,1.5);
#258=CIRCLE('',#761,2.49999999999933);
#259=CIRCLE('',#762,1.);
#260=CIRCLE('',#763,1.);
#261=CIRCLE('',#764,1.);
#262=CIRCLE('',#765,1.5);
#263=CIRCLE('',#766,2.49999999999933);
#264=CIRCLE('',#770,1.99999999999933);
#265=CIRCLE('',#772,1.5);
#266=CIRCLE('',#777,1.);
#267=CIRCLE('',#779,1.);
#268=CIRCLE('',#781,1.);
#269=CIRCLE('',#785,1.5);
#270=CIRCLE('',#789,1.5);
#271=VERTEX_POINT('',#1014);
#272=VERTEX_POINT('',#1015);
#273=VERTEX_POINT('',#1017);
#274=VERTEX_POINT('',#1019);
#275=VERTEX_POINT('',#1023);
#276=VERTEX_POINT('',#1025);
#277=VERTEX_POINT('',#1027);
#278=VERTEX_POINT('',#1029);
#279=VERTEX_POINT('',#1031);
#280=VERTEX_POINT('',#1033);
#281=VERTEX_POINT('',#1035);
#282=VERTEX_POINT('',#1037);
#283=VERTEX_POINT('',#1039);
#284=VERTEX_POINT('',#1043);
#285=VERTEX_POINT('',#1047);
#286=VERTEX_POINT('',#1051);
#287=VERTEX_POINT('',#1053);
#288=VERTEX_POINT('',#1057);
#289=VERTEX_POINT('',#1061);
#290=VERTEX_POINT('',#1063);
#291=VERTEX_POINT('',#1067);
#292=VERTEX_POINT('',#1073);
#293=VERTEX_POINT('',#1074);
#294=VERTEX_POINT('',#1076);
#295=VERTEX_POINT('',#1078);
#296=VERTEX_POINT('',#1082);
#297=VERTEX_POINT('',#1084);
#298=VERTEX_POINT('',#1088);
#299=VERTEX_POINT('',#1090);
#300=VERTEX_POINT('',#1094);
#301=VERTEX_POINT('',#1096);
#302=VERTEX_POINT('',#1100);
#303=VERTEX_POINT('',#1102);
#304=VERTEX_POINT('',#1106);
#305=VERTEX_POINT('',#1108);
#306=VERTEX_POINT('',#1112);
#307=VERTEX_POINT('',#1114);
#308=VERTEX_POINT('',#1118);
#309=VERTEX_POINT('',#1120);
#310=VERTEX_POINT('',#1124);
#311=VERTEX_POINT('',#1126);
#312=VERTEX_POINT('',#1130);
#313=VERTEX_POINT('',#1134);
#314=VERTEX_POINT('',#1135);
#315=VERTEX_POINT('',#1137);
#316=VERTEX_POINT('',#1139);
#317=VERTEX_POINT('',#1141);
#318=VERTEX_POINT('',#1143);
#319=VERTEX_POINT('',#1145);
#320=VERTEX_POINT('',#1147);
#321=VERTEX_POINT('',#1150);
#322=VERTEX_POINT('',#1153);
#323=VERTEX_POINT('',#1155);
#324=VERTEX_POINT('',#1157);
#325=VERTEX_POINT('',#1160);
#326=VERTEX_POINT('',#1167);
#327=VERTEX_POINT('',#1168);
#328=VERTEX_POINT('',#1173);
#329=VERTEX_POINT('',#1175);
#330=VERTEX_POINT('',#1183);
#331=VERTEX_POINT('',#1187);
#332=VERTEX_POINT('',#1191);
#333=VERTEX_POINT('',#1195);
#334=VERTEX_POINT('',#1199);
#335=VERTEX_POINT('',#1203);
#336=VERTEX_POINT('',#1209);
#337=EDGE_CURVE('',#271,#272,#225,.T.);
#338=EDGE_CURVE('',#271,#273,#119,.T.);
#339=EDGE_CURVE('',#273,#274,#226,.T.);
#340=EDGE_CURVE('',#274,#272,#120,.T.);
#341=EDGE_CURVE('',#272,#275,#121,.T.);
#342=EDGE_CURVE('',#275,#276,#227,.T.);
#343=EDGE_CURVE('',#277,#276,#228,.T.);
#344=EDGE_CURVE('',#278,#277,#122,.T.);
#345=EDGE_CURVE('',#278,#279,#229,.T.);
#346=EDGE_CURVE('',#280,#279,#230,.T.);
#347=EDGE_CURVE('',#280,#281,#231,.T.);
#348=EDGE_CURVE('',#282,#281,#123,.T.);
#349=EDGE_CURVE('',#282,#283,#232,.T.);
#350=EDGE_CURVE('',#271,#283,#233,.T.);
#351=EDGE_CURVE('',#284,#274,#124,.T.);
#352=EDGE_CURVE('',#275,#284,#125,.T.);
#353=EDGE_CURVE('',#284,#285,#234,.T.);
#354=EDGE_CURVE('',#285,#276,#126,.T.);
#355=EDGE_CURVE('',#282,#286,#127,.T.);
#356=EDGE_CURVE('',#286,#287,#235,.T.);
#357=EDGE_CURVE('',#287,#283,#128,.T.);
#358=EDGE_CURVE('',#288,#281,#129,.T.);
#359=EDGE_CURVE('',#286,#288,#130,.T.);
#360=EDGE_CURVE('',#278,#289,#131,.T.);
#361=EDGE_CURVE('',#289,#290,#236,.T.);
#362=EDGE_CURVE('',#290,#279,#132,.T.);
#363=EDGE_CURVE('',#291,#290,#237,.T.);
#364=EDGE_CURVE('',#280,#291,#133,.T.);
#365=EDGE_CURVE('',#291,#288,#238,.T.);
#366=EDGE_CURVE('',#292,#293,#239,.T.);
#367=EDGE_CURVE('',#292,#294,#134,.T.);
#368=EDGE_CURVE('',#294,#295,#240,.T.);
#369=EDGE_CURVE('',#295,#293,#135,.T.);
#370=EDGE_CURVE('',#292,#296,#241,.T.);
#371=EDGE_CURVE('',#297,#296,#136,.T.);
#372=EDGE_CURVE('',#294,#297,#242,.T.);
#373=EDGE_CURVE('',#298,#296,#243,.T.);
#374=EDGE_CURVE('',#298,#299,#137,.T.);
#375=EDGE_CURVE('',#299,#297,#244,.T.);
#376=EDGE_CURVE('',#298,#300,#138,.T.);
#377=EDGE_CURVE('',#301,#300,#139,.T.);
#378=EDGE_CURVE('',#299,#301,#140,.T.);
#379=EDGE_CURVE('',#302,#300,#245,.T.);
#380=EDGE_CURVE('',#302,#303,#141,.T.);
#381=EDGE_CURVE('',#303,#301,#246,.T.);
#382=EDGE_CURVE('',#302,#304,#247,.T.);
#383=EDGE_CURVE('',#305,#304,#142,.T.);
#384=EDGE_CURVE('',#303,#305,#248,.T.);
#385=EDGE_CURVE('',#306,#304,#249,.T.);
#386=EDGE_CURVE('',#306,#307,#143,.T.);
#387=EDGE_CURVE('',#307,#305,#250,.T.);
#388=EDGE_CURVE('',#308,#306,#144,.T.);
#389=EDGE_CURVE('',#309,#308,#145,.T.);
#390=EDGE_CURVE('',#307,#309,#146,.T.);
#391=EDGE_CURVE('',#310,#308,#251,.T.);
#392=EDGE_CURVE('',#310,#311,#147,.T.);
#393=EDGE_CURVE('',#311,#309,#252,.T.);
#394=EDGE_CURVE('',#312,#293,#148,.T.);
#395=EDGE_CURVE('',#310,#312,#253,.T.);
#396=EDGE_CURVE('',#313,#314,#254,.T.);
#397=EDGE_CURVE('',#314,#315,#149,.T.);
#398=EDGE_CURVE('',#315,#316,#255,.T.);
#399=EDGE_CURVE('',#316,#317,#150,.T.);
#400=EDGE_CURVE('',#317,#318,#256,.T.);
#401=EDGE_CURVE('',#318,#319,#151,.T.);
#402=EDGE_CURVE('',#319,#320,#257,.T.);
#403=EDGE_CURVE('',#320,#313,#152,.T.);
#404=EDGE_CURVE('',#311,#321,#258,.T.);
#405=EDGE_CURVE('',#321,#295,#153,.T.);
#406=EDGE_CURVE('',#322,#322,#259,.T.);
#407=EDGE_CURVE('',#323,#323,#260,.T.);
#408=EDGE_CURVE('',#324,#324,#261,.T.);
#409=EDGE_CURVE('',#273,#287,#262,.T.);
#410=EDGE_CURVE('',#289,#325,#154,.T.);
#411=EDGE_CURVE('',#325,#285,#263,.T.);
#412=EDGE_CURVE('',#325,#277,#155,.T.);
#413=EDGE_CURVE('',#326,#327,#264,.T.);
#414=EDGE_CURVE('',#326,#314,#156,.T.);
#415=EDGE_CURVE('',#327,#313,#157,.T.);
#416=EDGE_CURVE('',#328,#317,#158,.T.);
#417=EDGE_CURVE('',#328,#329,#265,.T.);
#418=EDGE_CURVE('',#329,#318,#159,.T.);
#419=EDGE_CURVE('',#321,#312,#160,.T.);
#420=EDGE_CURVE('',#330,#330,#266,.T.);
#421=EDGE_CURVE('',#330,#323,#161,.T.);
#422=EDGE_CURVE('',#331,#331,#267,.T.);
#423=EDGE_CURVE('',#331,#322,#162,.T.);
#424=EDGE_CURVE('',#332,#332,#268,.T.);
#425=EDGE_CURVE('',#332,#324,#163,.T.);
#426=EDGE_CURVE('',#326,#333,#164,.T.);
#427=EDGE_CURVE('',#333,#315,#165,.T.);
#428=EDGE_CURVE('',#334,#327,#166,.T.);
#429=EDGE_CURVE('',#334,#320,#167,.T.);
#430=EDGE_CURVE('',#335,#334,#269,.T.);
#431=EDGE_CURVE('',#335,#319,#168,.T.);
#432=EDGE_CURVE('',#329,#335,#169,.T.);
#433=EDGE_CURVE('',#336,#328,#170,.T.);
#434=EDGE_CURVE('',#336,#316,#171,.T.);
#435=EDGE_CURVE('',#333,#336,#270,.T.);
#436=ORIENTED_EDGE('',*,*,#337,.F.);
#437=ORIENTED_EDGE('',*,*,#338,.T.);
#438=ORIENTED_EDGE('',*,*,#339,.T.);
#439=ORIENTED_EDGE('',*,*,#340,.T.);
#440=ORIENTED_EDGE('',*,*,#337,.T.);
#441=ORIENTED_EDGE('',*,*,#341,.T.);
#442=ORIENTED_EDGE('',*,*,#342,.T.);
#443=ORIENTED_EDGE('',*,*,#343,.F.);
#444=ORIENTED_EDGE('',*,*,#344,.F.);
#445=ORIENTED_EDGE('',*,*,#345,.T.);
#446=ORIENTED_EDGE('',*,*,#346,.F.);
#447=ORIENTED_EDGE('',*,*,#347,.T.);
#448=ORIENTED_EDGE('',*,*,#348,.F.);
#449=ORIENTED_EDGE('',*,*,#349,.T.);
#450=ORIENTED_EDGE('',*,*,#350,.F.);
#451=ORIENTED_EDGE('',*,*,#340,.F.);
#452=ORIENTED_EDGE('',*,*,#351,.F.);
#453=ORIENTED_EDGE('',*,*,#352,.F.);
#454=ORIENTED_EDGE('',*,*,#341,.F.);
#455=ORIENTED_EDGE('',*,*,#342,.F.);
#456=ORIENTED_EDGE('',*,*,#352,.T.);
#457=ORIENTED_EDGE('',*,*,#353,.T.);
#458=ORIENTED_EDGE('',*,*,#354,.T.);
#459=ORIENTED_EDGE('',*,*,#349,.F.);
#460=ORIENTED_EDGE('',*,*,#355,.T.);
#461=ORIENTED_EDGE('',*,*,#356,.T.);
#462=ORIENTED_EDGE('',*,*,#357,.T.);
#463=ORIENTED_EDGE('',*,*,#355,.F.);
#464=ORIENTED_EDGE('',*,*,#348,.T.);
#465=ORIENTED_EDGE('',*,*,#358,.F.);
#466=ORIENTED_EDGE('',*,*,#359,.F.);
#467=ORIENTED_EDGE('',*,*,#345,.F.);
#468=ORIENTED_EDGE('',*,*,#360,.T.);
#469=ORIENTED_EDGE('',*,*,#361,.T.);
#470=ORIENTED_EDGE('',*,*,#362,.T.);
#471=ORIENTED_EDGE('',*,*,#362,.F.);
#472=ORIENTED_EDGE('',*,*,#363,.F.);
#473=ORIENTED_EDGE('',*,*,#364,.F.);
#474=ORIENTED_EDGE('',*,*,#346,.T.);
#475=ORIENTED_EDGE('',*,*,#347,.F.);
#476=ORIENTED_EDGE('',*,*,#364,.T.);
#477=ORIENTED_EDGE('',*,*,#365,.T.);
#478=ORIENTED_EDGE('',*,*,#358,.T.);
#479=ORIENTED_EDGE('',*,*,#366,.F.);
#480=ORIENTED_EDGE('',*,*,#367,.T.);
#481=ORIENTED_EDGE('',*,*,#368,.T.);
#482=ORIENTED_EDGE('',*,*,#369,.T.);
#483=ORIENTED_EDGE('',*,*,#367,.F.);
#484=ORIENTED_EDGE('',*,*,#370,.T.);
#485=ORIENTED_EDGE('',*,*,#371,.F.);
#486=ORIENTED_EDGE('',*,*,#372,.F.);
#487=ORIENTED_EDGE('',*,*,#373,.F.);
#488=ORIENTED_EDGE('',*,*,#374,.T.);
#489=ORIENTED_EDGE('',*,*,#375,.T.);
#490=ORIENTED_EDGE('',*,*,#371,.T.);
#491=ORIENTED_EDGE('',*,*,#374,.F.);
#492=ORIENTED_EDGE('',*,*,#376,.T.);
#493=ORIENTED_EDGE('',*,*,#377,.F.);
#494=ORIENTED_EDGE('',*,*,#378,.F.);
#495=ORIENTED_EDGE('',*,*,#379,.F.);
#496=ORIENTED_EDGE('',*,*,#380,.T.);
#497=ORIENTED_EDGE('',*,*,#381,.T.);
#498=ORIENTED_EDGE('',*,*,#377,.T.);
#499=ORIENTED_EDGE('',*,*,#380,.F.);
#500=ORIENTED_EDGE('',*,*,#382,.T.);
#501=ORIENTED_EDGE('',*,*,#383,.F.);
#502=ORIENTED_EDGE('',*,*,#384,.F.);
#503=ORIENTED_EDGE('',*,*,#385,.F.);
#504=ORIENTED_EDGE('',*,*,#386,.T.);
#505=ORIENTED_EDGE('',*,*,#387,.T.);
#506=ORIENTED_EDGE('',*,*,#383,.T.);
#507=ORIENTED_EDGE('',*,*,#386,.F.);
#508=ORIENTED_EDGE('',*,*,#388,.F.);
#509=ORIENTED_EDGE('',*,*,#389,.F.);
#510=ORIENTED_EDGE('',*,*,#390,.F.);
#511=ORIENTED_EDGE('',*,*,#391,.F.);
#512=ORIENTED_EDGE('',*,*,#392,.T.);
#513=ORIENTED_EDGE('',*,*,#393,.T.);
#514=ORIENTED_EDGE('',*,*,#389,.T.);
#515=ORIENTED_EDGE('',*,*,#366,.T.);
#516=ORIENTED_EDGE('',*,*,#394,.F.);
#517=ORIENTED_EDGE('',*,*,#395,.F.);
#518=ORIENTED_EDGE('',*,*,#391,.T.);
#519=ORIENTED_EDGE('',*,*,#388,.T.);
#520=ORIENTED_EDGE('',*,*,#385,.T.);
#521=ORIENTED_EDGE('',*,*,#382,.F.);
#522=ORIENTED_EDGE('',*,*,#379,.T.);
#523=ORIENTED_EDGE('',*,*,#376,.F.);
#524=ORIENTED_EDGE('',*,*,#373,.T.);
#525=ORIENTED_EDGE('',*,*,#370,.F.);
#526=ORIENTED_EDGE('',*,*,#396,.T.);
#527=ORIENTED_EDGE('',*,*,#397,.T.);
#528=ORIENTED_EDGE('',*,*,#398,.T.);
#529=ORIENTED_EDGE('',*,*,#399,.T.);
#530=ORIENTED_EDGE('',*,*,#400,.T.);
#531=ORIENTED_EDGE('',*,*,#401,.T.);
#532=ORIENTED_EDGE('',*,*,#402,.T.);
#533=ORIENTED_EDGE('',*,*,#403,.T.);
#534=ORIENTED_EDGE('',*,*,#390,.T.);
#535=ORIENTED_EDGE('',*,*,#393,.F.);
#536=ORIENTED_EDGE('',*,*,#404,.T.);
#537=ORIENTED_EDGE('',*,*,#405,.T.);
#538=ORIENTED_EDGE('',*,*,#368,.F.);
#539=ORIENTED_EDGE('',*,*,#372,.T.);
#540=ORIENTED_EDGE('',*,*,#375,.F.);
#541=ORIENTED_EDGE('',*,*,#378,.T.);
#542=ORIENTED_EDGE('',*,*,#381,.F.);
#543=ORIENTED_EDGE('',*,*,#384,.T.);
#544=ORIENTED_EDGE('',*,*,#387,.F.);
#545=ORIENTED_EDGE('',*,*,#406,.T.);
#546=ORIENTED_EDGE('',*,*,#407,.T.);
#547=ORIENTED_EDGE('',*,*,#408,.T.);
#548=ORIENTED_EDGE('',*,*,#409,.T.);
#549=ORIENTED_EDGE('',*,*,#356,.F.);
#550=ORIENTED_EDGE('',*,*,#359,.T.);
#551=ORIENTED_EDGE('',*,*,#365,.F.);
#552=ORIENTED_EDGE('',*,*,#363,.T.);
#553=ORIENTED_EDGE('',*,*,#361,.F.);
#554=ORIENTED_EDGE('',*,*,#410,.T.);
#555=ORIENTED_EDGE('',*,*,#411,.T.);
#556=ORIENTED_EDGE('',*,*,#353,.F.);
#557=ORIENTED_EDGE('',*,*,#351,.T.);
#558=ORIENTED_EDGE('',*,*,#339,.F.);
#559=ORIENTED_EDGE('',*,*,#338,.F.);
#560=ORIENTED_EDGE('',*,*,#350,.T.);
#561=ORIENTED_EDGE('',*,*,#357,.F.);
#562=ORIENTED_EDGE('',*,*,#409,.F.);
#563=ORIENTED_EDGE('',*,*,#354,.F.);
#564=ORIENTED_EDGE('',*,*,#411,.F.);
#565=ORIENTED_EDGE('',*,*,#412,.T.);
#566=ORIENTED_EDGE('',*,*,#343,.T.);
#567=ORIENTED_EDGE('',*,*,#413,.F.);
#568=ORIENTED_EDGE('',*,*,#414,.T.);
#569=ORIENTED_EDGE('',*,*,#396,.F.);
#570=ORIENTED_EDGE('',*,*,#415,.F.);
#571=ORIENTED_EDGE('',*,*,#400,.F.);
#572=ORIENTED_EDGE('',*,*,#416,.F.);
#573=ORIENTED_EDGE('',*,*,#417,.T.);
#574=ORIENTED_EDGE('',*,*,#418,.T.);
#575=ORIENTED_EDGE('',*,*,#392,.F.);
#576=ORIENTED_EDGE('',*,*,#395,.T.);
#577=ORIENTED_EDGE('',*,*,#419,.F.);
#578=ORIENTED_EDGE('',*,*,#404,.F.);
#579=ORIENTED_EDGE('',*,*,#360,.F.);
#580=ORIENTED_EDGE('',*,*,#344,.T.);
#581=ORIENTED_EDGE('',*,*,#412,.F.);
#582=ORIENTED_EDGE('',*,*,#410,.F.);
#583=ORIENTED_EDGE('',*,*,#369,.F.);
#584=ORIENTED_EDGE('',*,*,#405,.F.);
#585=ORIENTED_EDGE('',*,*,#419,.T.);
#586=ORIENTED_EDGE('',*,*,#394,.T.);
#587=ORIENTED_EDGE('',*,*,#420,.T.);
#588=ORIENTED_EDGE('',*,*,#421,.T.);
#589=ORIENTED_EDGE('',*,*,#407,.F.);
#590=ORIENTED_EDGE('',*,*,#421,.F.);
#591=ORIENTED_EDGE('',*,*,#422,.T.);
#592=ORIENTED_EDGE('',*,*,#423,.T.);
#593=ORIENTED_EDGE('',*,*,#406,.F.);
#594=ORIENTED_EDGE('',*,*,#423,.F.);
#595=ORIENTED_EDGE('',*,*,#424,.T.);
#596=ORIENTED_EDGE('',*,*,#425,.T.);
#597=ORIENTED_EDGE('',*,*,#408,.F.);
#598=ORIENTED_EDGE('',*,*,#425,.F.);
#599=ORIENTED_EDGE('',*,*,#426,.T.);
#600=ORIENTED_EDGE('',*,*,#427,.T.);
#601=ORIENTED_EDGE('',*,*,#397,.F.);
#602=ORIENTED_EDGE('',*,*,#414,.F.);
#603=ORIENTED_EDGE('',*,*,#428,.T.);
#604=ORIENTED_EDGE('',*,*,#415,.T.);
#605=ORIENTED_EDGE('',*,*,#403,.F.);
#606=ORIENTED_EDGE('',*,*,#429,.F.);
#607=ORIENTED_EDGE('',*,*,#430,.T.);
#608=ORIENTED_EDGE('',*,*,#429,.T.);
#609=ORIENTED_EDGE('',*,*,#402,.F.);
#610=ORIENTED_EDGE('',*,*,#431,.F.);
#611=ORIENTED_EDGE('',*,*,#432,.T.);
#612=ORIENTED_EDGE('',*,*,#431,.T.);
#613=ORIENTED_EDGE('',*,*,#401,.F.);
#614=ORIENTED_EDGE('',*,*,#418,.F.);
#615=ORIENTED_EDGE('',*,*,#433,.T.);
#616=ORIENTED_EDGE('',*,*,#416,.T.);
#617=ORIENTED_EDGE('',*,*,#399,.F.);
#618=ORIENTED_EDGE('',*,*,#434,.F.);
#619=ORIENTED_EDGE('',*,*,#435,.T.);
#620=ORIENTED_EDGE('',*,*,#434,.T.);
#621=ORIENTED_EDGE('',*,*,#398,.F.);
#622=ORIENTED_EDGE('',*,*,#427,.F.);
#623=ORIENTED_EDGE('',*,*,#413,.T.);
#624=ORIENTED_EDGE('',*,*,#428,.F.);
#625=ORIENTED_EDGE('',*,*,#430,.F.);
#626=ORIENTED_EDGE('',*,*,#432,.F.);
#627=ORIENTED_EDGE('',*,*,#417,.F.);
#628=ORIENTED_EDGE('',*,*,#433,.F.);
#629=ORIENTED_EDGE('',*,*,#435,.F.);
#630=ORIENTED_EDGE('',*,*,#426,.F.);
#631=ORIENTED_EDGE('',*,*,#422,.F.);
#632=ORIENTED_EDGE('',*,*,#420,.F.);
#633=ORIENTED_EDGE('',*,*,#424,.F.);
#634=CYLINDRICAL_SURFACE('',#708,0.4);
#635=CYLINDRICAL_SURFACE('',#720,0.4);
#636=CYLINDRICAL_SURFACE('',#722,0.4);
#637=CYLINDRICAL_SURFACE('',#725,0.4);
#638=CYLINDRICAL_SURFACE('',#727,1.5);
#639=CYLINDRICAL_SURFACE('',#729,0.4);
#640=CYLINDRICAL_SURFACE('',#731,0.4);
#641=CYLINDRICAL_SURFACE('',#734,1.5);
#642=CYLINDRICAL_SURFACE('',#737,0.4);
#643=CYLINDRICAL_SURFACE('',#741,0.4);
#644=CYLINDRICAL_SURFACE('',#744,1.5);
#645=CYLINDRICAL_SURFACE('',#747,0.4);
#646=CYLINDRICAL_SURFACE('',#751,0.4);
#647=CYLINDRICAL_SURFACE('',#767,1.5);
#648=CYLINDRICAL_SURFACE('',#768,2.49999999999933);
#649=CYLINDRICAL_SURFACE('',#769,1.99999999999933);
#650=CYLINDRICAL_SURFACE('',#771,1.5);
#651=CYLINDRICAL_SURFACE('',#773,2.49999999999933);
#652=CYLINDRICAL_SURFACE('',#776,1.);
#653=CYLINDRICAL_SURFACE('',#778,1.);
#654=CYLINDRICAL_SURFACE('',#780,1.);
#655=CYLINDRICAL_SURFACE('',#784,1.5);
#656=CYLINDRICAL_SURFACE('',#788,1.5);
#657=ADVANCED_FACE('',(#37),#634,.F.);
#658=ADVANCED_FACE('',(#38),#23,.T.);
#659=ADVANCED_FACE('',(#39),#24,.T.);
#660=ADVANCED_FACE('',(#40),#635,.F.);
#661=ADVANCED_FACE('',(#41),#636,.F.);
#662=ADVANCED_FACE('',(#42),#25,.F.);
#663=ADVANCED_FACE('',(#43),#637,.F.);
#664=ADVANCED_FACE('',(#44),#638,.T.);
#665=ADVANCED_FACE('',(#45),#639,.F.);
#666=ADVANCED_FACE('',(#46),#640,.F.);
#667=ADVANCED_FACE('',(#47),#641,.T.);
#668=ADVANCED_FACE('',(#48),#642,.F.);
#669=ADVANCED_FACE('',(#49),#26,.F.);
#670=ADVANCED_FACE('',(#50),#643,.F.);
#671=ADVANCED_FACE('',(#51),#644,.T.);
#672=ADVANCED_FACE('',(#52),#645,.F.);
#673=ADVANCED_FACE('',(#53),#27,.T.);
#674=ADVANCED_FACE('',(#54),#646,.F.);
#675=ADVANCED_FACE('',(#55),#28,.T.);
#676=ADVANCED_FACE('',(#56,#15,#16,#17,#18,#19),#29,.T.);
#677=ADVANCED_FACE('',(#57),#647,.T.);
#678=ADVANCED_FACE('',(#58),#648,.T.);
#679=ADVANCED_FACE('',(#59),#649,.F.);
#680=ADVANCED_FACE('',(#60),#650,.T.);
#681=ADVANCED_FACE('',(#61),#651,.T.);
#682=ADVANCED_FACE('',(#62),#30,.F.);
#683=ADVANCED_FACE('',(#63),#31,.F.);
#684=ADVANCED_FACE('',(#64),#652,.F.);
#685=ADVANCED_FACE('',(#65),#653,.F.);
#686=ADVANCED_FACE('',(#66),#654,.F.);
#687=ADVANCED_FACE('',(#67),#32,.T.);
#688=ADVANCED_FACE('',(#68),#33,.T.);
#689=ADVANCED_FACE('',(#69),#655,.T.);
#690=ADVANCED_FACE('',(#70),#34,.T.);
#691=ADVANCED_FACE('',(#71),#35,.T.);
#692=ADVANCED_FACE('',(#72),#656,.T.);
#693=ADVANCED_FACE('',(#73,#20,#21,#22),#36,.F.);
#694=CLOSED_SHELL('',(#657,#658,#659,#660,#661,#662,#663,#664,#665,#666,
#667,#668,#669,#670,#671,#672,#673,#674,#675,#676,#677,#678,#679,#680,#681,
#682,#683,#684,#685,#686,#687,#688,#689,#690,#691,#692,#693));
#695=DERIVED_UNIT_ELEMENT(#697,1.);
#696=DERIVED_UNIT_ELEMENT(#1220,-3.);
#697=(
MASS_UNIT()
NAMED_UNIT(*)
SI_UNIT(.KILO.,.GRAM.)
);
#698=DERIVED_UNIT((#695,#696));
#699=MEASURE_REPRESENTATION_ITEM('density measure',
POSITIVE_RATIO_MEASURE(7850.),#698);
#700=PROPERTY_DEFINITION_REPRESENTATION(#705,#702);
#701=PROPERTY_DEFINITION_REPRESENTATION(#706,#703);
#702=REPRESENTATION('material name',(#704),#1217);
#703=REPRESENTATION('density',(#699),#1217);
#704=DESCRIPTIVE_REPRESENTATION_ITEM('Stahl','Stahl');
#705=PROPERTY_DEFINITION('material property','material name',#1227);
#706=PROPERTY_DEFINITION('material property','density of part',#1227);
#707=AXIS2_PLACEMENT_3D('',#1012,#791,#792);
#708=AXIS2_PLACEMENT_3D('',#1013,#793,#794);
#709=AXIS2_PLACEMENT_3D('',#1016,#795,#796);
#710=AXIS2_PLACEMENT_3D('',#1020,#798,#799);
#711=AXIS2_PLACEMENT_3D('',#1022,#801,#802);
#712=AXIS2_PLACEMENT_3D('',#1026,#804,#805);
#713=AXIS2_PLACEMENT_3D('',#1028,#806,#807);
#714=AXIS2_PLACEMENT_3D('',#1032,#809,#810);
#715=AXIS2_PLACEMENT_3D('',#1034,#811,#812);
#716=AXIS2_PLACEMENT_3D('',#1036,#813,#814);
#717=AXIS2_PLACEMENT_3D('',#1040,#816,#817);
#718=AXIS2_PLACEMENT_3D('',#1041,#818,#819);
#719=AXIS2_PLACEMENT_3D('',#1042,#820,#821);
#720=AXIS2_PLACEMENT_3D('',#1046,#824,#825);
#721=AXIS2_PLACEMENT_3D('',#1048,#826,#827);
#722=AXIS2_PLACEMENT_3D('',#1050,#829,#830);
#723=AXIS2_PLACEMENT_3D('',#1054,#832,#833);
#724=AXIS2_PLACEMENT_3D('',#1056,#835,#836);
#725=AXIS2_PLACEMENT_3D('',#1060,#839,#840);
#726=AXIS2_PLACEMENT_3D('',#1064,#842,#843);
#727=AXIS2_PLACEMENT_3D('',#1066,#845,#846);
#728=AXIS2_PLACEMENT_3D('',#1068,#847,#848);
#729=AXIS2_PLACEMENT_3D('',#1070,#850,#851);
#730=AXIS2_PLACEMENT_3D('',#1071,#852,#853);
#731=AXIS2_PLACEMENT_3D('',#1072,#854,#855);
#732=AXIS2_PLACEMENT_3D('',#1075,#856,#857);
#733=AXIS2_PLACEMENT_3D('',#1079,#859,#860);
#734=AXIS2_PLACEMENT_3D('',#1081,#862,#863);
#735=AXIS2_PLACEMENT_3D('',#1083,#864,#865);
#736=AXIS2_PLACEMENT_3D('',#1086,#867,#868);
#737=AXIS2_PLACEMENT_3D('',#1087,#869,#870);
#738=AXIS2_PLACEMENT_3D('',#1089,#871,#872);
#739=AXIS2_PLACEMENT_3D('',#1092,#874,#875);
#740=AXIS2_PLACEMENT_3D('',#1093,#876,#877);
#741=AXIS2_PLACEMENT_3D('',#1099,#881,#882);
#742=AXIS2_PLACEMENT_3D('',#1101,#883,#884);
#743=AXIS2_PLACEMENT_3D('',#1104,#886,#887);
#744=AXIS2_PLACEMENT_3D('',#1105,#888,#889);
#745=AXIS2_PLACEMENT_3D('',#1107,#890,#891);
#746=AXIS2_PLACEMENT_3D('',#1110,#893,#894);
#747=AXIS2_PLACEMENT_3D('',#1111,#895,#896);
#748=AXIS2_PLACEMENT_3D('',#1113,#897,#898);
#749=AXIS2_PLACEMENT_3D('',#1116,#900,#901);
#750=AXIS2_PLACEMENT_3D('',#1117,#902,#903);
#751=AXIS2_PLACEMENT_3D('',#1123,#907,#908);
#752=AXIS2_PLACEMENT_3D('',#1125,#909,#910);
#753=AXIS2_PLACEMENT_3D('',#1128,#912,#913);
#754=AXIS2_PLACEMENT_3D('',#1129,#914,#915);
#755=AXIS2_PLACEMENT_3D('',#1132,#917,#918);
#756=AXIS2_PLACEMENT_3D('',#1133,#919,#920);
#757=AXIS2_PLACEMENT_3D('',#1136,#921,#922);
#758=AXIS2_PLACEMENT_3D('',#1140,#924,#925);
#759=AXIS2_PLACEMENT_3D('',#1144,#927,#928);
#760=AXIS2_PLACEMENT_3D('',#1148,#930,#931);
#761=AXIS2_PLACEMENT_3D('',#1151,#933,#934);
#762=AXIS2_PLACEMENT_3D('',#1154,#936,#937);
#763=AXIS2_PLACEMENT_3D('',#1156,#938,#939);
#764=AXIS2_PLACEMENT_3D('',#1158,#940,#941);
#765=AXIS2_PLACEMENT_3D('',#1159,#942,#943);
#766=AXIS2_PLACEMENT_3D('',#1162,#945,#946);
#767=AXIS2_PLACEMENT_3D('',#1163,#947,#948);
#768=AXIS2_PLACEMENT_3D('',#1164,#949,#950);
#769=AXIS2_PLACEMENT_3D('',#1166,#952,#953);
#770=AXIS2_PLACEMENT_3D('',#1169,#954,#955);
#771=AXIS2_PLACEMENT_3D('',#1172,#958,#959);
#772=AXIS2_PLACEMENT_3D('',#1176,#961,#962);
#773=AXIS2_PLACEMENT_3D('',#1178,#964,#965);
#774=AXIS2_PLACEMENT_3D('',#1180,#967,#968);
#775=AXIS2_PLACEMENT_3D('',#1181,#969,#970);
#776=AXIS2_PLACEMENT_3D('',#1182,#971,#972);
#777=AXIS2_PLACEMENT_3D('',#1184,#973,#974);
#778=AXIS2_PLACEMENT_3D('',#1186,#976,#977);
#779=AXIS2_PLACEMENT_3D('',#1188,#978,#979);
#780=AXIS2_PLACEMENT_3D('',#1190,#981,#982);
#781=AXIS2_PLACEMENT_3D('',#1192,#983,#984);
#782=AXIS2_PLACEMENT_3D('',#1194,#986,#987);
#783=AXIS2_PLACEMENT_3D('',#1198,#990,#991);
#784=AXIS2_PLACEMENT_3D('',#1202,#994,#995);
#785=AXIS2_PLACEMENT_3D('',#1204,#996,#997);
#786=AXIS2_PLACEMENT_3D('',#1206,#999,#1000);
#787=AXIS2_PLACEMENT_3D('',#1208,#1002,#1003);
#788=AXIS2_PLACEMENT_3D('',#1212,#1006,#1007);
#789=AXIS2_PLACEMENT_3D('',#1213,#1008,#1009);
#790=AXIS2_PLACEMENT_3D('',#1214,#1010,#1011);
#791=DIRECTION('axis',(0.,0.,1.));
#792=DIRECTION('refdir',(1.,0.,0.));
#793=DIRECTION('center_axis',(0.,0.,-1.));
#794=DIRECTION('ref_axis',(0.173692781464065,-0.984799887117823,0.));
#795=DIRECTION('center_axis',(0.,0.,1.));
#796=DIRECTION('ref_axis',(0.173692781464065,-0.984799887117823,0.));
#797=DIRECTION('',(0.,0.,1.));
#798=DIRECTION('center_axis',(0.,0.,1.));
#799=DIRECTION('ref_axis',(0.173692781464065,-0.984799887117823,0.));
#800=DIRECTION('',(0.,0.,-1.));
#801=DIRECTION('center_axis',(0.,0.,1.));
#802=DIRECTION('ref_axis',(-1.,0.,0.));
#803=DIRECTION('',(0.707106781186489,0.707106781186606,0.));
#804=DIRECTION('center_axis',(0.,0.,1.));
#805=DIRECTION('ref_axis',(0.993618999364799,-0.112788670092771,0.));
#806=DIRECTION('center_axis',(0.,0.,1.));
#807=DIRECTION('ref_axis',(-0.967011576380565,-0.254732430495165,0.));
#808=DIRECTION('',(0.254732430495164,-0.967011576380566,0.));
#809=DIRECTION('center_axis',(0.,0.,1.));
#810=DIRECTION('ref_axis',(0.358987515936756,0.933342361302409,0.));
#811=DIRECTION('center_axis',(0.,0.,1.));
#812=DIRECTION('ref_axis',(-1.,0.,0.));
#813=DIRECTION('center_axis',(0.,0.,1.));
#814=DIRECTION('ref_axis',(-0.584897651865603,0.811107105653812,0.));
#815=DIRECTION('',(-6.66133814775094E-17,1.,0.));
#816=DIRECTION('center_axis',(0.,0.,1.));
#817=DIRECTION('ref_axis',(-0.584897651865601,-0.811107105653813,0.));
#818=DIRECTION('center_axis',(0.,0.,1.));
#819=DIRECTION('ref_axis',(-1.,0.,0.));
#820=DIRECTION('center_axis',(-0.707106781186606,0.707106781186489,0.));
#821=DIRECTION('ref_axis',(0.707106781186489,0.707106781186606,0.));
#822=DIRECTION('',(-0.707106781186565,-0.70710678118653,0.));
#823=DIRECTION('',(0.,0.,1.));
#824=DIRECTION('center_axis',(0.,0.,1.));
#825=DIRECTION('ref_axis',(0.993618999364799,-0.112788670092771,0.));
#826=DIRECTION('center_axis',(0.,0.,1.));
#827=DIRECTION('ref_axis',(0.993618999364799,-0.112788670092771,0.));
#828=DIRECTION('',(0.,0.,-1.));
#829=DIRECTION('center_axis',(0.,0.,-1.));
#830=DIRECTION('ref_axis',(-0.584897651865601,-0.811107105653813,0.));
#831=DIRECTION('',(0.,0.,1.));
#832=DIRECTION('center_axis',(0.,0.,1.));
#833=DIRECTION('ref_axis',(-0.584897651865601,-0.811107105653813,0.));
#834=DIRECTION('',(0.,0.,-1.));
#835=DIRECTION('center_axis',(-1.,-6.66133814775094E-17,0.));
#836=DIRECTION('ref_axis',(-6.66133814775094E-17,1.,0.));
#837=DIRECTION('',(0.,0.,-1.));
#838=DIRECTION('',(-6.66133814775094E-17,1.,0.));
#839=DIRECTION('center_axis',(0.,0.,-1.));
#840=DIRECTION('ref_axis',(0.358987515936756,0.933342361302409,0.));
#841=DIRECTION('',(0.,0.,1.));
#842=DIRECTION('center_axis',(0.,0.,1.));
#843=DIRECTION('ref_axis',(0.358987515936756,0.933342361302409,0.));
#844=DIRECTION('',(0.,0.,-1.));
#845=DIRECTION('center_axis',(0.,0.,-1.));
#846=DIRECTION('ref_axis',(-1.,0.,0.));
#847=DIRECTION('center_axis',(0.,0.,1.));
#848=DIRECTION('ref_axis',(-1.,0.,0.));
#849=DIRECTION('',(0.,0.,1.));
#850=DIRECTION('center_axis',(0.,0.,-1.));
#851=DIRECTION('ref_axis',(-0.584897651865603,0.811107105653812,0.));
#852=DIRECTION('center_axis',(0.,0.,1.));
#853=DIRECTION('ref_axis',(-0.584897651865603,0.811107105653812,0.));
#854=DIRECTION('center_axis',(0.,0.,-1.));
#855=DIRECTION('ref_axis',(0.93334236130241,0.358987515936754,0.));
#856=DIRECTION('center_axis',(0.,0.,1.));
#857=DIRECTION('ref_axis',(0.93334236130241,0.358987515936754,0.));
#858=DIRECTION('',(0.,0.,1.));
#859=DIRECTION('center_axis',(0.,0.,1.));
#860=DIRECTION('ref_axis',(0.93334236130241,0.358987515936754,0.));
#861=DIRECTION('',(0.,0.,-1.));
#862=DIRECTION('center_axis',(0.,0.,-1.));
#863=DIRECTION('ref_axis',(-1.,0.,0.));
#864=DIRECTION('center_axis',(0.,0.,1.));
#865=DIRECTION('ref_axis',(-1.,0.,0.));
#866=DIRECTION('',(0.,0.,-1.));
#867=DIRECTION('center_axis',(0.,0.,1.));
#868=DIRECTION('ref_axis',(-1.,0.,0.));
#869=DIRECTION('center_axis',(0.,0.,-1.));
#870=DIRECTION('ref_axis',(0.811107105653812,-0.584897651865603,0.));
#871=DIRECTION('center_axis',(0.,0.,1.));
#872=DIRECTION('ref_axis',(0.811107105653812,-0.584897651865603,0.));
#873=DIRECTION('',(0.,0.,1.));
#874=DIRECTION('center_axis',(0.,0.,1.));
#875=DIRECTION('ref_axis',(0.811107105653812,-0.584897651865603,0.));
#876=DIRECTION('center_axis',(0.,-1.,0.));
#877=DIRECTION('ref_axis',(-1.,0.,0.));
#878=DIRECTION('',(-1.,0.,0.));
#879=DIRECTION('',(0.,0.,-1.));
#880=DIRECTION('',(-1.,0.,0.));
#881=DIRECTION('center_axis',(0.,0.,-1.));
#882=DIRECTION('ref_axis',(-0.811107105653813,-0.584897651865602,0.));
#883=DIRECTION('center_axis',(0.,0.,1.));
#884=DIRECTION('ref_axis',(-0.811107105653813,-0.584897651865602,0.));
#885=DIRECTION('',(0.,0.,1.));
#886=DIRECTION('center_axis',(0.,0.,1.));
#887=DIRECTION('ref_axis',(-0.811107105653813,-0.584897651865602,0.));
#888=DIRECTION('center_axis',(0.,0.,-1.));
#889=DIRECTION('ref_axis',(0.998348676640192,0.0574449288517013,0.));
#890=DIRECTION('center_axis',(0.,0.,1.));
#891=DIRECTION('ref_axis',(-1.,0.,0.));
#892=DIRECTION('',(0.,0.,-1.));
#893=DIRECTION('center_axis',(0.,0.,1.));
#894=DIRECTION('ref_axis',(-1.,0.,0.));
#895=DIRECTION('center_axis',(0.,0.,1.));
#896=DIRECTION('ref_axis',(-0.984799887117829,0.173692781464029,0.));
#897=DIRECTION('center_axis',(0.,0.,1.));
#898=DIRECTION('ref_axis',(-0.984799887117829,0.173692781464029,0.));
#899=DIRECTION('',(0.,0.,1.));
#900=DIRECTION('center_axis',(0.,0.,1.));
#901=DIRECTION('ref_axis',(-0.984799887117829,0.173692781464029,0.));
#902=DIRECTION('center_axis',(0.707106781186566,-0.707106781186529,0.));
#903=DIRECTION('ref_axis',(-0.707106781186529,-0.707106781186566,0.));
#904=DIRECTION('',(-0.707106781186529,-0.707106781186566,0.));
#905=DIRECTION('',(0.,0.,-1.));
#906=DIRECTION('',(0.707106781186606,0.707106781186489,0.));
#907=DIRECTION('center_axis',(0.,0.,-1.));
#908=DIRECTION('ref_axis',(-0.112788670092788,0.993618999364797,0.));
#909=DIRECTION('center_axis',(0.,0.,1.));
#910=DIRECTION('ref_axis',(-0.112788670092788,0.993618999364797,0.));
#911=DIRECTION('',(0.,0.,1.));
#912=DIRECTION('center_axis',(0.,0.,1.));
#913=DIRECTION('ref_axis',(-0.112788670092788,0.993618999364797,0.));
#914=DIRECTION('center_axis',(0.,0.,1.));
#915=DIRECTION('ref_axis',(-1.,0.,0.));
#916=DIRECTION('',(0.967011576380566,-0.254732430495164,0.));
#917=DIRECTION('center_axis',(0.,0.,1.));
#918=DIRECTION('ref_axis',(-0.967011576380565,-0.254732430495165,0.));
#919=DIRECTION('center_axis',(0.,0.,1.));
#920=DIRECTION('ref_axis',(-1.,0.,0.));
#921=DIRECTION('center_axis',(0.,0.,-1.));
#922=DIRECTION('ref_axis',(-0.967011576380566,-0.254732430495164,0.));
#923=DIRECTION('',(-0.254732430495164,0.967011576380566,0.));
#924=DIRECTION('center_axis',(0.,0.,1.));
#925=DIRECTION('ref_axis',(1.,0.,0.));
#926=DIRECTION('',(0.,-1.,0.));
#927=DIRECTION('center_axis',(0.,0.,1.));
#928=DIRECTION('ref_axis',(1.,0.,0.));
#929=DIRECTION('',(1.,0.,0.));
#930=DIRECTION('center_axis',(0.,0.,1.));
#931=DIRECTION('ref_axis',(1.,0.,0.));
#932=DIRECTION('',(-0.967011576380566,0.254732430495164,0.));
#933=DIRECTION('center_axis',(0.,0.,1.));
#934=DIRECTION('ref_axis',(-0.967011576380565,-0.254732430495165,0.));
#935=DIRECTION('',(0.967011576380566,-0.254732430495164,0.));
#936=DIRECTION('center_axis',(0.,0.,-1.));
#937=DIRECTION('ref_axis',(1.,0.,0.));
#938=DIRECTION('center_axis',(0.,0.,-1.));
#939=DIRECTION('ref_axis',(1.,0.,0.));
#940=DIRECTION('center_axis',(0.,0.,-1.));
#941=DIRECTION('ref_axis',(1.,0.,0.));
#942=DIRECTION('center_axis',(0.,0.,1.));
#943=DIRECTION('ref_axis',(-1.,0.,0.));
#944=DIRECTION('',(0.254732430495164,-0.967011576380566,0.));
#945=DIRECTION('center_axis',(0.,0.,1.));
#946=DIRECTION('ref_axis',(-0.967011576380565,-0.254732430495165,0.));
#947=DIRECTION('center_axis',(0.,0.,-1.));
#948=DIRECTION('ref_axis',(-1.,0.,0.));
#949=DIRECTION('center_axis',(0.,0.,-1.));
#950=DIRECTION('ref_axis',(-0.967011576380565,-0.254732430495165,0.));
#951=DIRECTION('',(0.,0.,-1.));
#952=DIRECTION('center_axis',(0.,0.,1.));
#953=DIRECTION('ref_axis',(-0.967011576380566,-0.254732430495164,0.));
#954=DIRECTION('center_axis',(0.,0.,1.));
#955=DIRECTION('ref_axis',(-0.967011576380566,-0.254732430495164,0.));
#956=DIRECTION('',(0.,0.,1.));
#957=DIRECTION('',(0.,0.,1.));
#958=DIRECTION('center_axis',(0.,0.,1.));
#959=DIRECTION('ref_axis',(1.,0.,0.));
#960=DIRECTION('',(0.,0.,1.));
#961=DIRECTION('center_axis',(0.,0.,1.));
#962=DIRECTION('ref_axis',(1.,0.,0.));
#963=DIRECTION('',(0.,0.,1.));
#964=DIRECTION('center_axis',(0.,0.,-1.));
#965=DIRECTION('ref_axis',(-0.967011576380565,-0.254732430495165,0.));
#966=DIRECTION('',(0.,0.,-1.));
#967=DIRECTION('center_axis',(0.967011576380566,0.254732430495164,0.));
#968=DIRECTION('ref_axis',(0.254732430495164,-0.967011576380566,0.));
#969=DIRECTION('center_axis',(0.254732430495164,0.967011576380566,0.));
#970=DIRECTION('ref_axis',(0.967011576380566,-0.254732430495164,0.));
#971=DIRECTION('center_axis',(0.,0.,1.));
#972=DIRECTION('ref_axis',(1.,0.,0.));
#973=DIRECTION('center_axis',(0.,0.,-1.));
#974=DIRECTION('ref_axis',(1.,0.,0.));
#975=DIRECTION('',(0.,0.,1.));
#976=DIRECTION('center_axis',(0.,0.,1.));
#977=DIRECTION('ref_axis',(1.,0.,0.));
#978=DIRECTION('center_axis',(0.,0.,-1.));
#979=DIRECTION('ref_axis',(1.,0.,0.));
#980=DIRECTION('',(0.,0.,1.));
#981=DIRECTION('center_axis',(0.,0.,1.));
#982=DIRECTION('ref_axis',(1.,0.,0.));
#983=DIRECTION('center_axis',(0.,0.,-1.));
#984=DIRECTION('ref_axis',(1.,0.,0.));
#985=DIRECTION('',(0.,0.,1.));
#986=DIRECTION('center_axis',(0.967011576380566,0.254732430495164,0.));
#987=DIRECTION('ref_axis',(-0.254732430495164,0.967011576380566,0.));
#988=DIRECTION('',(-0.254732430495164,0.967011576380566,0.));
#989=DIRECTION('',(0.,0.,1.));
#990=DIRECTION('center_axis',(0.254732430495164,0.967011576380566,0.));
#991=DIRECTION('ref_axis',(-0.967011576380566,0.254732430495164,0.));
#992=DIRECTION('',(-0.967011576380566,0.254732430495164,0.));
#993=DIRECTION('',(0.,0.,1.));
#994=DIRECTION('center_axis',(0.,0.,1.));
#995=DIRECTION('ref_axis',(1.,0.,0.));
#996=DIRECTION('center_axis',(0.,0.,1.));
#997=DIRECTION('ref_axis',(1.,0.,0.));
#998=DIRECTION('',(0.,0.,1.));
#999=DIRECTION('center_axis',(0.,-1.,0.));
#1000=DIRECTION('ref_axis',(1.,0.,0.));
#1001=DIRECTION('',(1.,0.,0.));
#1002=DIRECTION('center_axis',(-1.,0.,0.));
#1003=DIRECTION('ref_axis',(0.,-1.,0.));
#1004=DIRECTION('',(0.,-1.,0.));
#1005=DIRECTION('',(0.,0.,1.));
#1006=DIRECTION('center_axis',(0.,0.,1.));
#1007=DIRECTION('ref_axis',(1.,0.,0.));
#1008=DIRECTION('center_axis',(0.,0.,1.));
#1009=DIRECTION('ref_axis',(1.,0.,0.));
#1010=DIRECTION('center_axis',(0.,0.,1.));
#1011=DIRECTION('ref_axis',(1.,0.,0.));
#1012=CARTESIAN_POINT('',(0.,0.,0.));
#1013=CARTESIAN_POINT('Origin',(10.6389516754815,-5.67509480221024,12.));
#1014=CARTESIAN_POINT('',(10.4699372103185,-6.03763322854005,10.));
#1015=CARTESIAN_POINT('',(10.9217943879561,-5.95793751468484,10.));
#1016=CARTESIAN_POINT('Origin',(10.6389516754815,-5.67509480221024,10.));
#1017=CARTESIAN_POINT('',(10.4699372103185,-6.03763322854005,12.));
#1018=CARTESIAN_POINT('',(10.4699372103185,-6.03763322854005,12.));
#1019=CARTESIAN_POINT('',(10.9217943879561,-5.95793751468481,12.));
#1020=CARTESIAN_POINT('Origin',(10.6389516754815,-5.67509480221024,12.));
#1021=CARTESIAN_POINT('',(10.9217943879561,-5.95793751468484,12.));
#1022=CARTESIAN_POINT('Origin',(13.922923276251,-3.31036201698323,10.));
#1023=CARTESIAN_POINT('',(12.610666849796,-4.26906505284474,10.));
#1024=CARTESIAN_POINT('',(11.0411397734558,-5.83859212918513,10.));
#1025=CARTESIAN_POINT('',(12.6668663851755,-3.77397165328054,10.));
#1026=CARTESIAN_POINT('Origin',(12.3278241373213,-3.98622234037015,10.));
#1027=CARTESIAN_POINT('',(12.3683514933126,-3.08423593520869,10.));
#1028=CARTESIAN_POINT('Origin',(14.7858804342633,-2.44740485897095,10.));
#1029=CARTESIAN_POINT('',(11.262369962175,1.11427519191469,10.));
#1030=CARTESIAN_POINT('',(12.3683514933126,-3.08423593520869,10.));
#1031=CARTESIAN_POINT('',(10.6567374651669,1.34721705192854,10.));
#1032=CARTESIAN_POINT('Origin',(10.8755653316228,1.01238221971663,10.));
#1033=CARTESIAN_POINT('',(9.36244875543118,1.17960374819797,10.));
#1034=CARTESIAN_POINT('Origin',(9.8361329659575,2.60284767272323,10.));
#1035=CARTESIAN_POINT('',(8.8361329659575,0.800072034991235,10.));
#1036=CARTESIAN_POINT('Origin',(9.2361329659575,0.800072034991235,10.));
#1037=CARTESIAN_POINT('',(8.8361329659575,-5.59437668954478,10.));
#1038=CARTESIAN_POINT('',(8.8361329659575,2.60284767272323,10.));
#1039=CARTESIAN_POINT('',(9.36244875543118,-5.97390840275152,10.));
#1040=CARTESIAN_POINT('Origin',(9.2361329659575,-5.59437668954478,10.));
#1041=CARTESIAN_POINT('Origin',(9.8361329659575,-7.39715232727677,10.));
#1042=CARTESIAN_POINT('Origin',(8.3361329659575,-8.5435989366839,12.));
#1043=CARTESIAN_POINT('',(12.6106668497961,-4.26906505284489,12.));
#1044=CARTESIAN_POINT('',(20.9825795753651,4.10284767272373,12.));
#1045=CARTESIAN_POINT('',(12.610666849796,-4.26906505284474,12.));
#1046=CARTESIAN_POINT('Origin',(12.3278241373213,-3.98622234037015,12.));
#1047=CARTESIAN_POINT('',(12.6668663851755,-3.77397165328054,12.));
#1048=CARTESIAN_POINT('Origin',(12.3278241373213,-3.98622234037015,12.));
#1049=CARTESIAN_POINT('',(12.6668663851755,-3.77397165328054,12.));
#1050=CARTESIAN_POINT('Origin',(9.2361329659575,-5.59437668954478,12.));
#1051=CARTESIAN_POINT('',(8.8361329659575,-5.59437668954478,12.));
#1052=CARTESIAN_POINT('',(8.8361329659575,-5.59437668954478,12.));
#1053=CARTESIAN_POINT('',(9.36244875543118,-5.97390840275152,12.));
#1054=CARTESIAN_POINT('Origin',(9.2361329659575,-5.59437668954478,12.));
#1055=CARTESIAN_POINT('',(9.36244875543118,-5.97390840275152,12.));
#1056=CARTESIAN_POINT('Origin',(8.8361329659575,-6.27911833852688,12.));
#1057=CARTESIAN_POINT('',(8.8361329659575,0.800072034991235,12.));
#1058=CARTESIAN_POINT('',(8.8361329659575,0.800072034991235,12.));
#1059=CARTESIAN_POINT('',(8.8361329659575,-4.33813533290182,12.));
#1060=CARTESIAN_POINT('Origin',(10.8755653316228,1.01238221971663,12.));
#1061=CARTESIAN_POINT('',(11.262369962175,1.11427519191469,12.));
#1062=CARTESIAN_POINT('',(11.262369962175,1.11427519191469,12.));
#1063=CARTESIAN_POINT('',(10.6567374651669,1.34721705192854,12.));
#1064=CARTESIAN_POINT('Origin',(10.8755653316228,1.01238221971663,12.));
#1065=CARTESIAN_POINT('',(10.6567374651669,1.34721705192854,12.));
#1066=CARTESIAN_POINT('Origin',(9.8361329659575,2.60284767272323,12.));
#1067=CARTESIAN_POINT('',(9.36244875543118,1.17960374819797,12.));
#1068=CARTESIAN_POINT('Origin',(9.8361329659575,2.60284767272323,12.));
#1069=CARTESIAN_POINT('',(9.36244875543118,1.17960374819797,12.));
#1070=CARTESIAN_POINT('Origin',(9.2361329659575,0.800072034991235,12.));
#1071=CARTESIAN_POINT('Origin',(9.2361329659575,0.800072034991235,12.));
#1072=CARTESIAN_POINT('Origin',(18.2456675129509,-6.35771996161149,12.));
#1073=CARTESIAN_POINT('',(18.5805023451628,-6.57654782806734,10.));
#1074=CARTESIAN_POINT('',(18.347560485149,-5.97091533105926,10.));
#1075=CARTESIAN_POINT('Origin',(18.2456675129509,-6.35771996161149,10.));
#1076=CARTESIAN_POINT('',(18.5805023451628,-6.57654782806734,12.));
#1077=CARTESIAN_POINT('',(18.5805023451628,-6.57654782806734,12.));
#1078=CARTESIAN_POINT('',(18.347560485149,-5.97091533105927,12.));
#1079=CARTESIAN_POINT('Origin',(18.2456675129509,-6.35771996161149,12.));
#1080=CARTESIAN_POINT('',(18.347560485149,-5.97091533105926,12.));
#1081=CARTESIAN_POINT('Origin',(19.8361329659575,-7.39715232727677,12.));
#1082=CARTESIAN_POINT('',(18.4128890414322,-7.87083653780309,10.));
#1083=CARTESIAN_POINT('Origin',(19.8361329659575,-7.39715232727677,10.));
#1084=CARTESIAN_POINT('',(18.4128890414322,-7.87083653780309,12.));
#1085=CARTESIAN_POINT('',(18.4128890414322,-7.87083653780309,12.));
#1086=CARTESIAN_POINT('Origin',(19.8361329659575,-7.39715232727677,12.));
#1087=CARTESIAN_POINT('Origin',(18.0333573282255,-7.99715232727677,12.));
#1088=CARTESIAN_POINT('',(18.0333573282255,-8.39715232727677,10.));
#1089=CARTESIAN_POINT('Origin',(18.0333573282255,-7.99715232727677,10.));
#1090=CARTESIAN_POINT('',(18.0333573282255,-8.39715232727677,12.));
#1091=CARTESIAN_POINT('',(18.0333573282255,-8.39715232727677,12.));
#1092=CARTESIAN_POINT('Origin',(18.0333573282255,-7.99715232727677,12.));
#1093=CARTESIAN_POINT('Origin',(18.7180989772076,-8.39715232727677,12.));
#1094=CARTESIAN_POINT('',(11.6389086036895,-8.39715232727677,10.));
#1095=CARTESIAN_POINT('',(9.8361329659575,-8.39715232727677,10.));
#1096=CARTESIAN_POINT('',(11.6389086036895,-8.39715232727677,12.));
#1097=CARTESIAN_POINT('',(11.6389086036895,-8.39715232727677,12.));
#1098=CARTESIAN_POINT('',(16.7771159715825,-8.39715232727677,12.));
#1099=CARTESIAN_POINT('Origin',(11.6389086036895,-7.99715232727677,12.));
#1100=CARTESIAN_POINT('',(11.2593768904828,-7.87083653780309,10.));
#1101=CARTESIAN_POINT('Origin',(11.6389086036895,-7.99715232727677,10.));
#1102=CARTESIAN_POINT('',(11.2593768904828,-7.87083653780309,12.));
#1103=CARTESIAN_POINT('',(11.2593768904828,-7.87083653780309,12.));
#1104=CARTESIAN_POINT('Origin',(11.6389086036895,-7.99715232727677,12.));
#1105=CARTESIAN_POINT('Origin',(9.8361329659575,-7.39715232727677,12.));
#1106=CARTESIAN_POINT('',(11.1956520646943,-6.76334808291578,10.));
#1107=CARTESIAN_POINT('Origin',(9.8361329659575,-7.39715232727677,10.));
#1108=CARTESIAN_POINT('',(11.1956520646943,-6.76334808291578,12.));
#1109=CARTESIAN_POINT('',(11.1956520646943,-6.76334808291578,12.));
#1110=CARTESIAN_POINT('Origin',(9.8361329659575,-7.39715232727677,12.));
#1111=CARTESIAN_POINT('Origin',(11.5581904910241,-6.59433361775285,12.));
#1112=CARTESIAN_POINT('',(11.2753477785494,-6.31149090527823,10.));
#1113=CARTESIAN_POINT('Origin',(11.5581904910241,-6.59433361775285,10.));
#1114=CARTESIAN_POINT('',(11.2753477785494,-6.3114909052782,12.));
#1115=CARTESIAN_POINT('',(11.2753477785494,-6.31149090527823,12.));
#1116=CARTESIAN_POINT('Origin',(11.5581904910241,-6.59433361775285,12.));
#1117=CARTESIAN_POINT('Origin',(21.336132965958,3.74929428213083,12.));
#1118=CARTESIAN_POINT('',(12.9642202403893,-4.62261844343824,10.));
#1119=CARTESIAN_POINT('',(17.7179164687528,0.131077784925484,10.));
#1120=CARTESIAN_POINT('',(12.9642202403895,-4.62261844343838,12.));
#1121=CARTESIAN_POINT('',(12.9642202403893,-4.62261844343824,12.));
#1122=CARTESIAN_POINT('',(8.68968635655038,-8.89715232727678,12.));
#1123=CARTESIAN_POINT('Origin',(13.247062952864,-4.90546115591285,12.));
#1124=CARTESIAN_POINT('',(13.4593136399536,-4.56641890805872,10.));
#1125=CARTESIAN_POINT('Origin',(13.247062952864,-4.90546115591285,10.));
#1126=CARTESIAN_POINT('',(13.4593136399536,-4.56641890805872,12.));
#1127=CARTESIAN_POINT('',(13.4593136399536,-4.56641890805872,12.));
#1128=CARTESIAN_POINT('Origin',(13.247062952864,-4.90546115591285,12.));
#1129=CARTESIAN_POINT('Origin',(13.922923276251,-3.31036201698323,10.));
#1130=CARTESIAN_POINT('',(14.1490493580256,-4.8649337999217,10.));
#1131=CARTESIAN_POINT('',(20.0908653964527,-6.43014075089621,10.));
#1132=CARTESIAN_POINT('Origin',(14.7858804342633,-2.44740485897095,10.));
#1133=CARTESIAN_POINT('Origin',(14.8361329659577,-2.39715232727654,12.));
#1134=CARTESIAN_POINT('',(14.2764155732732,-4.38142801173142,12.));
#1135=CARTESIAN_POINT('',(12.8518572815029,-2.9568697199611,12.));
#1136=CARTESIAN_POINT('Origin',(14.7858804342633,-2.44740485897095,12.));
#1137=CARTESIAN_POINT('',(11.2866503305284,2.98494631846593,12.));
#1138=CARTESIAN_POINT('',(12.8518572815029,-2.9568697199611,12.));
#1139=CARTESIAN_POINT('',(8.3361329659575,2.60284767272323,12.));
#1140=CARTESIAN_POINT('Origin',(9.8361329659575,2.60284767272323,12.));
#1141=CARTESIAN_POINT('',(8.3361329659575,-7.39715232727677,12.));
#1142=CARTESIAN_POINT('',(8.3361329659575,2.60284767272323,12.));
#1143=CARTESIAN_POINT('',(9.8361329659575,-8.89715232727678,12.));
#1144=CARTESIAN_POINT('Origin',(9.8361329659575,-7.39715232727677,12.));
#1145=CARTESIAN_POINT('',(19.8361329659575,-8.89715232727678,12.));
#1146=CARTESIAN_POINT('',(9.8361329659575,-8.89715232727678,12.));
#1147=CARTESIAN_POINT('',(20.2182316117002,-5.94663496270592,12.));
#1148=CARTESIAN_POINT('Origin',(19.8361329659575,-7.39715232727677,12.));
#1149=CARTESIAN_POINT('',(20.2182316117002,-5.94663496270592,12.));
#1150=CARTESIAN_POINT('',(14.1490493580256,-4.8649337999217,12.));
#1151=CARTESIAN_POINT('Origin',(14.7858804342633,-2.44740485897095,12.));
#1152=CARTESIAN_POINT('',(14.1663558821831,-4.86949272462307,12.));
#1153=CARTESIAN_POINT('',(8.8361329659575,-7.39715232727677,12.));
#1154=CARTESIAN_POINT('Origin',(9.8361329659575,-7.39715232727677,12.));
#1155=CARTESIAN_POINT('',(18.8361329659575,-7.39715232727677,12.));
#1156=CARTESIAN_POINT('Origin',(19.8361329659575,-7.39715232727677,12.));
#1157=CARTESIAN_POINT('',(8.8361329659575,2.60284767272323,12.));
#1158=CARTESIAN_POINT('Origin',(9.8361329659575,2.60284767272323,12.));
#1159=CARTESIAN_POINT('Origin',(9.8361329659575,-7.39715232727677,12.));
#1160=CARTESIAN_POINT('',(12.3683514933126,-3.08423593520869,12.));
#1161=CARTESIAN_POINT('',(11.7235888507892,-0.636597296791681,12.));
#1162=CARTESIAN_POINT('Origin',(14.7858804342633,-2.44740485897095,12.));
#1163=CARTESIAN_POINT('Origin',(9.8361329659575,-7.39715232727677,12.));
#1164=CARTESIAN_POINT('Origin',(14.7858804342633,-2.44740485897095,12.));
#1165=CARTESIAN_POINT('',(12.3683514933126,-3.08423593520869,12.));
#1166=CARTESIAN_POINT('Origin',(14.7858804342633,-2.44740485897095,9.));
#1167=CARTESIAN_POINT('',(12.8518572815029,-2.9568697199611,9.));
#1168=CARTESIAN_POINT('',(14.2764155732732,-4.38142801173142,9.));
#1169=CARTESIAN_POINT('Origin',(14.7858804342633,-2.44740485897095,9.));
#1170=CARTESIAN_POINT('',(12.8518572815029,-2.9568697199611,9.));
#1171=CARTESIAN_POINT('',(14.2764155732732,-4.38142801173142,9.));
#1172=CARTESIAN_POINT('Origin',(9.8361329659575,-7.39715232727677,9.));
#1173=CARTESIAN_POINT('',(8.3361329659575,-7.39715232727677,9.));
#1174=CARTESIAN_POINT('',(8.3361329659575,-7.39715232727677,9.));
#1175=CARTESIAN_POINT('',(9.8361329659575,-8.89715232727678,9.));
#1176=CARTESIAN_POINT('Origin',(9.8361329659575,-7.39715232727677,9.));
#1177=CARTESIAN_POINT('',(9.8361329659575,-8.89715232727678,9.));
#1178=CARTESIAN_POINT('Origin',(14.7858804342633,-2.44740485897095,12.));
#1179=CARTESIAN_POINT('',(14.1490493580256,-4.8649337999217,12.));
#1180=CARTESIAN_POINT('Origin',(11.0879440576685,1.77642829331029,12.));
#1181=CARTESIAN_POINT('Origin',(14.1490493580256,-4.8649337999217,12.));
#1182=CARTESIAN_POINT('Origin',(19.8361329659575,-7.39715232727677,9.));
#1183=CARTESIAN_POINT('',(18.8361329659575,-7.39715232727677,9.));
#1184=CARTESIAN_POINT('Origin',(19.8361329659575,-7.39715232727677,9.));
#1185=CARTESIAN_POINT('',(18.8361329659575,-7.39715232727677,9.));
#1186=CARTESIAN_POINT('Origin',(9.8361329659575,-7.39715232727677,9.));
#1187=CARTESIAN_POINT('',(8.8361329659575,-7.39715232727677,9.));
#1188=CARTESIAN_POINT('Origin',(9.8361329659575,-7.39715232727677,9.));
#1189=CARTESIAN_POINT('',(8.8361329659575,-7.39715232727677,9.));
#1190=CARTESIAN_POINT('Origin',(9.8361329659575,2.60284767272323,9.));
#1191=CARTESIAN_POINT('',(8.8361329659575,2.60284767272323,9.));
#1192=CARTESIAN_POINT('Origin',(9.8361329659575,2.60284767272323,9.));
#1193=CARTESIAN_POINT('',(8.8361329659575,2.60284767272323,9.));
#1194=CARTESIAN_POINT('Origin',(12.8518572815029,-2.9568697199611,9.));
#1195=CARTESIAN_POINT('',(11.2866503305284,2.98494631846593,9.));
#1196=CARTESIAN_POINT('',(12.8518572815029,-2.9568697199611,9.));
#1197=CARTESIAN_POINT('',(11.2866503305284,2.98494631846593,9.));
#1198=CARTESIAN_POINT('Origin',(20.2182316117002,-5.94663496270592,9.));
#1199=CARTESIAN_POINT('',(20.2182316117002,-5.94663496270592,9.));
#1200=CARTESIAN_POINT('',(20.2182316117002,-5.94663496270592,9.));
#1201=CARTESIAN_POINT('',(20.2182316117002,-5.94663496270592,9.));
#1202=CARTESIAN_POINT('Origin',(19.8361329659575,-7.39715232727677,9.));
#1203=CARTESIAN_POINT('',(19.8361329659575,-8.89715232727678,9.));
#1204=CARTESIAN_POINT('Origin',(19.8361329659575,-7.39715232727677,9.));
#1205=CARTESIAN_POINT('',(19.8361329659575,-8.89715232727678,9.));
#1206=CARTESIAN_POINT('Origin',(9.8361329659575,-8.89715232727678,9.));
#1207=CARTESIAN_POINT('',(9.8361329659575,-8.89715232727678,9.));
#1208=CARTESIAN_POINT('Origin',(8.3361329659575,2.60284767272323,9.));
#1209=CARTESIAN_POINT('',(8.3361329659575,2.60284767272323,9.));
#1210=CARTESIAN_POINT('',(8.3361329659575,2.60284767272323,9.));
#1211=CARTESIAN_POINT('',(8.3361329659575,2.60284767272323,9.));
#1212=CARTESIAN_POINT('Origin',(9.8361329659575,2.60284767272323,9.));
#1213=CARTESIAN_POINT('Origin',(9.8361329659575,2.60284767272323,9.));
#1214=CARTESIAN_POINT('Origin',(14.8361329659575,-2.39715232727677,9.));
#1215=UNCERTAINTY_MEASURE_WITH_UNIT(LENGTH_MEASURE(0.01),#1219,
'DISTANCE_ACCURACY_VALUE',
'Maximum model space distance between geometric entities at asserted c
onnectivities');
#1216=UNCERTAINTY_MEASURE_WITH_UNIT(LENGTH_MEASURE(0.01),#1219,
'DISTANCE_ACCURACY_VALUE',
'Maximum model space distance between geometric entities at asserted c
onnectivities');
#1217=(
GEOMETRIC_REPRESENTATION_CONTEXT(3)
GLOBAL_UNCERTAINTY_ASSIGNED_CONTEXT((#1215))
GLOBAL_UNIT_ASSIGNED_CONTEXT((#1219,#1221,#1222))
REPRESENTATION_CONTEXT('','3D')
);
#1218=(
GEOMETRIC_REPRESENTATION_CONTEXT(3)
GLOBAL_UNCERTAINTY_ASSIGNED_CONTEXT((#1216))
GLOBAL_UNIT_ASSIGNED_CONTEXT((#1219,#1221,#1222))
REPRESENTATION_CONTEXT('','3D')
);
#1219=(
LENGTH_UNIT()
NAMED_UNIT(*)
SI_UNIT(.MILLI.,.METRE.)
);
#1220=(
LENGTH_UNIT()
NAMED_UNIT(*)
SI_UNIT($,.METRE.)
);
#1221=(
NAMED_UNIT(*)
PLANE_ANGLE_UNIT()
SI_UNIT($,.RADIAN.)
);
#1222=(
NAMED_UNIT(*)
SI_UNIT($,.STERADIAN.)
SOLID_ANGLE_UNIT()
);
#1223=SHAPE_DEFINITION_REPRESENTATION(#1224,#1225);
#1224=PRODUCT_DEFINITION_SHAPE('',$,#1227);
#1225=SHAPE_REPRESENTATION('',(#707),#1217);
#1226=PRODUCT_DEFINITION_CONTEXT('part definition',#1231,'design');
#1227=PRODUCT_DEFINITION('(Nicht gespeichert)','(Nicht gespeichert)',#1228,
#1226);
#1228=PRODUCT_DEFINITION_FORMATION('',$,#1233);
#1229=PRODUCT_RELATED_PRODUCT_CATEGORY('(Nicht gespeichert)',
'(Nicht gespeichert)',(#1233));
#1230=APPLICATION_PROTOCOL_DEFINITION('international standard',
'automotive_design',2009,#1231);
#1231=APPLICATION_CONTEXT(
'Core Data for Automotive Mechanical Design Process');
#1232=PRODUCT_CONTEXT('part definition',#1231,'mechanical');
#1233=PRODUCT('(Nicht gespeichert)','(Nicht gespeichert)',$,(#1232));
#1234=PRESENTATION_STYLE_ASSIGNMENT((#1236));
#1235=PRESENTATION_STYLE_ASSIGNMENT((#1237));
#1236=SURFACE_STYLE_USAGE(.BOTH.,#1238);
#1237=SURFACE_STYLE_USAGE(.BOTH.,#1239);
#1238=SURFACE_SIDE_STYLE('',(#1240));
#1239=SURFACE_SIDE_STYLE('',(#1241));
#1240=SURFACE_STYLE_FILL_AREA(#1242);
#1241=SURFACE_STYLE_FILL_AREA(#1243);
#1242=FILL_AREA_STYLE('Stahl - satiniert',(#1244));
#1243=FILL_AREA_STYLE('Opaque(160,160,160)',(#1245));
#1244=FILL_AREA_STYLE_COLOUR('Stahl - satiniert',#1246);
#1245=FILL_AREA_STYLE_COLOUR('Opaque(160,160,160)',#1247);
#1246=COLOUR_RGB('Stahl - satiniert',0.627450980392157,0.627450980392157,
0.627450980392157);
#1247=COLOUR_RGB('Opaque(160,160,160)',0.627450980392157,0.627450980392157,
0.627450980392157);
ENDSEC;
END-ISO-10303-21;
